<?xml version="1.0" encoding="utf-8"?>
<!-- Generator: Adobe Illustrator 22.1.0, SVG Export Plug-In . SVG Version: 6.00 Build 0)  -->
<svg version="1.1" id="Layer_1" xmlns="http://www.w3.org/2000/svg" xmlns:xlink="http://www.w3.org/1999/xlink" x="0px" y="0px"
	 viewBox="0 0 1920 827" enable-background="new 0 0 1920 827" xml:space="preserve">
<title>background shapes0</title>
<line fill="none" x1="720.3" y1="43.9" x2="707.5" y2="91.8"/>
<polygon fill="none" points="959.1,0 956.9,0 958,1.9 "/>
<polygon fill="none" points="263.8,191.7 260,185.2 256.2,191.8 "/>
<path fill="none" d="M482.8,826.4c-0.1,0.2-0.1,0.4-0.3,0.6h10l-7.8-7.8L482.8,826.4z"/>
<path fill="none" d="M779.4,94.3"/>
<polygon fill="none" points="709.2,363.2 709.2,350.5 698.2,356.8 "/>
<path fill="#19A488" d="M182.4,142.6c0.9-1,0.9-2.6-0.1-3.5l-7.5-7l7-7.5c0.9-1,0.9-2.6-0.1-3.5c-1-0.9-2.6-0.9-3.5,0.1l-7,7.5
	l-7.5-7c-1-0.9-2.6-0.9-3.5,0.1c-0.9,1-0.9,2.6,0.1,3.5l7.5,7l-7,7.5c-0.9,1-0.9,2.6,0.1,3.5c0.5,0.4,1.1,0.7,1.7,0.7
	c0.7,0,1.4-0.3,1.8-0.8l7-7.5l7.5,7c0.5,0.4,1.1,0.7,1.7,0.7C181.3,143.4,182,143.2,182.4,142.6z"/>
<path fill="#19A488" d="M480.8,155.1C480.8,155,480.8,155,480.8,155.1c-1-1-2.6-0.9-3.5,0.1c0,0,0,0,0,0l-7,7.5l-7.5-7
	c-1-0.9-2.6-0.9-3.5,0.1c-0.9,1-0.9,2.6,0.1,3.5l7.5,7l-7,7.5c-0.9,1-0.9,2.6,0.1,3.5c1,0.9,2.6,0.9,3.5-0.1l7-7.5l7.5,7
	c0.5,0.4,1.1,0.7,1.7,0.7c0.7,0,1.4-0.3,1.8-0.8c0.9-1,0.9-2.6-0.1-3.5c0,0,0,0,0,0l-7.5-7l7-7.5C481.8,157.6,481.8,156,480.8,155.1
	z"/>
<path fill="#19A488" d="M448.2,324.7c-1-0.9-2.6-0.9-3.5,0.1c-0.9,1-0.9,2.6,0.1,3.5l7.5,7l-7,7.5c-1,1-1,2.5-0.1,3.5
	c1,1,2.5,1,3.5,0.1c0.1-0.1,0.1-0.1,0.2-0.2l7-7.5l7.5,7c0.5,0.4,1.1,0.7,1.7,0.7c0.7,0,1.4-0.3,1.8-0.8c0.9-1,0.9-2.6-0.1-3.5
	c0,0,0,0,0,0l-7.5-7l7-7.5c1-1,1-2.5,0.1-3.5c-1-1-2.5-1-3.5-0.1c-0.1,0.1-0.1,0.1-0.2,0.2l-7,7.5L448.2,324.7z"/>
<path fill="#19A488" d="M214.7,195.5c0.4,0.8,1.3,1.2,2.2,1.3h35.3l-8.2,14.3h53l-26.5-45.9l-8,14l-4.8-8.4l-12.9-22.3
	c-0.4-0.8-1.3-1.2-2.2-1.3c-0.9,0-1.7,0.5-2.2,1.3L214.7,193C214.2,193.8,214.2,194.8,214.7,195.5z M270.4,167.2l24.8,42.9h-49.5
	l7.7-13.4h14.8c1.4,0,2.5-1.1,2.5-2.5c0-0.4-0.1-0.9-0.3-1.2l-7.4-12.8L270.4,167.2z M263.8,191.7l-7.6,0l3.8-6.6L263.8,191.7z
	 M242.5,154.8l17,29.3l-4.4,7.6h-33.8L242.5,154.8z"/>
<path fill="#19A488" d="M478.7,111.5c0.5,0.5,1.1,0.7,1.8,0.7c0.2,0,0.4,0,0.7-0.1c0.9-0.2,1.5-0.9,1.8-1.8l1.9-7.2l23.8,23.8
	l13.7-51.2l-32.5,8.7l6.3-23.7c0.2-0.9,0-1.8-0.7-2.4c-0.6-0.6-1.5-0.9-2.4-0.6L443.5,71c-0.9,0.2-1.5,0.9-1.8,1.8
	c-0.2,0.9,0,1.8,0.7,2.4L478.7,111.5z M480.9,98l-8-8l10.9-2.9L480.9,98z M520.8,77.2l-12.8,47.9l-23-23l4.4-16.5L520.8,77.2z
	 M490.1,63.7l-5.5,20.6l-0.5,1.7L471,89.6l9.6,9.6l-1.5,5.8l-30.2-30.1L490.1,63.7z"/>
<path fill="#19A488" d="M41.2,359.9c0.2,0,0.4,0,0.6-0.1c0.9-0.2,1.5-0.9,1.8-1.8l1.9-7.1l23.8,23.8L83,323.5l-32.5,8.7l6.3-23.7
	c0.4-1.3-0.4-2.7-1.8-3.1c-0.4-0.1-0.9-0.1-1.3,0L4.3,318.8c-1.3,0.4-2.1,1.7-1.8,3.1c0.1,0.4,0.3,0.8,0.7,1.1l36.3,36.2
	C39.9,359.6,40.5,359.9,41.2,359.9z M41.7,345.7l-8-8l10.9-2.9L41.7,345.7z M81.6,324.9l-12.8,47.9l-23-23l4.4-16.5L81.6,324.9z
	 M50.9,311.4L45.4,332l-0.5,1.7l-13.1,3.5l9.6,9.6l-1.5,5.7L9.8,322.5L50.9,311.4z"/>
<path fill="#19A488" d="M23.8,96.2c0.4,0.2,0.8,0.3,1.2,0.3c0.4,0,0.9-0.1,1.3-0.3l26.1-15.1v30.1l45.9-26.5L71.7,69.3
	c0.1-0.3,0.2-0.7,0.2-1c0-0.9-0.5-1.7-1.3-2.2L26.3,40.5c-0.8-0.4-1.7-0.4-2.5,0c-0.8,0.4-1.3,1.3-1.3,2.2V94
	C22.5,94.9,23,95.7,23.8,96.2z M53.5,62l11,6.4l-11,6.4V62z M53.5,80.5l17.3-10c0.2-0.1,0.3-0.2,0.5-0.4l25.2,14.5l-42.9,24.8V80.5z
	 M27.6,47.1l24.9,14.3v13.9L46,79L27.6,89.7V47.1z"/>
<path fill="#19A488" d="M321.2,61.2c3,0,6-0.6,8.7-1.7c2.2,10.8,12.7,17.8,23.6,15.6s17.8-12.7,15.6-23.6
	c-2.2-10.8-12.7-17.8-23.6-15.6c-0.7,0.1-1.5,0.3-2.2,0.6c-1.4-11-10.7-19.2-21.8-19.3c-12.1-0.1-22.1,9.6-22.2,21.8
	C299.3,51.2,309,61.1,321.2,61.2z M343.5,37.6c1.9-0.7,4-1,6-1l0,0c10.5,0,19,8.4,19.1,18.9c0,10.5-8.4,19-18.9,19.1
	c-9.2,0-17.1-6.5-18.8-15.5c7.7-3.6,12.7-11.4,12.7-19.9C343.6,38.6,343.6,38.1,343.5,37.6z M330.7,53.5c0.6-5.4,3.4-10.3,7.9-13.4
	l0,0C338.2,45.6,335.3,50.6,330.7,53.5z M304.7,39.2C304.7,39.2,304.7,39.2,304.7,39.2c0.1-9.3,7.8-16.8,17.2-16.7
	c9.1,0.1,16.4,7.3,16.7,16.4c-5.2,3.4-8.5,9.1-8.9,15.3c-2.5,1.3-5.2,2-8,2C312.3,56.1,304.7,48.6,304.7,39.2
	C304.7,39.2,304.7,39.2,304.7,39.2L304.7,39.2z"/>
<polygon fill="#19A488" points="235.8,379.2 235.8,379.2 235.8,379.2 "/>
<path fill="#19A488" d="M244.1,416.5c2.2,10.8,12.7,17.8,23.6,15.6c10.8-2.2,17.8-12.7,15.6-23.6c-2.2-10.8-12.7-17.8-23.6-15.6
	c-0.7,0.1-1.5,0.3-2.2,0.6c-1.4-12.1-12.4-20.7-24.5-19.2c-12.1,1.4-20.7,12.4-19.2,24.5c1.3,11.1,10.7,19.4,21.9,19.4v0
	C238.6,418.2,241.5,417.6,244.1,416.5z M257.6,394.6c1.9-0.7,4-1,6-1v0c10.5,0,19,8.4,19.1,18.9c0,10.5-8.4,19-18.9,19.1
	c-9.2,0-17-6.5-18.7-15.5c7.7-3.6,12.7-11.4,12.7-19.9C257.7,395.7,257.7,395.1,257.6,394.6z M244.8,410.5
	c0.6-5.4,3.4-10.3,7.9-13.4C252.4,402.6,249.4,407.6,244.8,410.5z M220.7,404.4c-4.5-8.2-1.5-18.6,6.7-23.1c2.6-1.4,5.5-2.1,8.4-2.1
	c0,0,0,0,0,0h0c0,0,0,0,0,0c9.2,0,16.7,7.4,16.9,16.6c-5.2,3.4-8.5,9.1-8.9,15.3C235.5,415.6,225.2,412.7,220.7,404.4z"/>
<path fill="#19A488" d="M7.1,203.9c-1-4.8-3.6-8.8-7.1-11.6v1.4c4,3.5,6.5,8.5,6.5,14.2c0,5.7-2.5,10.8-6.5,14.3v1.3
	C5.6,218.9,8.6,211.4,7.1,203.9z"/>
<path fill="#19A488" d="M83.1,169.9v38.7c0,1.4,1.1,2.5,2.5,2.5H113v14.4h39.7v-39.7h-25.9v-15.9c0-1.4-1.1-2.5-2.5-2.5c0,0,0,0,0,0
	H85.6C84.2,167.4,83.1,168.6,83.1,169.9z M126.8,208.7C126.8,208.7,126.8,208.6,126.8,208.7v-21.9l24.9,0v37.7H114v-13.4h10.3
	C125.7,211.1,126.8,210,126.8,208.7z M114,206.1v-19.4l7.8,0v19.4H114z M88.1,172.4h33.7v13.3H113v20.4l-24.9,0V172.4z"/>
<path fill="#19A488" d="M563.7,354.9H525c-1.4,0-2.5,1.1-2.5,2.5v38.7c0,1.4,1.1,2.5,2.5,2.5h27.4v14.3h39.7v-39.7h-25.9v-15.8
	C566.2,356,565.1,354.9,563.7,354.9z M552.4,393.6h-24.9v-33.7h33.7v13.3h-8.8V393.6z M561.2,374.3v19.4h-7.8v-19.4H561.2z
	 M591.1,374.3v37.7h-37.7v-13.3h10.3c1.4,0,2.5-1.1,2.5-2.5v-21.9H591.1z"/>
<path fill="#19A488" d="M291.1,119.7c4,0,5.6,2.6,7.9,6.9c2,3.6,4.4,8.1,9.9,8.1c5.5,0,7.9-4.5,9.8-8.1c2.3-4.3,3.9-6.9,7.9-6.9
	c4,0,5.6,2.6,7.9,6.9c2,3.6,4.4,8.1,9.8,8.1c5.5,0,7.9-4.5,9.8-8.1c2.3-4.3,3.9-6.9,7.9-6.9c1.4,0,2.5-1.1,2.5-2.5
	c0-1.4-1.1-2.5-2.5-2.5c-7.2,0-10.2,5.5-12.3,9.5c-2.1,3.8-3.2,5.5-5.4,5.5s-3.4-1.7-5.4-5.5c-2.2-4-5.1-9.5-12.3-9.5
	s-10.2,5.5-12.3,9.5c-2.1,3.8-3.2,5.5-5.4,5.5s-3.4-1.7-5.5-5.5c-2.2-4-5.1-9.5-12.3-9.5c-1.4,0-2.5,1.1-2.5,2.5
	C288.6,118.6,289.8,119.7,291.1,119.7z"/>
<path fill="#19A488" d="M440.3,403.2c-2.2-4-5.1-9.5-12.3-9.5c-7.2,0-10.2,5.5-12.3,9.5c-2.1,3.8-3.2,5.5-5.4,5.5s-3.4-1.7-5.4-5.5
	c-2.2-4-5.1-9.5-12.3-9.5c-1.4,0-2.5,1.1-2.5,2.5s1.1,2.5,2.5,2.5c4,0,5.6,2.6,7.9,6.9c2,3.6,4.4,8.1,9.8,8.1c5.5,0,7.9-4.5,9.8-8.1
	c2.3-4.3,3.9-6.9,7.9-6.9c4,0,5.6,2.6,7.9,6.9c2,3.6,4.4,8.1,9.8,8.1c5.5,0,7.9-4.5,9.8-8.1c2.3-4.3,3.9-6.9,7.9-6.9
	c1.4,0,2.5-1.1,2.5-2.5s-1.1-2.5-2.5-2.5c-7.2,0-10.2,5.5-12.3,9.5c-2.1,3.8-3.2,5.5-5.4,5.5S442.3,407,440.3,403.2z"/>
<path fill="#19A488" d="M458.6,11.5c5.5,0,7.9-4.5,9.8-8.1c0.7-1.3,1.3-2.4,2-3.3h-5.8c-0.2,0.3-0.4,0.7-0.5,1
	c-2.1,3.8-3.2,5.5-5.4,5.5s-3.4-1.7-5.4-5.5c-0.2-0.3-0.4-0.6-0.5-1h-5.8c0.6,1,1.3,2.1,2,3.3C450.7,7,453.2,11.5,458.6,11.5z"/>
<path fill="#19A488" d="M494.2,11.5c5.5,0,7.9-4.5,9.8-8.1c0.7-1.3,1.3-2.4,2-3.3h-5.8c-0.2,0.3-0.4,0.7-0.5,1
	c-2.1,3.8-3.2,5.5-5.4,5.5s-3.4-1.7-5.4-5.5c-0.2-0.3-0.4-0.6-0.5-1h-5.8c0.6,1,1.3,2.1,2,3.3C486.3,7,488.7,11.5,494.2,11.5z"/>
<path fill="#19A488" d="M492.7,247.5c3.6-2,8.1-4.4,8.1-9.8c0-5.5-4.5-7.9-8.1-9.8c-4.3-2.3-6.9-3.9-6.9-7.9c0-1.4-1.1-2.5-2.5-2.5
	s-2.5,1.1-2.5,2.5c0,7.2,5.5,10.2,9.5,12.3c3.8,2.1,5.5,3.2,5.5,5.4s-1.7,3.4-5.5,5.4c-4,2.2-9.5,5.1-9.5,12.3s5.5,10.2,9.5,12.3
	c3.8,2.1,5.5,3.2,5.5,5.4s-1.7,3.4-5.5,5.4c-4,2.2-9.5,5.1-9.5,12.3c0,1.4,1.1,2.5,2.5,2.5s2.5-1.1,2.5-2.5c0-4,2.6-5.6,6.9-7.9
	c3.6-2,8.1-4.4,8.1-9.8s-4.5-7.9-8.1-9.8c-4.3-2.3-6.9-3.9-6.9-7.9S488.4,249.8,492.7,247.5z"/>
<path fill="#19A488" d="M123.8,306.6c-4,2.2-9.5,5.1-9.5,12.3c0,1.4,1.1,2.5,2.5,2.5c1.4,0,2.5-1.1,2.5-2.5c0-4,2.6-5.6,6.9-7.9
	c3.6-2,8.1-4.4,8.1-9.8s-4.5-7.9-8.1-9.8c-4.3-2.3-6.9-3.9-6.9-7.9s2.6-5.6,6.9-7.9c3.6-2,8.1-4.4,8.1-9.8s-4.5-7.9-8.1-9.8
	c-4.3-2.3-6.9-3.9-6.9-7.9c0-1.4-1.1-2.5-2.5-2.5c-1.4,0-2.5,1.1-2.5,2.5c0,7.2,5.5,10.2,9.5,12.3c3.8,2.1,5.5,3.2,5.5,5.4
	s-1.7,3.4-5.5,5.4c-4,2.2-9.5,5.1-9.5,12.3s5.5,10.2,9.5,12.3c3.8,2.1,5.5,3.2,5.5,5.4S127.6,304.6,123.8,306.6z"/>
<path fill="#19A488" d="M349,172.1c0,1.4,1.1,2.5,2.5,2.5h43.9c1.4,0,2.5-1.1,2.5-2.5c0-1.4-1.1-2.5-2.5-2.5h-43.9
	C350.1,169.6,349,170.7,349,172.1z"/>
<path fill="#19A488" d="M92.7,396.1c0,1.4,1.1,2.5,2.5,2.5h43.9c1.4,0,2.5-1.1,2.5-2.5s-1.1-2.5-2.5-2.5H95.2
	C93.9,393.6,92.7,394.7,92.7,396.1z"/>
<path fill="#19A488" d="M209.6,313.2l31-31c1-1,0.9-2.6-0.1-3.5c-1-0.9-2.5-0.9-3.5,0l-31,31c-1,1-1,2.6,0,3.5
	c0.5,0.5,1.1,0.7,1.8,0.7l0,0C208.5,313.9,209.1,313.6,209.6,313.2z"/>
<path fill="#19A488" d="M551.3,93.2L551.3,93.2l31-31c1-1,0.9-2.6-0.1-3.5c-1-0.9-2.5-0.9-3.5,0l-31,31c-1,1-1,2.6,0,3.5
	C548.8,94.2,550.4,94.2,551.3,93.2z"/>
<path fill="#19A488" d="M409.4,262.5l-17.7-30.6c-0.4-0.8-1.3-1.2-2.2-1.3c-0.9,0-1.7,0.5-2.2,1.3l-25.6,44.4
	c-0.7,1.2-0.3,2.7,0.9,3.4c0.4,0.2,0.8,0.3,1.2,0.3h35.3l-8.3,14.4h53l-26.5-46L409.4,262.5z M410.9,275.1h-7.6l3.8-6.6L410.9,275.1
	z M368.3,275.1l21.3-36.9l10.7,18.5l6.3,10.8l-4.4,7.6L368.3,275.1z M392.7,293.4l7.7-13.4h14.8c1.4,0,2.5-1.1,2.5-2.5
	c0-0.4-0.1-0.9-0.3-1.2l-7.4-12.8l7.5-13l24.8,42.9H392.7z"/>
<path fill="#19A488" d="M372.6,377.4c0.7,2,1,4,1,6.1h1c0-11-8.9-20-19.9-20c-2.1,0-4.1,0.3-6.1,1c-1.8-12-13-20.3-25.1-18.4
	c-10.5,1.6-18.4,10.5-18.7,21.1c0,1.4,1.1,2.5,2.5,2.5c1.4,0,2.5-1.1,2.5-2.5c0.1-9.4,7.8-16.9,17.2-16.7
	c9.1,0.1,16.4,7.3,16.7,16.4c-5.6,3.7-9,9.9-9,16.7h1c0-6.2,3-12,8.2-15.5c0.4,1.3,1.9,2,3.2,1.6c1-0.3,1.7-1.3,1.7-2.4
	c0-0.5,0-1.1-0.1-1.6C358.5,362.2,369.2,367.5,372.6,377.4z"/>
<path fill="#19A488" d="M373.6,383.5C373.6,383.5,373.6,383.5,373.6,383.5L373.6,383.5L373.6,383.5z"/>
<path fill="#19A488" d="M152,70.9c1.4,0,2.5-1.1,2.5-2.5c0.6-9.4,8.7-16.5,18.1-15.8c8.4,0.6,15.1,7.1,15.8,15.5
	c-5.6,3.7-9,9.9-9,16.6h1c0-6.2,3-12,8.1-15.6c0.4,1.3,1.8,2,3.1,1.6c1-0.3,1.7-1.3,1.7-2.4c0-0.5,0-1.1-0.1-1.6
	c9.9-3.4,20.6,1.9,24,11.8c0.7,2,1,4.1,1,6.2h1c0-11-8.9-19.9-19.8-20c-2.1,0-4.2,0.3-6.2,1c-1.8-12-13-20.3-25-18.5
	c-10.5,1.6-18.4,10.5-18.7,21.2C149.5,69.8,150.6,70.9,152,70.9z"/>
<path fill="#19A488" d="M537.5,216.4C539,228.5,550,237,562,235.6c2-0.2,3.9-0.7,5.7-1.5c2.4,10.8,13.1,17.6,23.9,15.1
	c9-2,15.4-9.9,15.6-19.1c0-11-8.9-20-19.9-20c-2.1,0-4.1,0.3-6.1,1c-1.5-12.1-12.4-20.6-24.5-19.2
	C544.6,193.4,536,204.3,537.5,216.4z M581.3,212.1c1.9-0.7,4-1,6-1c10.5,0,18.9,8.5,18.9,19c0,10.5-8.5,18.9-18.9,18.9l0,0
	c-9.1,0-16.9-6.5-18.6-15.4c7.7-3.6,12.7-11.4,12.7-19.9C581.4,213.2,581.4,212.7,581.3,212.1z M568.4,228
	c0.6-5.4,3.5-10.3,7.9-13.4v0C576,220.1,573.1,225.1,568.4,228z M559.6,197c9.1,0.1,16.4,7.3,16.7,16.4c-5.2,3.4-8.5,9.1-8.9,15.3
	c-2.5,1.3-5.2,2-8,2c-9.3,0-16.9-7.6-17-16.9C542.6,204.4,550.3,196.9,559.6,197z"/>
<path fill="#19A488" d="M365.2,141.5c-2.1-4-4.6-8.4-10.6-8.4s-8.4,4.4-10.6,8.4c-1.9,3.5-3.5,6.5-7.2,6.5c-3.7,0-5.3-3-7.2-6.5
	c-2.1-4-4.6-8.4-10.6-8.4v1c5.4,0,7.6,4,9.7,7.9c1.9,3.5,3.8,7.1,8.1,7.1c4.3,0,6.2-3.6,8.1-7.1c2.1-3.9,4.3-7.9,9.7-7.9
	c5.4,0,7.6,4,9.7,7.9c1.9,3.5,3.8,7.1,8.1,7.1c4.3,0,6.2-3.6,8.1-7.1c2.1-3.9,4.3-7.9,9.7-7.9v-1c-6,0-8.4,4.5-10.6,8.4
	c-1.9,3.5-3.5,6.5-7.2,6.5C368.7,148,367,145,365.2,141.5z"/>
<path fill="#19A488" d="M473.6,428c4.3,0,6.2-3.6,8.1-7.1c2.1-3.9,4.3-7.9,9.7-7.9v-1c-6,0-8.4,4.5-10.6,8.4
	c-1.9,3.5-3.5,6.5-7.2,6.5s-5.3-3-7.2-6.5c-2.1-4-4.6-8.4-10.6-8.4s-8.4,4.4-10.6,8.4c-1.9,3.5-3.5,6.5-7.2,6.5s-5.3-3-7.2-6.5
	c-2.1-4-4.6-8.4-10.6-8.4v1c5.4,0,7.6,4,9.7,7.9c1.9,3.5,3.8,7.1,8.1,7.1s6.2-3.6,8.1-7.1c2.1-3.9,4.3-7.9,9.7-7.9s7.6,4,9.7,7.9
	C467.4,424.4,469.3,428,473.6,428z"/>
<path fill="#19A488" d="M478.4,18.7c1.9,3.5,3.8,7.1,8.1,7.1s6.2-3.6,8.1-7.1c2.1-3.9,4.3-7.9,9.7-7.9s7.6,4,9.7,7.9
	c1.9,3.5,3.8,7.1,8.1,7.1s6.2-3.6,8.1-7.1c2.1-3.9,4.3-7.9,9.7-7.9v-1c-6,0-8.4,4.5-10.6,8.4c-1.9,3.5-3.5,6.5-7.2,6.5
	s-5.3-3-7.2-6.5c-2.1-4-4.5-8.4-10.6-8.4s-8.4,4.5-10.6,8.4c-1.9,3.5-3.5,6.5-7.2,6.5s-5.3-3-7.2-6.5c-2.1-4-4.5-8.4-10.6-8.4v1
	C474.2,10.8,476.3,14.8,478.4,18.7z"/>
<path fill="#19A488" d="M0.7,0H0v1.4c0.1-0.2,0.3-0.5,0.4-0.7C0.5,0.4,0.6,0.2,0.7,0z"/>
<path fill="#19A488" d="M27.8,7.7c4.3,0,6.2-3.6,8.1-7.1C36,0.4,36.1,0.2,36.3,0h-1.1c0,0-0.1,0.1-0.1,0.1c-1.9,3.5-3.5,6.5-7.2,6.5
	c-3.7,0-5.3-3-7.2-6.5c0,0-0.1-0.1-0.1-0.1h-1.1c0.1,0.2,0.2,0.4,0.3,0.6C21.6,4.1,23.6,7.7,27.8,7.7z"/>
<path fill="#19A488" d="M215.3,10.3h1c0-5.4,4-7.6,7.9-9.7c0.4-0.2,0.8-0.4,1.1-0.6h-2.1C219.4,2.1,215.3,4.5,215.3,10.3z"/>
<path fill="#19A488" d="M519.1,296.7c-4,2.1-8.4,4.5-8.4,10.6h1c0-5.4,4-7.6,7.9-9.7c3.5-1.9,7.1-3.8,7.1-8.1s-3.6-6.2-7.1-8.1
	c-3.9-2.1-7.9-4.3-7.9-9.7s4-7.6,7.9-9.7c3.5-1.9,7.1-3.8,7.1-8.1s-3.6-6.2-7.1-8.1c-3.9-2.1-7.9-4.3-7.9-9.7h-1
	c0,6,4.5,8.4,8.4,10.6c3.5,1.9,6.5,3.5,6.5,7.2s-3,5.3-6.5,7.2c-4,2.1-8.4,4.5-8.4,10.6s4.5,8.4,8.4,10.6c3.5,1.9,6.5,3.5,6.5,7.2
	S522.6,294.8,519.1,296.7z"/>
<path fill="#19A488" d="M152.6,324.7c-4,2.1-8.4,4.5-8.4,10.6h1c0-5.4,4-7.6,7.9-9.7c3.5-1.9,7.1-3.8,7.1-8.1s-3.6-6.2-7.1-8.1
	c-3.9-2.1-7.9-4.3-7.9-9.7s4-7.6,7.9-9.7c3.5-1.9,7.1-3.8,7.1-8.1s-3.6-6.2-7.1-8.1c-3.9-2.1-7.9-4.3-7.9-9.7h-1
	c0,6,4.5,8.4,8.4,10.6c3.5,1.9,6.5,3.5,6.5,7.2s-3,5.3-6.5,7.2c-4,2.1-8.4,4.5-8.4,10.6s4.5,8.4,8.4,10.6c3.5,1.9,6.5,3.5,6.5,7.2
	S156.2,322.8,152.6,324.7z"/>
<rect x="379.4" y="187.9" fill="#19A488" width="43.8" height="1"/>
<rect x="123.1" y="412" fill="#19A488" width="43.8" height="1"/>
<rect x="229.3" y="311.7" transform="matrix(0.7071 -0.7071 0.7071 0.7071 -147.2099 269.1012)" fill="#19A488" width="43.9" height="1"/>
<rect x="571" y="91.8" transform="matrix(0.7071 -0.7071 0.7071 0.7071 108.4236 446.2994)" fill="#19A488" width="43.9" height="1"/>
<path fill="#19A488" d="M313.3,279.3c0.7,0.2,1.5,0.3,2.3,0.3c1.9,0,3.8-0.5,5.4-1.6c4.7-3,6.2-9.3,3.2-14c-3-4.8-9.2-6.2-14-3.2
	s-6.2,9.2-3.2,14C308.4,277.1,310.7,278.7,313.3,279.3z M310.5,268.3L310.5,268.3c0.6-2.3,2.6-4,5-4c0.4,0,0.8,0,1.2,0.1
	c1.3,0.3,2.5,1.1,3.2,2.3c1.5,2.4,0.8,5.6-1.6,7.1c-1.2,0.7-2.6,1-3.9,0.7C311.6,273.8,309.9,271.1,310.5,268.3z"/>
<path fill="#19A488" d="M252.9,68.5c0.7,0.2,1.5,0.3,2.3,0.3c1.9,0,3.8-0.5,5.4-1.6c4.7-3,6.2-9.3,3.2-14c-3-4.7-9.3-6.2-14-3.2
	c-4.7,3-6.2,9.3-3.2,14C248,66.3,250.3,67.9,252.9,68.5z M250.2,57.5c0.6-2.8,3.4-4.5,6.2-3.9s4.5,3.4,3.9,6.2
	c-0.6,2.8-3.4,4.5-6.2,3.9c-1.3-0.3-2.5-1.1-3.3-2.3C250.1,60.2,249.9,58.8,250.2,57.5L250.2,57.5z"/>
<path fill="#19A488" d="M581.9,142.8c-4.8,3-6.2,9.3-3.2,14c1.9,3,5.1,4.8,8.6,4.8c1.9,0,3.8-0.5,5.4-1.5c4.8-3,6.2-9.3,3.2-14
	C593,141.2,586.7,139.8,581.9,142.8z M590.1,155.8c-2.4,1.5-5.6,0.8-7.1-1.6c0,0,0,0,0,0c-1.5-2.4-0.8-5.6,1.6-7.1c0,0,0,0,0,0v0
	c2.4-1.5,5.6-0.8,7.1,1.6S592.5,154.3,590.1,155.8z"/>
<path fill="#19A488" d="M1089.1,293.9c-1-1-2.5-1-3.5-0.1c-0.1,0.1-0.1,0.1-0.2,0.2l-7,7.5l-7.5-7c-1-0.9-2.6-0.9-3.5,0.1
	c0,0,0,0,0,0c-0.9,1-0.9,2.6,0.1,3.5c0,0,0,0,0,0l7.5,7l-7,7.5c-0.9,1-0.9,2.6,0.1,3.5c0.5,0.4,1.1,0.7,1.7,0.7
	c0.7,0,1.4-0.3,1.8-0.8l7-7.5l7.5,7c1,0.9,2.6,0.9,3.5-0.1s0.9-2.6-0.1-3.5l-7.5-7l7-7.5C1090,296.4,1090,294.9,1089.1,293.9z"/>
<path fill="#19A488" d="M1053.5,36.9l-7,7.5c-0.9,1-0.9,2.6,0.1,3.5c0.5,0.4,1.1,0.7,1.7,0.7c0.7,0,1.4-0.3,1.8-0.8l7-7.5l7.5,7
	c1,0.9,2.6,0.9,3.5-0.1s0.9-2.6-0.1-3.5l-7.5-7l7-7.5c1-1,1-2.5,0.1-3.5c-1-1-2.5-1-3.5-0.1c-0.1,0.1-0.1,0.1-0.2,0.2l-7,7.5l-7.5-7
	c-1-0.9-2.6-0.8-3.5,0.3c-0.8,1-0.8,2.4,0.1,3.4L1053.5,36.9z"/>
<path fill="#19A488" d="M1295.6,330.5l7-7.5c0.9-1,0.9-2.6-0.1-3.5c-1-0.9-2.6-0.9-3.5,0.1l-7,7.5l-7.5-7c-1-0.9-2.6-0.8-3.5,0.3
	c-0.8,1-0.8,2.4,0.1,3.4l7.5,7l-7,7.5c-0.9,1-0.9,2.6,0.1,3.5c1,0.9,2.6,0.9,3.5-0.1l7-7.5l7.5,7c0.5,0.4,1.1,0.7,1.7,0.7
	c1.4,0,2.5-1.1,2.5-2.5c0-0.7-0.3-1.4-0.8-1.8L1295.6,330.5z"/>
<path fill="#19A488" d="M622.1,316.6l7-7.5l7.5,7c1,0.9,2.6,0.9,3.5-0.1c0.9-1,0.9-2.6-0.1-3.5l-7.5-7l7-7.5
	c1.1-0.9,1.3-2.4,0.4-3.5c-0.9-1.1-2.4-1.3-3.5-0.4c-0.2,0.2-0.4,0.3-0.5,0.5l-7,7.5l-7.5-7c-1-1-2.6-0.9-3.5,0s-0.9,2.6,0,3.5
	l7.5,7l-7,7.5c-0.9,1-0.9,2.6,0.1,3.5c0,0,0,0,0,0c0.5,0.4,1.1,0.7,1.7,0.7C621,317.3,621.6,317.1,622.1,316.6z"/>
<path fill="#19A488" d="M845.4,210.5l-7,7.5c-0.9,1-0.9,2.6,0.1,3.5c1,0.9,2.6,0.9,3.5-0.1l7-7.5l7.5,7c1,1,2.5,1,3.5,0.1
	c1-1,1-2.5,0.1-3.5c-0.1-0.1-0.1-0.1-0.2-0.2l-7.5-7l7-7.5c0.9-1,0.9-2.6-0.1-3.5c-1-0.9-2.6-0.9-3.5,0.1c0,0,0,0,0,0l-7,7.5l-7.5-7
	c-1-1-2.6-0.9-3.5,0.1c-1,1-0.9,2.6,0.1,3.5L845.4,210.5z"/>
<path fill="#19A488" d="M747.5,10.4c-0.9,1-0.9,2.6,0.1,3.5c0,0,0,0,0,0c1,0.9,2.6,0.9,3.5-0.1c0,0,0,0,0,0l7-7.5l7.5,7
	c0.5,0.4,1.1,0.7,1.7,0.7c0.7,0,1.4-0.3,1.8-0.8c0.9-1,0.9-2.6-0.1-3.5l-7.5-7l2.5-2.7h-12.7l3.1,2.9L747.5,10.4z"/>
<path fill="#19A488" d="M1155.7,398.9c0.2,0.1,0.4,0.1,0.6,0.1c0.2,0,0.4,0,0.7-0.1l49.5-13.3c1.3-0.4,2.1-1.8,1.8-3.1
	c-0.1-0.4-0.3-0.8-0.6-1.1l-36.3-36.2c-1-1-2.6-1-3.5,0c-0.3,0.3-0.5,0.7-0.6,1.1l-1.9,7.1l-23.8-23.8l-13.7,51.2l32.5-8.7
	l-6.3,23.7C1153.6,397.2,1154.4,398.5,1155.7,398.9z M1169.1,358.6l8,8l-10.9,2.9L1169.1,358.6z M1129.2,379.4l12.8-47.9l23,23
	l-4.4,16.5L1129.2,379.4z M1165.4,372.3l0.5-1.7l13.1-3.5l-9.6-9.6l1.5-5.7l30.2,30.1l-41.2,11.1L1165.4,372.3z"/>
<path fill="#19A488" d="M737.6,385c1.4,0,2.5-1.1,2.5-2.5c0,0,0,0,0,0v-51.3c0-1.4-1.1-2.5-2.5-2.5c-0.4,0-0.9,0.1-1.3,0.3
	l-26.1,15.1V314l-45.9,26.5l26.6,15.3c-0.1,0.3-0.2,0.7-0.2,1c0,0.9,0.5,1.7,1.3,2.2l44.4,25.6C736.7,384.8,737.1,384.9,737.6,385z
	 M709.2,363.2l-11-6.4l11-6.4V363.2z M709.2,344.7l-17.3,10c-0.2,0.1-0.3,0.2-0.5,0.3l-25.2-14.5l42.9-24.8V344.7z M735,378.1
	l-24.9-14.3v-13.9l6.4-3.7l18.5-10.7V378.1z"/>
<path fill="#19A488" d="M1156.4,100.7c0,0.9,0.5,1.7,1.3,2.2l44.4,25.7c0.4,0.2,0.8,0.3,1.3,0.3c1.4,0,2.5-1.1,2.5-2.5V75.1
	c0-0.9-0.5-1.8-1.3-2.2c-0.8-0.5-1.7-0.5-2.5,0l-26.1,15.1V57.8L1130,84.3l26.6,15.3C1156.5,100,1156.4,100.3,1156.4,100.7z
	 M1174.9,107l-11-6.4l11-6.4V107z M1175.9,93.7l6.4-3.7l18.4-10.7V122l-24.9-14.4V93.7z M1132,84.3l42.9-24.8v29l-17.3,10
	c-0.2,0.1-0.3,0.2-0.4,0.3L1132,84.3z"/>
<path fill="#19A488" d="M898.4,109.5c-2.2-10.8-12.7-17.8-23.6-15.7C864,96,857,106.6,859.2,117.4c2.2,10.8,12.7,17.8,23.6,15.7
	c0.7-0.1,1.5-0.3,2.2-0.6c1.4,12.1,12.4,20.7,24.5,19.2s20.7-12.4,19.2-24.5c-1.3-11.1-10.7-19.4-21.9-19.4l0,0
	C903.9,107.9,901,108.4,898.4,109.5z M884.8,131.5c-1.9,0.7-4,1-6,1c-10.5,0-19-8.4-19.1-18.9s8.4-19,18.9-19.1
	c9.2,0,17.1,6.5,18.7,15.5c-7.7,3.6-12.6,11.4-12.7,19.9C884.8,130.4,884.8,131,884.8,131.5z M897.7,115.5
	c-0.6,5.4-3.5,10.3-7.9,13.4C890.1,123.4,893.1,118.4,897.7,115.5z M922.4,131.1c-0.6,8.4-7.3,15.1-15.7,15.7l0,0
	c-9.2,0-16.7-7.4-16.9-16.6c5.2-3.4,8.5-9.1,8.9-15.3c2.5-1.3,5.2-2,8-2C916,113.6,923.1,121.7,922.4,131.1z"/>
<path fill="#19A488" d="M1281.1,256.1c-1.4,0-2.5,1.1-2.5,2.5c0.1,9.3-7.4,16.9-16.7,17s-16.9-7.4-17-16.7c5.5-3.7,8.8-9.9,8.8-16.6
	h-1c0,6.1-3,11.9-8,15.5c-0.5-1.3-1.9-1.9-3.2-1.5c-1,0.4-1.6,1.3-1.6,2.3c0,0.5,0,1.1,0.1,1.6c-2,0.7-4,1-6.1,1
	c-10.5,0-18.9-8.5-18.9-19c0,0,0,0,0,0h-1c-0.1,11,8.7,19.9,19.7,20c2.1,0,4.3-0.3,6.3-1c1.4,12,12.3,20.6,24.3,19.2
	c11-1.3,19.3-10.7,19.3-21.8C1283.5,257.2,1282.4,256.1,1281.1,256.1z"/>
<path fill="#19A488" d="M788.2,226.7c0,1.4,1.1,2.5,2.5,2.5c9.3-0.2,17,7.1,17.3,16.5c0.2,9.3-7.1,17-16.5,17.3c-0.3,0-0.5,0-0.8,0
	c-1.4,0-2.5,1.1-2.5,2.5s1.1,2.5,2.5,2.5c12.1,0.3,22.1-9.3,22.3-21.4c0.3-12.1-9.3-22.1-21.4-22.3c-0.3,0-0.6,0-0.9,0
	C789.3,224.2,788.2,225.3,788.2,226.7z"/>
<path fill="#19A488" d="M1051.2,427.8c-0.3,0-0.5,0-0.8,0c-1.4,0-2.5,1.1-2.5,2.5s1.1,2.5,2.5,2.5c12.1,0.3,22.1-9.3,22.3-21.4
	c0.3-12.1-9.3-22.1-21.4-22.3c-0.3,0-0.6,0-0.9,0c-1.4,0-2.5,1.1-2.5,2.5s1.1,2.5,2.5,2.5c9.3-0.2,17,7.1,17.3,16.5
	S1060.5,427.6,1051.2,427.8z"/>
<path fill="#19A488" d="M703.3,268c1.4,0,2.5-1.1,2.5-2.5v-38.7c0-1.4-1.1-2.5-2.5-2.5h-27.4v-14.3h-39.7v39.7h25.9v15.9
	c0,1.4,1.1,2.5,2.5,2.5H703.3z M675.9,229.3h24.9V263h-33.7v-13.3h8.8V229.3z M667.1,248.6v-19.4h7.8v19.4H667.1z M662.1,226.7v21.9
	h-24.9v-37.7h37.7v13.3h-10.3C663.3,224.2,662.1,225.4,662.1,226.7z"/>
<path fill="#19A488" d="M866.3,430.3C866.3,430.3,866.3,430.3,866.3,430.3v-38.7c0-1.4-1.1-2.5-2.5-2.5c0,0,0,0,0,0h-27.4v-14.3
	h-39.7v39.7h25.9v15.8c0,1.4,1.1,2.5,2.5,2.5h38.7C865.2,432.8,866.3,431.7,866.3,430.3z M822.6,391.6v21.9h-24.9v-37.7h37.7v13.3
	h-10.3C823.8,389.1,822.6,390.2,822.6,391.6z M835.4,394.1v19.4h-7.8v-19.4H835.4z M861.3,427.8h-33.7v-13.3h8.8v-20.4h24.9V427.8z"
	/>
<path fill="#19A488" d="M901.7,49.3c-4,0-5.6-2.6-7.9-6.9c-2-3.6-4.4-8.1-9.8-8.1s-7.9,4.5-9.8,8.1c-2.3,4.3-3.9,6.9-7.9,6.9
	c-1.4,0-2.5,1.1-2.5,2.5c0,1.4,1.1,2.5,2.5,2.5c7.2,0,10.2-5.5,12.3-9.5c2.1-3.8,3.2-5.5,5.4-5.5s3.4,1.7,5.4,5.5
	c2.2,4,5.1,9.5,12.3,9.5s10.2-5.5,12.3-9.5c2.1-3.8,3.2-5.5,5.4-5.5s3.4,1.7,5.4,5.5c2.2,4,5.1,9.5,12.3,9.5c1.4,0,2.5-1.1,2.5-2.5
	c0-1.4-1.1-2.5-2.5-2.5c-4,0-5.6-2.6-7.9-6.9c-2-3.6-4.4-8.1-9.8-8.1s-7.9,4.5-9.8,8.1C907.3,46.7,905.7,49.3,901.7,49.3z"/>
<path fill="#19A488" d="M779.6,165.7c-2-3.6-4.4-8.1-9.8-8.1s-7.9,4.5-9.8,8.1c-2.3,4.3-3.9,6.9-7.9,6.9s-5.6-2.6-7.9-6.9
	c-2-3.6-4.4-8.1-9.8-8.1s-7.9,4.5-9.8,8.1c-2.3,4.3-3.9,6.9-7.9,6.9c-1.4,0-2.5,1.1-2.5,2.5c0,1.4,1.1,2.5,2.5,2.5
	c7.2,0,10.2-5.5,12.3-9.5c2.1-3.8,3.2-5.5,5.5-5.5s3.4,1.7,5.4,5.5c2.2,4,5.1,9.5,12.3,9.5s10.2-5.5,12.3-9.5
	c2.1-3.8,3.2-5.5,5.4-5.5s3.4,1.7,5.5,5.5c2.2,4,5.1,9.5,12.3,9.5c1.4,0,2.5-1.1,2.5-2.5c0-1.4-1.1-2.5-2.5-2.5
	C783.5,172.5,781.9,169.9,779.6,165.7z"/>
<path fill="#19A488" d="M1281.7,190.6L1281.7,190.6c-4,0-5.6-2.6-7.9-6.9c-1.9-3.6-4.4-8.1-9.8-8.1s-7.9,4.5-9.8,8.1
	c-2.3,4.3-3.9,6.9-7.9,6.9s-5.6-2.6-7.9-6.9c-2-3.6-4.4-8.1-9.8-8.1s-7.9,4.5-9.8,8.1c-2.3,4.3-3.9,6.9-7.9,6.9
	c-1.4,0-2.5,1.1-2.5,2.5c0,1.4,1.1,2.5,2.5,2.5c7.2,0,10.2-5.5,12.3-9.5c2.1-3.8,3.2-5.5,5.4-5.5s3.4,1.7,5.4,5.5
	c2.2,4,5.1,9.5,12.3,9.5s10.2-5.5,12.3-9.5c2.1-3.8,3.2-5.5,5.4-5.5s3.4,1.7,5.4,5.5c2.2,4,5.1,9.5,12.3,9.5c1.4,0,2.5-1.1,2.5-2.5
	C1284.2,191.7,1283.1,190.6,1281.7,190.6z"/>
<path fill="#19A488" d="M924.5,373.3c4-2.2,9.5-5.1,9.5-12.3c0-1.4-1.1-2.5-2.5-2.5s-2.5,1.1-2.5,2.5c0,4-2.6,5.6-6.9,7.9
	c-3.6,2-8.1,4.4-8.1,9.8s4.5,7.9,8.1,9.8c4.3,2.3,6.9,3.9,6.9,7.9s-2.6,5.6-6.9,7.9c-3.6,2-8.1,4.4-8.1,9.8s4.5,7.9,8.1,9.8
	c4.3,2.3,6.9,3.9,6.9,7.9c0,1.4,1.1,2.5,2.5,2.5s2.5-1.1,2.5-2.5c0-7.2-5.5-10.2-9.5-12.3c-3.8-2.1-5.5-3.2-5.5-5.4s1.7-3.4,5.5-5.4
	c4-2.2,9.5-5.1,9.5-12.3s-5.5-10.2-9.5-12.3c-3.8-2.1-5.5-3.2-5.5-5.4S920.7,375.3,924.5,373.3z"/>
<path fill="#19A488" d="M1033.5,187.4c4-2.2,9.5-5.1,9.5-12.3c0-1.4-1.1-2.5-2.5-2.5s-2.5,1.1-2.5,2.5c0,4-2.6,5.6-6.9,7.9
	c-3.6,2-8.1,4.4-8.1,9.8c0,5.5,4.5,7.9,8.1,9.8c4.3,2.3,6.9,3.9,6.9,7.9c0,4-2.6,5.6-6.9,7.9c-3.6,2-8.1,4.4-8.1,9.8
	c0,5.5,4.5,7.9,8.1,9.8c4.3,2.3,6.9,3.9,6.9,7.9c0,1.4,1.1,2.5,2.5,2.5s2.5-1.1,2.5-2.5c0-7.2-5.5-10.2-9.5-12.3
	c-3.8-2.1-5.5-3.2-5.5-5.4s1.7-3.4,5.5-5.4c4-2.2,9.5-5.1,9.5-12.3c0-7.2-5.5-10.2-9.5-12.3c-3.8-2.1-5.5-3.2-5.5-5.4
	S1029.7,189.4,1033.5,187.4z"/>
<path fill="#19A488" d="M1310.4,123.6c0-1.4-1.1-2.5-2.5-2.5h-43.8c-1.4,0-2.5,1.1-2.5,2.5s1.1,2.5,2.5,2.5h43.9
	C1309.3,126.1,1310.4,125,1310.4,123.6z"/>
<path fill="#19A488" d="M827.2,327.5c0,1.4,1.1,2.5,2.5,2.5h43.8c1.4,0,2.5-1.1,2.5-2.5s-1.1-2.5-2.5-2.5h-43.8
	C828.4,325,827.2,326.1,827.2,327.5z"/>
<path fill="#19A488" d="M700.7,423.9h-43.8c-1.4,0-2.5,1.1-2.5,2.5s1.1,2.5,2.5,2.5h43.8c1.4,0,2.5-1.1,2.5-2.5
	S702.1,423.9,700.7,423.9z"/>
<path fill="#19A488" d="M1275.5,393.6C1275.5,393.6,1275.5,393.6,1275.5,393.6L1275.5,393.6l-31.1,31.1c-1,1-1,2.5-0.1,3.5
	c1,1,2.5,1,3.5,0.1c0,0,0,0,0.1-0.1l31-31c1-1,1-2.5,0.1-3.5C1278.1,392.6,1276.5,392.6,1275.5,393.6z"/>
<path fill="#19A488" d="M646,110.3c0.5,0.5,1.1,0.7,1.8,0.7c0.7,0,1.3-0.3,1.8-0.7l31-31c1-1,1-2.6,0-3.5s-2.6-1-3.5,0l-31,31
	C645.1,107.8,645.1,109.3,646,110.3z"/>
<path fill="#19A488" d="M889,229.3l26.5,45.9l8-14l17.7,30.6c0.4,0.8,1.3,1.3,2.2,1.3c0.9,0,1.7-0.5,2.2-1.3l25.6-44.4
	c0.7-1.2,0.3-2.7-0.9-3.4c-0.4-0.2-0.8-0.3-1.3-0.3h-35.3l8.3-14.4L889,229.3z M922.1,248.6h7.6l-3.8,6.6L922.1,248.6z M964.7,248.6
	l-21.3,36.9L932.8,267l-6.3-10.9l4.4-7.6H964.7z M932.6,243.7l-14.8,0c-1.4,0-2.5,1.1-2.5,2.5c0,0.4,0.1,0.9,0.3,1.2l7.4,12.8
	l-7.5,13l-24.8-42.9h49.5L932.6,243.7z"/>
<path fill="#19A488" d="M985.9,21.6c0.9,0,1.7-0.5,2.2-1.3L999.8,0h-5.7l-8.1,14.1L977.8,0h-5.8l11.8,20.4
	C984.2,21.2,985,21.6,985.9,21.6z"/>
<polygon fill="#19A488" points="960.2,0 959.1,0 958,1.9 956.9,0 955.9,0 958,3.8 "/>
<path fill="#19A488" d="M732.3,108.2c-0.4,1.3,0.4,2.7,1.8,3.1c0.2,0.1,0.4,0.1,0.7,0.1c0.2,0,0.4,0,0.7-0.1L784.9,98
	c1.3-0.4,2.1-1.7,1.8-3.1c-0.1-0.4-0.3-0.8-0.6-1.1l-36.3-36.3c-1-1-2.6-1-3.5,0c-0.3,0.3-0.5,0.7-0.7,1.1l-1.9,7.2L719.8,42
	l-13.7,51.2l32.5-8.7L732.3,108.2z M747.4,71l8,8l-10.9,2.9L747.4,71z M743.7,84.7l0.5-1.7l13.1-3.5l-9.6-9.6l1.5-5.7l30.2,30.1
	l-41.2,11L743.7,84.7z M707.5,91.8l12.8-47.8l23,23l-4.4,16.4L707.5,91.8z"/>
<path fill="#19A488" d="M956.8,330.3c-0.2,11,8.6,20.1,19.7,20.3c2.3,0,4.6-0.3,6.7-1.1c1.5,12.1,12.4,20.6,24.5,19.2
	c12.1-1.5,20.6-12.4,19.2-24.5c-1.5-12.1-12.4-20.6-24.5-19.2c-2,0.2-3.9,0.7-5.7,1.5c-1.9-9.3-10.1-15.9-19.5-15.9
	C966.1,310.5,957,319.3,956.8,330.3z M997,332c2.5-1.3,5.2-2,8-2c9.3,0,16.9,7.6,17,16.9c-0.1,9.4-7.8,16.9-17.2,16.7
	c-9.1-0.1-16.4-7.3-16.7-16.4C993.2,343.8,996.5,338.2,997,332z M988.1,346c0.3-5.5,3.2-10.5,7.9-13.4
	C995.3,338,992.5,342.9,988.1,346z M995.7,327c-7.7,3.6-12.6,11.4-12.7,19.9c0,0.5,0,1.1,0.1,1.6c-1.9,0.6-4,1-6,1v0
	c-10.5,0-19-8.4-19.1-18.9c0-10.5,8.4-19,18.9-19.1C986.2,311.5,994,318,995.7,327z"/>
<path fill="#19A488" d="M1010.1,84.3C1010.1,84.3,1010.1,84.3,1010.1,84.3L1010.1,84.3L1010.1,84.3z"/>
<path fill="#19A488" d="M1029,104.3c2.1,0,4.2-0.3,6.2-1c1.8,12,13,20.3,25.1,18.4c10.5-1.6,18.4-10.5,18.7-21.1
	c0-1.4-1.1-2.5-2.5-2.5s-2.5,1.1-2.5,2.5c-0.1,9.4-7.8,16.9-17.2,16.7c-9.1-0.1-16.4-7.3-16.7-16.4c5.6-3.7,9-9.9,9-16.6h-1
	c0,6.2-3.1,12-8.2,15.5c-0.4-1.3-1.8-2-3.1-1.6c-1,0.3-1.7,1.3-1.7,2.4c0,0.5,0,1.1,0.1,1.6c-9.9,3.4-20.6-1.9-24-11.8
	c-0.7-2-1-4.1-1-6.1h-1C1009.1,95.3,1018,104.3,1029,104.3z"/>
<path fill="#19A488" d="M763.7,248.6c-0.3,0-0.6,0-0.9,0v1c11,0.2,20.1-8.4,20.3-19.4c0.2-11-8.4-20.1-19.4-20.3c-0.3,0-0.6,0-0.9,0
	v1c10.4-0.2,19.1,8,19.3,18.4C782.4,239.7,774.1,248.4,763.7,248.6z"/>
<path fill="#19A488" d="M1022.4,374.7C1022.4,374.7,1022.4,374.7,1022.4,374.7l0,1c10.4-0.2,19.1,8,19.3,18.4
	c0.2,10.4-8,19.1-18.4,19.3c-0.3,0-0.6,0-0.9,0v1c11,0,20-8.9,20-19.9c0,0,0,0,0,0C1042.4,383.6,1033.4,374.7,1022.4,374.7z"/>
<path fill="#19A488" d="M1073.7,230.3h25.9v15.8c0,1.4,1.1,2.5,2.5,2.5c0,0,0,0,0,0h38.7c1.4,0,2.5-1.1,2.5-2.5v-38.7
	c0-1.4-1.1-2.5-2.5-2.5h-27.4v-14.3h-39.7V230.3z M1113.4,209.9l24.9,0v33.7h-33.7v-13.3h8.8V209.9z M1104.6,229.3v-19.4l7.8,0v19.4
	H1104.6z M1074.7,191.6h37.7v13.3h-10.3c-1.4,0-2.5,1.1-2.5,2.5c0,0,0,0,0,0v21.9l-24.9,0V191.6z"/>
<path fill="#19A488" d="M1104.1,1.5h38.7c1,0,1.9-0.6,2.3-1.5h-43.3C1102.2,0.9,1103,1.5,1104.1,1.5z"/>
<path fill="#19A488" d="M848.8,27.5c1.9-3.5,3.5-6.5,7.2-6.5s5.3,3,7.2,6.5c2.1,4,4.5,8.4,10.6,8.4s8.4-4.5,10.6-8.4
	c1.9-3.5,3.5-6.5,7.2-6.5s5.3,3,7.2,6.5c2.1,4,4.5,8.4,10.6,8.4v-1c-5.4,0-7.6-4-9.7-7.9c-1.9-3.5-3.8-7.1-8.1-7.1
	c-4.3,0-6.2,3.6-8.1,7.1c-2.1,3.9-4.3,7.9-9.7,7.9s-7.6-4-9.7-7.9c-1.9-3.5-3.8-7.1-8.1-7.1s-6.2,3.6-8.1,7.1
	c-2.1,3.9-4.3,7.9-9.7,7.9v1C844.2,36,846.7,31.5,848.8,27.5z"/>
<path fill="#19A488" d="M699.1,150.8c1.9-3.5,3.5-6.5,7.2-6.5s5.3,3,7.2,6.5c2.1,4,4.6,8.4,10.6,8.4s8.4-4.5,10.6-8.4
	c1.9-3.5,3.5-6.5,7.2-6.5s5.3,3,7.2,6.5c2.1,4,4.6,8.4,10.6,8.4v-1c-5.4,0-7.6-4-9.7-7.9c-1.9-3.5-3.8-7.1-8.1-7.1s-6.2,3.6-8.1,7.1
	c-2.1,3.9-4.3,7.9-9.7,7.9s-7.6-4-9.7-7.9c-1.9-3.5-3.8-7.1-8.1-7.1s-6.2,3.6-8.1,7.1c-2.1,3.9-4.3,7.9-9.7,7.9v1
	C694.5,159.2,697,154.7,699.1,150.8z"/>
<path fill="#19A488" d="M1200.5,161.3c-4.3,0-6.2,3.6-8.1,7.1c-2.1,3.9-4.3,7.9-9.7,7.9v1c6,0,8.4-4.5,10.6-8.4
	c1.9-3.5,3.5-6.5,7.2-6.5s5.3,3,7.2,6.5c2.1,4,4.6,8.4,10.6,8.4s8.4-4.5,10.6-8.4c1.9-3.5,3.5-6.5,7.2-6.5s5.3,3,7.2,6.5
	c2.1,4,4.6,8.4,10.6,8.4v-1c-5.4,0-7.6-4-9.7-7.9c-1.9-3.5-3.8-7.1-8.1-7.1s-6.2,3.6-8.1,7.1c-2.1,3.9-4.3,7.9-9.7,7.9
	s-7.6-4-9.7-7.9C1206.7,164.9,1204.8,161.3,1200.5,161.3z"/>
<path fill="#19A488" d="M895.7,355.2c4-2.1,8.4-4.5,8.4-10.6h-1c0,5.4-4,7.6-7.9,9.7c-3.5,1.9-7.1,3.8-7.1,8.1s3.6,6.2,7.1,8.1
	c3.9,2.1,7.9,4.3,7.9,9.7s-4,7.6-7.9,9.7c-3.5,1.9-7.1,3.8-7.1,8.1s3.6,6.2,7.1,8.1c3.9,2.1,7.9,4.3,7.9,9.7h1c0-6-4.5-8.4-8.4-10.6
	c-3.5-1.9-6.5-3.5-6.5-7.2s3-5.3,6.5-7.2c4-2.1,8.4-4.5,8.4-10.6s-4.5-8.4-8.4-10.6c-3.5-1.9-6.5-3.5-6.5-7.2S892.1,357,895.7,355.2
	z"/>
<path fill="#19A488" d="M1004.1,203.9c-3.5,1.9-7.1,3.8-7.1,8.1c0,4.3,3.6,6.2,7.1,8.1c3.9,2.1,7.9,4.3,7.9,9.7h1
	c0-6-4.5-8.4-8.4-10.6c-3.5-1.9-6.6-3.5-6.6-7.2c0-3.7,3-5.3,6.6-7.2c4-2.1,8.4-4.5,8.4-10.6s-4.5-8.4-8.4-10.6
	c-3.5-1.9-6.6-3.5-6.6-7.2c0-3.7,3-5.3,6.6-7.2c4-2.1,8.4-4.5,8.4-10.6h-1c0,5.4-4,7.6-7.9,9.7c-3.5,1.9-7.1,3.8-7.1,8.1
	c0,4.3,3.6,6.2,7.1,8.1c3.9,2.1,7.9,4.3,7.9,9.7C1012.1,199.6,1008,201.8,1004.1,203.9z"/>
<rect x="1236.2" y="106.8" fill="#19A488" width="43.8" height="1"/>
<rect x="801.8" y="310.6" fill="#19A488" width="43.8" height="1"/>
<rect x="629" y="409.6" fill="#19A488" width="43.8" height="1"/>
<rect x="1211.9" y="394.1" transform="matrix(0.7071 -0.7071 0.7071 0.7071 82.3815 987.9863)" fill="#19A488" width="43.8" height="1"/>
<rect x="613.5" y="76.2" transform="matrix(0.7071 -0.7071 0.7071 0.7071 131.834 471.7643)" fill="#19A488" width="43.9" height="1"/>
<path fill="#19A488" d="M978.6,119c4.8-3,6.2-9.3,3.2-14c0,0,0,0,0,0c-3-4.7-9.3-6.2-14-3.2c-4.8,3-6.2,9.3-3.2,14
	C967.5,120.5,973.8,122,978.6,119z M970.4,106c2.4-1.5,5.6-0.8,7.1,1.6c0.7,1.2,1,2.5,0.7,3.9v0c-0.6,2.8-3.4,4.5-6.2,3.9
	c-1.3-0.3-2.5-1.1-3.2-2.3C967.3,110.7,968,107.5,970.4,106z"/>
<path fill="#19A488" d="M1247,55.5L1247,55.5c0.7,0.2,1.5,0.3,2.3,0.3c5.6,0,10.1-4.6,10.1-10.2c0-5.6-4.6-10.1-10.2-10.1
	c-1.9,0-3.8,0.5-5.4,1.5c-4.7,3-6.2,9.3-3.2,14C1242.1,53.3,1244.4,54.9,1247,55.5z M1246.4,41.3c0.1,0,0.1-0.1,0.2-0.1
	c2.4-1.6,5.6-0.9,7.1,1.5c1.6,2.4,0.9,5.6-1.5,7.1c-0.1,0-0.1,0.1-0.2,0.1c-2.4,1.6-5.6,0.9-7.1-1.5
	C1243.3,46.1,1244,42.9,1246.4,41.3z"/>
<path fill="#19A488" d="M1170.8,296.9c5.6,0,10.1-4.6,10.1-10.2c0-5.6-4.6-10.1-10.2-10.1c-1.9,0-3.8,0.5-5.4,1.5
	c-4.7,3-6.2,9.3-3.2,14c1.4,2.3,3.7,3.9,6.3,4.5v0C1169.3,296.8,1170,296.9,1170.8,296.9z M1166.4,289.5c-0.7-1.2-1-2.6-0.7-3.9v0
	c0.6-2.8,3.4-4.5,6.2-3.9s4.5,3.4,3.9,6.2c-0.3,1.3-1.1,2.5-2.3,3.2C1171.1,292.6,1167.9,291.9,1166.4,289.5z"/>
<path fill="#19A488" d="M740.7,295.9c3,4.8,9.3,6.2,14,3.2c4.8-3,6.2-9.3,3.2-14c0,0,0,0,0,0c-2.9-4.7-9.1-6.2-13.9-3.3
	c0,0-0.1,0.1-0.1,0.1v0C739.2,284.9,737.8,291.2,740.7,295.9z M744.3,289.6c0-0.1,0-0.2,0.1-0.2c0.3-1.3,1.1-2.5,2.3-3.2
	c2.4-1.5,5.6-0.8,7.1,1.6c0,0,0,0,0,0c0.7,1.2,1,2.6,0.6,3.9h0c-0.6,2.8-3.3,4.6-6.1,4C745.5,295.1,743.7,292.4,744.3,289.6z"/>
<path fill="#19A488" d="M646.5,26.2c4.8-3,6.2-9.3,3.2-14c0,0,0,0,0,0c-3-4.7-9.2-6.2-13.9-3.2c0,0,0,0-0.1,0h0
	c-4.8,3-6.2,9.3-3.2,14C635.5,27.7,641.7,29.1,646.5,26.2z M636,16.4c0.3-1.3,1.1-2.5,2.3-3.2c2.4-1.5,5.6-0.8,7.1,1.6
	s0.8,5.6-1.6,7.1l0,0c-2.4,1.5-5.6,0.8-7.1-1.6C636,19.2,635.7,17.8,636,16.4z"/>
<path fill="#19A488" d="M1593.9,2.4c1,0.9,2.6,0.9,3.5-0.1l2.1-2.3h-6.4C1593,0.8,1593.3,1.8,1593.9,2.4z"/>
<path fill="#19A488" d="M1615.5,1.8c0.5-0.5,0.8-1.2,0.8-1.8h-6.2l1.9,1.8C1612.9,2.8,1614.5,2.8,1615.5,1.8z"/>
<path fill="#19A488" d="M1861.9,408.8c-0.9,1-0.9,2.6,0.1,3.5l7.5,7l-7,7.5c-1,1-1,2.5,0,3.5c1,1,2.5,1,3.5,0
	c0.1-0.1,0.1-0.1,0.2-0.2l7-7.5l7.5,7c1,0.9,2.6,0.9,3.5-0.1c0.9-1,0.9-2.6-0.1-3.5l-7.5-7l7-7.5c1-1,1-2.5,0.1-3.5
	c-1-1-2.5-1-3.5-0.1c-0.1,0.1-0.1,0.1-0.2,0.2l-7,7.5l-7.5-7C1864.4,407.8,1862.9,407.8,1861.9,408.8z"/>
<path fill="#19A488" d="M1788.4,188.2C1788.4,188.2,1788.4,188.2,1788.4,188.2c-1-1-2.6-0.9-3.6,0.1l-7,7.5l-7.5-7
	c-1-0.9-2.6-0.9-3.5,0.1c-0.9,1-0.9,2.6,0.1,3.5l7.5,7l-7,7.5c-1,1-1,2.5-0.1,3.5s2.5,1,3.5,0.1c0.1-0.1,0.1-0.1,0.2-0.2l7-7.5
	l7.5,7c1,1,2.5,1,3.5,0.1c1-1,1-2.5,0.1-3.5c-0.1-0.1-0.1-0.1-0.2-0.2l-7.5-7l7-7.5C1789.5,190.7,1789.4,189.2,1788.4,188.2z"/>
<path fill="#19A488" d="M1581.5,300.6C1581.5,300.6,1581.5,300.6,1581.5,300.6c0.9-1,0.9-2.6-0.1-3.6l-7.5-7l7-7.5
	c1-1,1-2.5,0.1-3.5c-1-1-2.5-1-3.5-0.1c-0.1,0.1-0.1,0.1-0.2,0.2l-7,7.5l-7.5-7c-1-0.9-2.6-0.9-3.5,0.1c0,0,0,0,0,0
	c-0.9,1-0.9,2.6,0.1,3.5c0,0,0,0,0,0l7.5,7l-7,7.5c-0.9,1-0.9,2.6,0.1,3.5c1,0.9,2.6,0.9,3.5-0.1l7-7.5l7.5,7
	C1579,301.7,1580.6,301.6,1581.5,300.6z"/>
<path fill="#19A488" d="M1390.2,268.8l7.5,7l-7,7.5c-0.9,1-0.8,2.6,0.3,3.5c1,0.8,2.4,0.8,3.4-0.1l7-7.5l7.5,7
	c0.5,0.4,1.1,0.7,1.7,0.7c1.4,0,2.5-1.1,2.5-2.5c0-0.7-0.3-1.3-0.8-1.8l-7.5-7l7-7.5c1-1,1-2.5,0.1-3.5c-1-1-2.5-1-3.5-0.1
	c-0.1,0.1-0.1,0.1-0.2,0.2l-7,7.5l-7.5-7c-1-0.9-2.6-0.9-3.5,0.1S1389.2,267.9,1390.2,268.8z"/>
<path fill="#19A488" d="M1557.3,82.2l30.6-17.7c1.2-0.7,1.6-2.2,0.9-3.4c-0.2-0.4-0.5-0.7-0.9-0.9l-44.4-25.6
	c-0.8-0.4-1.7-0.4-2.5,0c-0.8,0.4-1.2,1.3-1.3,2.2v35.3l-14.3-8.3v53l45.9-26.5L1557.3,82.2z M1544.8,41.1l36.9,21.3l-18.4,10.7
	l-10.9,6.3l-7.6-4.4V41.1z M1544.8,76.1l6.6,3.8l-6.6,3.8V76.1z M1526.5,65.6l13.3,7.7v14.8c0,0.9,0.5,1.7,1.3,2.2
	c0.8,0.4,1.7,0.4,2.5,0l12.8-7.4l13,7.5l-42.9,24.8V65.6z"/>
<path fill="#19A488" d="M1457.7,181.8c-0.8,0.5-1.2,1.3-1.3,2.2v35.3l-14.3-8.3v53l45.9-26.5l-14-8.1l30.6-17.7
	c1.2-0.7,1.6-2.2,0.9-3.4c-0.2-0.4-0.5-0.7-0.9-0.9l-44.4-25.6C1459.3,181.3,1458.4,181.3,1457.7,181.8z M1461.4,188.3l36.9,21.3
	l-18.4,10.7l-10.9,6.3l-7.6-4.4V188.3z M1461.4,223.3l6.6,3.8l-6.6,3.8V223.3z M1473.1,229.9l13,7.5l-42.9,24.8v-49.5l13.4,7.7v14.8
	c0,1.4,1.1,2.5,2.5,2.5c0,0,0,0,0,0c0.4,0,0.9-0.1,1.3-0.3L1473.1,229.9z"/>
<path fill="#19A488" d="M1626.2,302.8L1626.2,302.8l7.2,1.9l-23.8,23.8l51.2,13.7l-8.7-32.5l23.7,6.3c0.2,0.1,0.4,0.1,0.7,0.1
	c1.4,0,2.5-1.1,2.5-2.5c0-0.2,0-0.4-0.1-0.6l-13.3-49.5c-0.4-1.3-1.7-2.1-3.1-1.8c-0.4,0.1-0.8,0.3-1.1,0.7l-36.2,36.3
	c-1,1-1,2.5,0,3.5C1625.4,302.4,1625.7,302.6,1626.2,302.8z M1659.3,340.8l-47.9-12.8l23-23l16.4,4.4L1659.3,340.8z M1638.5,300.9
	l8-8l2.9,10.9L1638.5,300.9z M1661.8,268.9l11.1,41.2l-20.6-5.5l-1.7-0.5L1647,291l-9.6,9.6l-5.8-1.5L1661.8,268.9z"/>
<path fill="#19A488" d="M1896.2,310.7c0,0.4,0.1,0.9,0.3,1.2l15.1,26.1h-30.1l26.5,45.9l11.9-20.7v-1.9l-11.9,20.7l-24.8-42.9h29
	l7.7,13.4v-10l-2-3.4h2v-1h-2.6l-3.7-6.4l-10.7-18.5h16.9v-5h-21.3C1897.3,308.2,1896.2,309.4,1896.2,310.7z"/>
<path fill="#19A488" d="M1700.1,163.3c12-1.5,20.6-12.4,19.1-24.4c-1.5-12-12.4-20.6-24.4-19.1c-11,1.3-19.3,10.7-19.3,21.8h0
	c0,2.9,0.6,5.7,1.7,8.3c-10.8,2.2-17.8,12.7-15.6,23.6s12.7,17.8,23.6,15.6c10.8-2.2,17.8-12.7,15.6-23.6
	C1700.5,164.8,1700.3,164.1,1700.1,163.3z M1689.3,126.7c2.5-1.3,5.3-2,8.1-2v0c9.4-0.1,17,7.4,17.1,16.8s-7.4,17-16.8,17.1
	c-3.4-5.2-9.1-8.5-15.3-8.9C1678,141.4,1681.1,131.1,1689.3,126.7z M1696.4,158.5c-5.5-0.3-10.4-3.2-13.4-7.9c0,0,0,0,0,0v0
	c0,0,0,0,0,0C1688.5,151.3,1693.3,154.1,1696.4,158.5z M1681.1,188.6c-10.5,0-19-8.4-19.1-18.9c0-9.2,6.5-17,15.5-18.7
	c3.6,7.7,11.4,12.6,19.9,12.6c0.6,0,1.1,0,1.6-0.1c0.7,2,1,4,1,6.1C1700,180,1691.5,188.5,1681.1,188.6z"/>
<path fill="#19A488" d="M1814.1,235.3c-12.1-0.3-22.1,9.3-22.3,21.4c0,0.3,0,0.6,0,0.9c0,1.4,1.1,2.5,2.5,2.5s2.5-1.1,2.5-2.5
	c-0.2-9.3,7.1-17,16.5-17.3s17,7.1,17.3,16.5c0,0.3,0,0.5,0,0.8c0,1.4,1.1,2.5,2.5,2.5s2.5-1.1,2.5-2.5
	C1835.8,245.5,1826.2,235.5,1814.1,235.3z"/>
<path fill="#19A488" d="M1817.2,386.2h15.8c1.4,0,2.5-1.1,2.5-2.5V345c0-1.4-1.1-2.5-2.5-2.5h-38.7c-1.4,0-2.5,1.1-2.5,2.5v27.4
	h-14.3v39.7h39.7V386.2z M1796.8,347.5h33.7v33.7h-13.3v-8.8h-20.4V347.5z M1816.2,411.1h-37.7v-37.7h13.3v10.3
	c0,1.4,1.1,2.5,2.5,2.5h21.9V411.1z M1816.2,381.2h-19.4v-7.8h19.4V381.2z"/>
<path fill="#19A488" d="M1379.1,342.5h-38.7c-1.4,0-2.5,1.1-2.5,2.5v27.4h-14.3v39.7h39.7v-25.9h15.8c1.4,0,2.5-1.1,2.5-2.5V345
	C1381.6,343.6,1380.5,342.5,1379.1,342.5z M1362.3,411.1h-37.7v-37.7h13.3v10.3c0,1.4,1.1,2.5,2.5,2.5h21.9V411.1z M1362.3,381.2
	h-19.4v-7.8h19.4V381.2z M1376.6,381.2h-13.3v-8.8h-20.4v-24.9h33.7V381.2z"/>
<path fill="#19A488" d="M1609.9,138.7c4.3,2.3,6.9,3.9,6.9,7.9c0,4-2.6,5.6-6.9,7.9c-3.6,2-8.1,4.4-8.1,9.8c0,5.5,4.5,7.9,8.1,9.8
	c4.3,2.3,6.9,3.9,6.9,7.9c0,1.4,1.1,2.5,2.5,2.5s2.5-1.1,2.5-2.5c0-7.2-5.5-10.2-9.5-12.3c-3.8-2.1-5.5-3.2-5.5-5.4s1.7-3.4,5.5-5.4
	c4-2.2,9.5-5.1,9.5-12.3c0-7.2-5.5-10.2-9.5-12.3c-3.8-2.1-5.5-3.2-5.5-5.4s1.7-3.4,5.5-5.4c4-2.2,9.5-5.1,9.5-12.3
	c0-1.4-1.1-2.5-2.5-2.5s-2.5,1.1-2.5,2.5c0,4-2.6,5.6-6.9,7.9c-3.6,2-8.1,4.4-8.1,9.8C1601.8,134.3,1606.3,136.8,1609.9,138.7z"/>
<path fill="#19A488" d="M1333.3,224.7c4-2.2,9.5-5.1,9.5-12.3c0-1.4-1.1-2.5-2.5-2.5s-2.5,1.1-2.5,2.5c0,4-2.6,5.6-6.9,7.9
	c-3.6,2-8.1,4.4-8.1,9.8c0,5.5,4.5,7.9,8.1,9.8c4.3,2.3,6.9,3.9,6.9,7.9s-2.6,5.6-6.9,7.9c-3.6,2-8.1,4.4-8.1,9.8s4.5,7.9,8.1,9.8
	c4.3,2.3,6.9,3.9,6.9,7.9c0,1.4,1.1,2.5,2.5,2.5s2.5-1.1,2.5-2.5c0-7.2-5.5-10.2-9.5-12.3c-3.8-2.1-5.5-3.2-5.5-5.4s1.7-3.4,5.5-5.4
	c4-2.2,9.5-5.1,9.5-12.3s-5.5-10.2-9.5-12.3c-3.8-2.1-5.5-3.2-5.5-5.4S1329.5,226.7,1333.3,224.7z"/>
<path fill="#19A488" d="M1733.2,288.4c4.3,2.3,6.9,3.9,6.9,7.9s-2.6,5.6-6.9,7.9c-3.6,2-8.1,4.4-8.1,9.8s4.5,7.9,8.1,9.8
	c4.3,2.3,6.9,3.9,6.9,7.9c0,1.4,1.1,2.5,2.5,2.5s2.5-1.1,2.5-2.5c0-7.2-5.5-10.2-9.5-12.3c-3.8-2.1-5.5-3.2-5.5-5.4s1.7-3.4,5.5-5.4
	c4-2.2,9.5-5.1,9.5-12.3s-5.5-10.2-9.5-12.3c-3.8-2.1-5.5-3.2-5.5-5.4s1.7-3.4,5.5-5.4c4-2.2,9.5-5.1,9.5-12.3
	c0-1.4-1.1-2.5-2.5-2.5s-2.5,1.1-2.5,2.5c0,4-2.6,5.6-6.9,7.9c-3.6,2-8.1,4.4-8.1,9.8S1729.6,286.5,1733.2,288.4z"/>
<path fill="#19A488" d="M1742.6,10.3c4,0,5.6,2.6,7.9,6.9c2,3.6,4.4,8.1,9.8,8.1s7.9-4.5,9.8-8.1c2.3-4.3,3.9-6.9,7.9-6.9
	s5.6,2.6,7.9,6.9c2,3.6,4.4,8.1,9.8,8.1s7.9-4.5,9.8-8.1c2.3-4.3,3.9-6.9,7.9-6.9c1.4,0,2.5-1.1,2.5-2.5s-1.1-2.5-2.5-2.5
	c-7.2,0-10.2,5.5-12.3,9.5c-2.1,3.8-3.2,5.5-5.4,5.5s-3.4-1.7-5.4-5.5c-2.2-4-5.1-9.5-12.3-9.5s-10.2,5.5-12.3,9.5
	c-2.1,3.8-3.2,5.5-5.4,5.5s-3.4-1.7-5.4-5.5c-2.2-4-5.1-9.5-12.3-9.5c-1.4,0-2.5,1.1-2.5,2.5S1741.2,10.3,1742.6,10.3z"/>
<path fill="#19A488" d="M1498.9,315.7c-2.2,0-3.4-1.7-5.4-5.5c-2.2-4-5.1-9.5-12.3-9.5s-10.2,5.5-12.3,9.5c-2.1,3.8-3.2,5.5-5.4,5.5
	s-3.4-1.7-5.4-5.5c-2.2-4-5.1-9.5-12.3-9.5c-1.4,0-2.5,1.1-2.5,2.5s1.1,2.5,2.5,2.5c4,0,5.6,2.6,7.9,6.9c2,3.6,4.4,8.1,9.8,8.1
	s7.9-4.5,9.8-8.1c2.3-4.3,3.9-6.9,7.9-6.9s5.6,2.6,7.9,6.9c1.9,3.6,4.4,8.1,9.8,8.1s7.9-4.5,9.8-8.1c2.3-4.3,3.9-6.9,7.9-6.9
	c1.4,0,2.5-1.1,2.5-2.5s-1.1-2.5-2.5-2.5c-7.2,0-10.2,5.5-12.3,9.5C1502.3,314,1501.1,315.7,1498.9,315.7z"/>
<path fill="#19A488" d="M1561.9,171.4v43.8c0,1.4,1.1,2.5,2.5,2.5s2.5-1.1,2.5-2.5v-43.8c0-1.4-1.1-2.5-2.5-2.5
	S1561.9,170.1,1561.9,171.4z"/>
<path fill="#19A488" d="M1895,221.1c1.4,0,2.5-1.1,2.5-2.5v-43.9c0-1.4-1.1-2.5-2.5-2.5s-2.5,1.1-2.5,2.5v43.9
	C1892.5,220,1893.6,221.1,1895,221.1z"/>
<path fill="#19A488" d="M1423.4,29.5l31,31c0.5,0.5,1.1,0.7,1.8,0.7c0.7,0,1.3-0.3,1.8-0.7c1-1,1-2.6,0-3.5l-31-31
	c-1-1-2.5-1-3.5-0.1C1422.4,26.9,1422.4,28.5,1423.4,29.5C1423.3,29.5,1423.3,29.5,1423.4,29.5z"/>
<polygon fill="#19A488" points="1677.9,402.3 1677.9,402.3 1677.9,402.3 "/>
<path fill="#19A488" d="M1677.9,398.7l-31-31c-0.9-1-2.5-1.1-3.5-0.2s-1.1,2.5-0.2,3.5c0.1,0.1,0.1,0.1,0.2,0.2l31,31
	c1,1,2.6,1,3.5,0C1678.8,401.3,1678.8,399.7,1677.9,398.7z"/>
<path fill="#19A488" d="M1811.5,78c-0.2,0.4-0.3,0.8-0.3,1.3v35.3l-14.4-8.3l0,53l45.9-26.5l-14-8.1l30.6-17.7
	c0.8-0.4,1.2-1.3,1.3-2.2c0-0.9-0.5-1.7-1.3-2.2l-44.4-25.6C1813.8,76.4,1812.2,76.8,1811.5,78z M1840.8,132.7l-42.9,24.8V108
	l13.3,7.7v14.8c0,0.9,0.5,1.7,1.3,2.2c0.8,0.4,1.7,0.4,2.5,0l12.8-7.4L1840.8,132.7z M1816.2,126.2v-7.6l6.6,3.8L1816.2,126.2z
	 M1853.1,104.8l-18.5,10.7l-10.9,6.3l-7.6-4.4l0-33.8L1853.1,104.8z"/>
<path fill="#19A488" d="M1911.8,21.4c-12.1,1.5-20.6,12.4-19.2,24.5c0.2,2,0.7,3.9,1.5,5.7c-9.3,1.9-16,10.1-16,19.5
	c-0.1,11,8.8,20.1,19.9,20.1c11,0.1,20.1-8.8,20.1-19.9c0-2.2-0.3-4.3-1-6.4c1-0.1,1.9-0.3,2.8-0.5v-5.3c-1.6,0.6-3.4,0.9-5.2,1
	c-3.4-5.2-9.1-8.5-15.3-8.9c-4.4-8.2-1.4-18.5,6.9-23c2.5-1.3,5.3-2,8.1-2l0,0c1.9,0,3.8,0.4,5.5,1v-5.4
	C1917.4,21.3,1914.7,21,1911.8,21.4z M1913.5,60.2c-5.5-0.3-10.5-3.2-13.4-7.9C1905.5,52.9,1910.4,55.8,1913.5,60.2z M1914.4,65.2
	c0.6,0,1.1,0,1.6-0.1c3.3,9.9-2,20.7-12,24c-9.9,3.3-20.7-2-24-12c-3.3-9.9,2-20.7,12-24c0.8-0.3,1.6-0.5,2.5-0.6
	C1898.2,60.3,1905.9,65.2,1914.4,65.2z"/>
<path fill="#19A488" d="M1324,103.5c11,0,20-8.9,20-19.9c0-2.1-0.3-4.1-1-6.1c12.1-1.5,20.6-12.4,19.2-24.5s-12.4-20.6-24.5-19.2
	c-12.1,1.5-20.6,12.4-19.2,24.5c0.2,2,0.7,3.9,1.5,5.7c-10.8,2.4-17.6,13.1-15.1,23.9C1306.9,96.9,1314.8,103.3,1324,103.5z
	 M1340.3,38.7L1340.3,38.7c9.4,0.1,16.9,7.8,16.7,17.1c-0.1,9.1-7.3,16.4-16.4,16.7c-3.4-5.2-9.1-8.5-15.3-8.9c-1.3-2.5-2-5.2-2-8
	C1323.4,46.3,1331,38.8,1340.3,38.7z M1339.4,72.6L1339.4,72.6C1339.4,72.6,1339.4,72.6,1339.4,72.6c-5.5-0.3-10.5-3.2-13.4-7.9
	C1331.4,65.3,1336.2,68.2,1339.4,72.6C1339.4,72.6,1339.4,72.6,1339.4,72.6z M1318,65.6c0.8-0.3,1.6-0.5,2.4-0.6
	c3.6,7.7,11.4,12.7,19.9,12.7c0.6,0,1.1,0,1.6-0.1c3.3,9.9-2,20.7-12,24c-9.9,3.3-20.7-2-24-12S1308,68.9,1318,65.6z"/>
<path fill="#19A488" d="M1353,193.5C1353.1,193.6,1353.1,193.5,1353,193.5L1353,193.5L1353,193.5z"/>
<path fill="#19A488" d="M1369.4,129.7c9.4,0.6,16.5,8.7,15.8,18.1c-0.6,8.4-7.1,15.1-15.5,15.8c-3.7-5.6-9.9-9-16.7-9v1
	c6.2,0,12,3.1,15.6,8.2c-1.3,0.4-2,1.8-1.6,3.1c0.3,1,1.3,1.7,2.4,1.7c0.5,0,1.1,0,1.6-0.1c3.4,9.9-1.9,20.6-11.8,24
	c-2,0.7-4.1,1-6.2,1v1c11,0,19.9-8.9,20-19.8c0-2.1-0.3-4.2-1-6.2c12-1.8,20.3-13,18.5-25c-1.6-10.5-10.5-18.4-21.2-18.7
	c-1.4,0-2.5,1.1-2.5,2.5S1368,129.7,1369.4,129.7z"/>
<path fill="#19A488" d="M1667.4,8.4c-1.3,0.4-2,1.9-1.6,3.2c0.3,1,1.3,1.7,2.4,1.7c0.6,0,1.1,0,1.6-0.1c0.7,1.9,1,4,1,6
	c0,10.5-8.5,18.9-19,19v1c11,0,20-8.9,20-19.9c0-2.1-0.3-4.1-1-6.1c7.8-1.2,14.1-6.4,16.9-13.1h-5.2c-2.9,4.8-8,8.1-14,8.3
	c-2.7-4.1-6.8-7-11.5-8.3h-5.2v0.3C1658.1,0.3,1663.9,3.3,1667.4,8.4z"/>
<path fill="#19A488" d="M1817.2,285.5c0.2-11-8.4-20.1-19.4-20.3c-11-0.2-20.1,8.4-20.3,19.4c0,0.3,0,0.6,0,0.9h1
	c-0.2-10.4,8-19.1,18.4-19.3c10.4-0.2,19.1,8,19.3,18.4c0,0.3,0,0.6,0,0.9H1817.2z"/>
<path fill="#19A488" d="M1526.5,407.5c0-2.2-0.3-4.3-1-6.4c12.1-1.5,20.6-12.4,19.2-24.5c-1.5-12.1-12.4-20.6-24.5-19.2
	c-12.1,1.5-20.6,12.4-19.2,24.5c0.2,2,0.7,3.9,1.5,5.7c-9.3,1.9-16,10.1-16,19.5c-0.1,11,8.8,20.1,19.9,20.1
	C1517.4,427.4,1526.4,418.5,1526.5,407.5z M1514.7,364.4c2.5-1.3,5.3-2,8.1-2l0,0c9.4,0.1,16.9,7.8,16.7,17.2
	c-0.1,9.1-7.3,16.4-16.4,16.7c-3.4-5.2-9.1-8.5-15.3-8.9C1503.4,379.1,1506.5,368.8,1514.7,364.4z M1521.9,396.2L1521.9,396.2
	c-5.5-0.3-10.5-3.2-13.4-7.8C1513.9,389,1518.8,391.8,1521.9,396.2z M1512.5,425.2c-9.9,3.3-20.7-2-24-12c-3.3-9.9,2-20.7,12-24
	c0.8-0.3,1.6-0.5,2.5-0.6c3.6,7.7,11.4,12.7,19.9,12.7c0.6,0,1.1,0,1.6-0.1C1527.7,411.1,1522.4,421.9,1512.5,425.2z"/>
<path fill="#19A488" d="M1594.6,164.8c3.9,2.1,7.9,4.3,7.9,9.7c0,5.4-4,7.6-7.9,9.7c-3.5,1.9-7.1,3.8-7.1,8.1c0,4.3,3.6,6.2,7.1,8.1
	c3.9,2.1,7.9,4.3,7.9,9.7h1c0-6-4.5-8.4-8.4-10.6c-3.5-1.9-6.6-3.5-6.6-7.2c0-3.7,3-5.3,6.6-7.2c3.9-2.1,8.4-4.5,8.4-10.6
	s-4.5-8.4-8.4-10.6c-3.5-1.9-6.6-3.5-6.6-7.2c0-3.7,3-5.3,6.6-7.2c3.9-2.1,8.4-4.5,8.4-10.6h-1c0,5.4-4,7.6-7.9,9.7
	c-3.5,1.9-7.1,3.8-7.1,8.1C1587.5,161,1591.1,163,1594.6,164.8z"/>
<path fill="#19A488" d="M1315.6,285.5c-3.5,1.9-7.1,3.8-7.1,8.1s3.6,6.2,7.1,8.1c3.9,2.1,7.9,4.3,7.9,9.7h1c0-6-4.5-8.4-8.4-10.6
	c-3.5-1.9-6.5-3.5-6.5-7.2s3-5.3,6.5-7.2c4-2.1,8.4-4.5,8.4-10.6s-4.5-8.4-8.4-10.6c-3.5-1.9-6.5-3.5-6.5-7.2s3-5.3,6.5-7.2
	c4-2.1,8.4-4.5,8.4-10.6h-1c0,5.4-4,7.6-7.9,9.7c-3.5,1.9-7.1,3.8-7.1,8.1s3.6,6.2,7.1,8.1c3.9,2.1,7.9,4.3,7.9,9.7
	S1319.5,283.4,1315.6,285.5z"/>
<path fill="#19A488" d="M1718.3,349.2c-3.5-1.9-6.5-3.5-6.5-7.2s3-5.3,6.5-7.2c4-2.1,8.4-4.5,8.4-10.6s-4.5-8.4-8.4-10.6
	c-3.5-1.9-6.5-3.5-6.5-7.2s3-5.3,6.5-7.2c4-2.1,8.4-4.5,8.4-10.6h-1c0,5.4-4,7.6-7.9,9.7c-3.5,1.8-7.1,3.8-7.1,8.1
	c0,4.3,3.6,6.2,7.1,8.1c3.9,2.1,7.9,4.3,7.9,9.7s-4,7.6-7.9,9.7c-3.5,1.9-7.1,3.8-7.1,8.1s3.6,6.2,7.1,8.1c3.9,2.1,7.9,4.3,7.9,9.7
	h1C1726.7,353.8,1722.2,351.4,1718.3,349.2z"/>
<path fill="#19A488" d="M1912.1,144.2v1c3.9,0,6.1,2.1,7.8,4.7v-1.7C1918.2,146,1915.9,144.2,1912.1,144.2z"/>
<path fill="#19A488" d="M1735.9,44.1c1.9,3.5,3.8,7.1,8.1,7.1s6.2-3.6,8.1-7.1c2.1-3.9,4.3-7.9,9.7-7.9s7.6,4,9.7,7.9
	c1.9,3.5,3.8,7.1,8.1,7.1s6.2-3.6,8.1-7.1c2.1-3.9,4.3-7.9,9.7-7.9v-1c-6,0-8.4,4.5-10.6,8.4c-1.9,3.5-3.5,6.5-7.2,6.5
	s-5.3-3-7.2-6.5c-2.1-3.9-4.6-8.4-10.6-8.4s-8.4,4.5-10.6,8.4c-1.9,3.5-3.5,6.5-7.2,6.5s-5.3-3-7.2-6.5c-2.1-3.9-4.6-8.4-10.6-8.4v1
	C1731.7,36.2,1733.8,40.3,1735.9,44.1z"/>
<path fill="#19A488" d="M1474.5,339.5c1.9,3.5,3.8,7.1,8.1,7.1s6.2-3.6,8.1-7.1c2.1-3.9,4.3-7.9,9.7-7.9v-1c-6,0-8.4,4.5-10.6,8.4
	c-1.9,3.5-3.5,6.5-7.2,6.5s-5.3-3-7.2-6.5c-2.1-4-4.6-8.4-10.6-8.4s-8.4,4.5-10.6,8.4c-1.9,3.5-3.5,6.5-7.2,6.5s-5.3-3-7.2-6.5
	c-2.1-4-4.6-8.4-10.6-8.4v1c5.4,0,7.6,4,9.7,7.9c1.9,3.5,3.8,7.1,8.1,7.1s6.2-3.6,8.1-7.1c2.1-3.9,4.3-7.9,9.7-7.9
	S1472.4,335.6,1474.5,339.5z"/>
<rect x="1547.6" y="199.3" fill="#19A488" width="1" height="43.9"/>
<rect x="1878.2" y="202.6" fill="#19A488" width="1" height="43.8"/>
<rect x="1423.8" y="49.3" transform="matrix(0.7071 -0.7071 0.7071 0.7071 366.8347 1027.9965)" fill="#19A488" width="1" height="43.8"/>
<rect x="1643.8" y="391" transform="matrix(0.7071 -0.7071 0.7071 0.7071 189.6363 1283.6305)" fill="#19A488" width="1" height="43.8"/>
<path fill="#19A488" d="M1458.5,140.9C1458.5,140.9,1458.5,140.9,1458.5,140.9c3,4.7,9.3,6.2,14,3.2c4.8-3,6.2-9.3,3.2-14
	s-9.3-6.2-14-3.2C1457,129.9,1455.6,136.2,1458.5,140.9z M1462.1,134.4c0.3-1.3,1.1-2.5,2.3-3.2c2.4-1.5,5.6-0.8,7.1,1.6
	c1.5,2.4,0.8,5.6-1.6,7.1c-2.4,1.5-5.6,0.8-7.1-1.6C1462.1,137.1,1461.8,135.7,1462.1,134.4z"/>
<path fill="#19A488" d="M1675.7,85.1c0.7,0.2,1.5,0.3,2.3,0.3c5.6,0,10.2-4.6,10.2-10.2c0-4.7-3.3-8.9-7.9-9.9
	c-5.5-1.2-10.9,2.2-12.2,7.7c-0.6,2.6-0.1,5.4,1.3,7.7C1670.7,82.8,1673,84.5,1675.7,85.1z M1672.9,74c0.6-2.8,3.4-4.5,6.2-3.9
	c1.3,0.3,2.5,1.1,3.2,2.3c0.7,1.2,1,2.6,0.7,3.9h0c-0.6,2.8-3.4,4.5-6.2,3.9C1674,79.5,1672.3,76.8,1672.9,74z"/>
<path fill="#19A488" d="M1848.2,296.7c-0.6,2.6-0.1,5.4,1.3,7.7c1.4,2.3,3.7,3.9,6.3,4.5c0.7,0.2,1.5,0.3,2.3,0.3
	c5.6,0,10.2-4.5,10.2-10.2c0-4.7-3.3-8.9-7.9-9.9C1854.9,287.8,1849.4,291.3,1848.2,296.7z M1862.4,296.2c0.7,1.2,1,2.6,0.7,3.9
	c-0.6,2.8-3.4,4.5-6.1,3.9c0,0,0,0,0,0c-2.8-0.6-4.5-3.4-3.9-6.2c0.3-1.3,1.1-2.5,2.3-3.2C1857.7,293.1,1860.9,293.8,1862.4,296.2z"
	/>
<path fill="#19A488" d="M1595,409.5c0.6-2.6,0.1-5.4-1.3-7.7c-3-4.7-9.3-6.2-14-3.2c-4.7,3-6.2,9.3-3.2,14c1.4,2.3,3.7,3.9,6.3,4.5
	c0.7,0.2,1.5,0.3,2.3,0.3C1589.9,417.4,1594,414.1,1595,409.5L1595,409.5z M1590.1,408.4c-0.6,2.8-3.4,4.5-6.2,3.9
	c-2.8-0.6-4.5-3.4-3.9-6.2s3.4-4.5,6.2-3.9c1.3,0.3,2.5,1.1,3.2,2.3C1590.2,405.7,1590.4,407,1590.1,408.4L1590.1,408.4z"/>
<path fill="#19A488" d="M139.5,591.1c1,0.9,2.6,0.9,3.5-0.1l7-7.5l7.5,7c0.5,0.4,1.1,0.7,1.7,0.7c1.4,0,2.5-1.1,2.5-2.5
	c0-0.7-0.3-1.3-0.8-1.8l-7.5-7l7-7.5c0.9-1,0.9-2.6-0.1-3.5c-1-0.9-2.6-0.9-3.5,0.1l-7,7.5l-7.5-7c-1-0.9-2.6-0.9-3.5,0.1
	c-0.9,1-0.9,2.6,0.1,3.5l7.5,7l-7,7.5C138.4,588.6,138.4,590.2,139.5,591.1z"/>
<path fill="#19A488" d="M610.4,586.3l-7.4-7l7-7.5c1-1,1-2.5,0.1-3.5c-1-1-2.5-1-3.5-0.1c-0.1,0.1-0.1,0.1-0.2,0.2l-7,7.5l-7.5-7
	c-1-0.9-2.6-0.9-3.5,0.1c-0.9,1-0.9,2.6,0.1,3.5l7.5,7l-7,7.5c-1.1,0.8-1.4,2.4-0.6,3.5c0.8,1.1,2.4,1.4,3.5,0.6
	c0.2-0.2,0.5-0.4,0.6-0.7l7-7.5l7.5,7c0.5,0.4,1.1,0.7,1.7,0.7c0.7,0,1.4-0.3,1.8-0.8C611.4,588.9,611.4,587.3,610.4,586.3
	C610.4,586.3,610.4,586.3,610.4,586.3z"/>
<path fill="#19A488" d="M382.9,674.5l7-7.5c0.9-1,0.9-2.6-0.1-3.5s-2.6-0.9-3.5,0.1l-7,7.5l-7.5-7c-1-1-2.5-1-3.5-0.1
	s-1,2.5-0.1,3.5c0.1,0.1,0.1,0.1,0.2,0.2l7.5,7l-7,7.5c-0.9,1-0.9,2.6,0.1,3.5c1,0.9,2.6,0.9,3.5-0.1c0,0,0,0,0,0l7-7.5l7.5,7
	c0.5,0.4,1.1,0.7,1.7,0.7c1.4,0,2.5-1.1,2.5-2.5c0-0.7-0.3-1.3-0.8-1.8L382.9,674.5z"/>
<path fill="#19A488" d="M564.1,544.5l-26.6-15.3c0.1-0.3,0.2-0.7,0.2-1c0-0.9-0.5-1.7-1.2-2.2L492,500.4c-1.2-0.7-2.7-0.3-3.4,0.9
	c-0.2,0.4-0.3,0.8-0.3,1.3v51.3c0,0.9,0.5,1.7,1.3,2.2c0.4,0.2,0.8,0.3,1.2,0.3c0.4,0,0.9-0.1,1.3-0.3l26.1-15.1V571L564.1,544.5z
	 M519.2,521.8l11,6.4l-11,6.4V521.8z M519.2,540.3l17.3-10c0.2-0.1,0.3-0.2,0.5-0.3l25.2,14.6l-42.9,24.8V540.3z M511.8,538.8
	l-18.5,10.7v-42.6l24.9,14.3v13.9L511.8,538.8z"/>
<path fill="#19A488" d="M71.7,785.3c0.1-0.3,0.2-0.7,0.2-1c0-0.9-0.5-1.7-1.3-2.2l-44.4-25.6c-1.2-0.7-2.7-0.3-3.4,0.9
	c-0.2,0.4-0.3,0.8-0.3,1.3V810c0,0.9,0.5,1.7,1.3,2.2c0.4,0.2,0.8,0.3,1.2,0.3c0.4,0,0.9-0.1,1.3-0.3l26.1-15.1V827h0.3l45.6-26.3
	L71.7,785.3z M53.5,778l11,6.4l-11,6.4V778z M52.5,791.3L46,795l-18.4,10.7V763l24.9,14.3V791.3z M53.5,796.5l17.3-10
	c0.2-0.1,0.3-0.2,0.5-0.3l25.2,14.5l-42.9,24.8V796.5z"/>
<path fill="#19A488" d="M345.6,751.9c-0.7,0.1-1.5,0.3-2.2,0.6c-1.4-12.1-12.4-20.7-24.5-19.2c-12.1,1.4-20.7,12.4-19.2,24.5
	c1.3,11.1,10.7,19.4,21.9,19.4l0,0c2.8,0,5.7-0.5,8.3-1.6c2.2,10.8,12.7,17.8,23.6,15.6c10.8-2.2,17.8-12.7,15.6-23.6
	C367,756.7,356.4,749.7,345.6,751.9z M329.6,770.1c-2.5,1.3-5.2,2-8,2c-9.4-0.7-16.4-8.8-15.7-18.2c0.6-8.4,7.3-15.1,15.7-15.7l0,0
	c9.2,0,16.7,7.4,16.9,16.6C333.4,758.3,330.1,763.9,329.6,770.1z M338.5,756.1c-0.3,5.5-3.2,10.5-7.9,13.4
	C331.3,764.1,334.1,759.2,338.5,756.1z M349.7,790.5c-9.2,0-17.1-6.5-18.8-15.5c7.7-3.6,12.7-11.4,12.7-19.9c0-0.5,0-1.1-0.1-1.6
	c1.9-0.7,4-1,6-1c10.5,0,19,8.4,19.1,18.9C368.7,782,360.2,790.5,349.7,790.5z"/>
<path fill="#19A488" d="M440.2,658.3c0-1.4-1.1-2.5-2.5-2.5c-9.3,0.2-17-7.1-17.3-16.5s7.1-17,16.5-17.3c0.3,0,0.5,0,0.8,0
	c1.4,0,2.5-1.1,2.5-2.5s-1.1-2.5-2.5-2.5c-12.1-0.3-22.1,9.3-22.3,21.4c-0.3,12.1,9.3,22.1,21.4,22.3c0.3,0,0.6,0,0.9,0
	C439,660.8,440.2,659.7,440.2,658.3z"/>
<path fill="#19A488" d="M177.2,457.2c0.3,0,0.5,0,0.8,0c1.4,0,2.5-1.1,2.5-2.5s-1.1-2.5-2.5-2.5c-12.1-0.3-22.1,9.3-22.3,21.4
	c-0.3,12.1,9.3,22.1,21.4,22.3c0.3,0,0.6,0,0.9,0c1.4,0,2.5-1.1,2.5-2.5s-1.1-2.5-2.5-2.5c-9.3,0.2-17-7.1-17.3-16.5
	S167.9,457.4,177.2,457.2z"/>
<path fill="#19A488" d="M563.7,617H525c-1.4,0-2.5,1.1-2.5,2.5v38.7c0,1.4,1.1,2.5,2.5,2.5h27.4v14.3h39.7v-39.7h-25.9v-15.8
	C566.2,618.2,565.1,617,563.7,617z M552.4,655.8h-24.9V622h33.7v13.3h-8.8V655.8z M561.2,636.4v19.4h-7.8v-19.4H561.2z M591.1,636.4
	v37.7h-37.7v-13.3h10.3c1.4,0,2.5-1.1,2.5-2.5v-21.9H591.1z"/>
<path fill="#19A488" d="M431.6,470.6h-25.9v-15.8c0-1.4-1.1-2.5-2.5-2.5h-38.7c-1.4,0-2.5,1.1-2.5,2.5v38.7c0,1.4,1.1,2.5,2.5,2.5
	h27.4v14.3h39.7V470.6z M391.9,490.9H367l0-33.7h33.7v13.3h-8.8V490.9z M400.7,471.6v19.4h-7.8v-19.4H400.7z M430.6,509.3h-37.7
	v-13.3h10.3c1.4,0,2.5-1.1,2.5-2.5v-21.9h24.9V509.3z"/>
<path fill="#19A488" d="M476.4,712.5c4,0,5.6,2.6,7.9,6.9c2,3.6,4.4,8.1,9.8,8.1s7.9-4.5,9.8-8.1c2.3-4.3,3.9-6.8,7.9-6.8
	c1.4,0,2.5-1.1,2.5-2.5s-1.1-2.5-2.5-2.5c-7.2,0-10.2,5.5-12.3,9.5c-2.1,3.8-3.2,5.5-5.4,5.5s-3.4-1.7-5.4-5.5
	c-2.2-4-5.1-9.5-12.3-9.5s-10.2,5.5-12.3,9.5c-2.1,3.8-3.2,5.5-5.4,5.5s-3.4-1.7-5.4-5.5c-2.2-4-5.1-9.5-12.3-9.5
	c-1.4,0-2.5,1.1-2.5,2.5s1.1,2.5,2.5,2.5c4,0,5.6,2.6,7.9,6.8c2,3.6,4.4,8.1,9.8,8.1s7.9-4.5,9.8-8.1
	C470.8,715.1,472.4,712.5,476.4,712.5z"/>
<path fill="#19A488" d="M9.8,701.2c2.3-4.3,3.9-6.9,7.9-6.9c1.4,0,2.5-1.1,2.5-2.5s-1.1-2.5-2.5-2.5c-7.2,0-10.2,5.5-12.3,9.5
	c-2,3.8-3.2,5.5-5.4,5.5v5C5.4,709.3,7.8,704.8,9.8,701.2z"/>
<path fill="#19A488" d="M306.2,480.6c3.6-2,8.1-4.4,8.1-9.8s-4.5-7.9-8.1-9.8c-4.3-2.3-6.9-3.9-6.9-7.9c0-1.4-1.1-2.5-2.5-2.5
	c-1.4,0-2.5,1.1-2.5,2.5c0,7.2,5.5,10.2,9.5,12.3c3.8,2.1,5.5,3.2,5.5,5.4s-1.7,3.4-5.5,5.4c-4,2.2-9.5,5.1-9.5,12.3
	s5.5,10.2,9.5,12.3c3.8,2.1,5.5,3.2,5.5,5.4s-1.7,3.4-5.5,5.4c-4,2.2-9.5,5.1-9.5,12.3c0,1.4,1.1,2.5,2.5,2.5c1.4,0,2.5-1.1,2.5-2.5
	c0-4,2.6-5.6,6.9-7.9c3.6-2,8.1-4.4,8.1-9.8s-4.5-7.9-8.1-9.8c-4.3-2.3-6.9-3.9-6.9-7.9S302,482.9,306.2,480.6z"/>
<path fill="#19A488" d="M197.3,666.5c3.6-2,8.1-4.4,8.1-9.8s-4.5-7.9-8.1-9.8c-4.3-2.3-6.9-3.9-6.9-7.9c0-1.4-1.1-2.5-2.5-2.5
	c-1.4,0-2.5,1.1-2.5,2.5c0,7.2,5.5,10.2,9.5,12.3c3.8,2.1,5.5,3.2,5.5,5.4s-1.7,3.4-5.5,5.4c-4,2.2-9.5,5.1-9.5,12.3
	s5.5,10.2,9.5,12.3c3.8,2.1,5.5,3.2,5.5,5.4s-1.7,3.4-5.5,5.4c-4,2.2-9.5,5.1-9.5,12.3c0,1.4,1.1,2.5,2.5,2.5c1.4,0,2.5-1.1,2.5-2.5
	c0-4,2.6-5.6,6.9-7.9c3.6-2,8.1-4.4,8.1-9.8s-4.5-7.9-8.1-9.8c-4.3-2.3-6.9-3.9-6.9-7.9S193,668.8,197.3,666.5z"/>
<path fill="#19A488" d="M354.8,560h43.8c1.4,0,2.5-1.1,2.5-2.5s-1.1-2.5-2.5-2.5h-43.8c-1.4,0-2.5,1.1-2.5,2.5S353.4,560,354.8,560z
	"/>
<path fill="#19A488" d="M527.6,456.1c-1.4,0-2.5,1.1-2.5,2.5s1.1,2.5,2.5,2.5h43.8c1.4,0,2.5-1.1,2.5-2.5c0-1.4-1.1-2.5-2.5-2.5
	H527.6z"/>
<path fill="#19A488" d="M582.3,774.7c-1-0.9-2.5-0.9-3.5,0h0l-31,31c-1,1-1,2.6,0,3.5c1,1,2.6,1,3.5,0l31-31
	C583.3,777.2,583.3,775.6,582.3,774.7z"/>
<path fill="#19A488" d="M339.3,655.7l-26.5-45.9l-8.1,14l-4.8-8.4l-12.8-22.2c-0.4-0.8-1.3-1.3-2.2-1.3c-0.9,0-1.7,0.5-2.2,1.3
	l-25.6,44.4c-0.7,1.2-0.3,2.7,0.9,3.4c0.4,0.2,0.8,0.3,1.2,0.3h35.3l-8.3,14.3L339.3,655.7z M306.3,636.4h-7.6l3.8-6.6L306.3,636.4z
	 M263.6,636.4l21.3-36.9l17,29.3l-4.4,7.6H263.6z M295.8,641.3l14.8,0c1.4,0,2.5-1.1,2.5-2.5c0-0.4-0.1-0.9-0.3-1.2l-7.4-12.8
	l7.5-13l24.8,42.9h-49.5L295.8,641.3z"/>
<path fill="#19A488" d="M489.7,800.5l6.3-23.7c0.4-1.3-0.4-2.7-1.8-3.1c-0.4-0.1-0.9-0.1-1.3,0L443.5,787c-1.3,0.4-2.1,1.7-1.8,3.1
	c0.1,0.4,0.3,0.8,0.6,1.1l35.8,35.8h4.4c0.1-0.2,0.2-0.4,0.3-0.6l1.9-7.2l7.8,7.8h1.5l-9-9l4.4-16.5l31.4-8.4l-9,33.8h1l9.4-35.2
	L489.7,800.5z M480.9,814l-8-8l10.9-2.9L480.9,814z M484.6,800.3l-0.5,1.7l-13.1,3.5l9.6,9.6l-1.5,5.7l-30.2-30.1l41.2-11.1
	L484.6,800.3z"/>
<path fill="#19A488" d="M100.6,504.2l-32.5,8.7l6.3-23.7c0.3-1.3-0.5-2.7-1.8-3c-0.4-0.1-0.8-0.1-1.2,0l-49.5,13.3
	c-1.3,0.4-2.1,1.7-1.8,3.1c0.1,0.4,0.3,0.8,0.6,1.1L57,539.9c0.5,0.5,1.1,0.7,1.8,0.7c0.2,0,0.4,0,0.6-0.1c0.9-0.2,1.5-0.9,1.8-1.8
	l1.9-7.1l23.8,23.8L100.6,504.2z M59.3,526.4l-8-8l10.9-2.9L59.3,526.4z M62.9,512.7l-0.5,1.7l-13.1,3.5l9.6,9.6l-1.5,5.7
	l-30.2-30.1l41.2-11.1L62.9,512.7z M63.4,530.5l4.4-16.5l31.4-8.4l-12.8,47.9L63.4,530.5z"/>
<path fill="#19A488" d="M271.5,554.7c0.2-11-8.6-20.1-19.7-20.3c-2.3,0-4.6,0.3-6.7,1.1c-1.5-12.1-12.4-20.6-24.5-19.2
	s-20.6,12.4-19.2,24.5c1.5,12.1,12.4,20.6,24.5,19.2c2-0.2,3.9-0.7,5.7-1.5c1.9,9.3,10.1,15.9,19.6,15.9
	C262.3,574.5,271.4,565.7,271.5,554.7z M231.3,553c-2.5,1.3-5.2,2-8,2c-9.3,0-16.9-7.6-17-16.9c0.1-9.4,7.8-16.9,17.2-16.7
	c9.1,0.1,16.4,7.3,16.7,16.4C235.1,541.2,231.8,546.8,231.3,553z M240.2,539c-0.3,5.5-3.2,10.5-7.9,13.4
	C233,547,235.8,542.1,240.2,539z M232.6,558c7.7-3.6,12.7-11.4,12.7-19.9c0-0.5,0-1.1-0.1-1.6c1.9-0.6,4-1,6-1v0
	c10.5,0,19,8.4,19.1,18.9s-8.4,19-18.9,19.1C242.2,573.5,234.3,567,232.6,558z"/>
<path fill="#19A488" d="M218.3,800.7C218.3,800.7,218.3,800.7,218.3,800.7L218.3,800.7L218.3,800.7z"/>
<path fill="#19A488" d="M199.4,780.7c-2.1,0-4.2,0.3-6.2,1c-1.8-12-13-20.3-25-18.5c-10.5,1.6-18.4,10.5-18.7,21.2
	c0,1.4,1.1,2.5,2.5,2.5c1.4,0,2.5-1.1,2.5-2.5c0.6-9.4,8.7-16.5,18.1-15.8c8.4,0.6,15.1,7.1,15.8,15.5c-5.6,3.7-9,9.9-9,16.7h1
	c0-6.2,3-12,8.2-15.6c0.4,1.3,1.8,2,3.1,1.6c1-0.3,1.7-1.3,1.7-2.4c0-0.5,0-1.1-0.1-1.6c9.9-3.4,20.6,1.9,24,11.8c0.7,2,1,4.1,1,6.1
	h1C219.3,789.7,210.4,780.7,199.4,780.7z"/>
<path fill="#19A488" d="M13.4,642.7h1c0.1-9.1-6.1-16.9-14.5-19.2v1.1C7.8,626.9,13.5,634.2,13.4,642.7z"/>
<path fill="#19A488" d="M464.7,636.4c0.3,0,0.6,0,0.9,0v-1c-11-0.2-20.1,8.4-20.3,19.4c-0.2,11,8.4,20.1,19.4,20.3
	c0.3,0,0.6,0,0.9,0v-1c-10.4,0.2-19.1-8-19.3-18.4C446,645.3,454.3,636.6,464.7,636.4z"/>
<path fill="#19A488" d="M205,471.5c0.3,0,0.6,0,0.9,0v-1c-11-0.2-20.1,8.4-20.3,19.4c-0.2,11,8.4,20.1,19.4,20.3c0.3,0,0.6,0,0.9,0
	v-1c-10.4,0.2-19.1-8-19.3-18.4C186.3,480.4,194.6,471.8,205,471.5z"/>
<path fill="#19A488" d="M154.6,694.4v-39.7h-25.9v-15.8c0-1.4-1.1-2.5-2.5-2.5H87.5c-1.4,0-2.5,1.1-2.5,2.5v38.7
	c0,1.4,1.1,2.5,2.5,2.5h27.4v14.3L154.6,694.4z M128.7,677.6v-21.9h24.9v37.7h-37.7v-13.3h10.3C127.6,680.1,128.7,679,128.7,677.6z
	 M115.9,675.1v-19.4h7.8v19.4H115.9z M90,675.1v-33.7h33.7v13.3h-8.8v20.4H90z"/>
<path fill="#19A488" d="M529.3,734.3c-1.9,3.5-3.5,6.5-7.2,6.5s-5.3-3-7.2-6.5c-2.1-4-4.5-8.4-10.6-8.4s-8.4,4.5-10.6,8.4
	c-1.9,3.5-3.5,6.5-7.2,6.5s-5.3-3-7.2-6.5c-2.1-4-4.5-8.4-10.6-8.4v1c5.4,0,7.6,4,9.7,7.9c1.9,3.5,3.8,7.1,8.1,7.1s6.2-3.6,8.1-7.1
	c2.1-3.9,4.3-7.9,9.7-7.9s7.6,4,9.7,7.9c1.9,3.5,3.8,7.1,8.1,7.1s6.2-3.6,8.1-7.1c2.1-3.9,4.3-7.9,9.7-7.9v-1
	C533.8,725.8,531.4,730.3,529.3,734.3z"/>
<path fill="#19A488" d="M10.1,708.7c5.4,0,7.6,4,9.7,7.9c1.9,3.5,3.8,7.1,8.1,7.1s6.2-3.6,8.1-7.1c2.1-3.9,4.3-7.9,9.7-7.9v-1
	c-6,0-8.4,4.5-10.6,8.4c-1.9,3.5-3.5,6.5-7.2,6.5s-5.3-3-7.2-6.5c-2.1-4-4.5-8.4-10.6-8.4c-5.6,0-8.1,3.8-10.1,7.5v2.1
	c0.1-0.2,0.3-0.5,0.4-0.7C2.5,712.7,4.7,708.7,10.1,708.7z"/>
<path fill="#19A488" d="M333.2,495.2c3.5-1.9,7.1-3.8,7.1-8.1s-3.6-6.2-7.1-8.1c-3.9-2.1-7.9-4.3-7.9-9.7h-1c0,6,4.5,8.4,8.4,10.6
	c3.5,1.9,6.5,3.5,6.5,7.2s-3,5.3-6.5,7.2c-4,2.1-8.4,4.5-8.4,10.6s4.5,8.4,8.4,10.6c3.5,1.9,6.5,3.5,6.5,7.2s-3,5.3-6.5,7.2
	c-4,2.1-8.4,4.5-8.4,10.6h1c0-5.4,4-7.6,7.9-9.7c3.5-1.9,7.1-3.8,7.1-8.1s-3.6-6.2-7.1-8.1c-3.9-2.1-7.9-4.3-7.9-9.7
	S329.3,497.3,333.2,495.2z"/>
<path fill="#19A488" d="M224.2,681.1c3.5-1.9,7.1-3.8,7.1-8.1s-3.6-6.2-7.1-8.1c-3.9-2.1-7.9-4.3-7.9-9.7h-1c0,6,4.5,8.4,8.4,10.6
	c3.5,1.9,6.5,3.5,6.5,7.2s-3,5.3-6.5,7.2c-4,2.1-8.4,4.5-8.4,10.6s4.5,8.4,8.4,10.6c3.5,1.9,6.5,3.5,6.5,7.2s-3,5.3-6.5,7.2
	c-4,2.1-8.4,4.5-8.4,10.6h1c0-5.4,4-7.6,7.9-9.7c3.5-1.9,7.1-3.8,7.1-8.1s-3.6-6.2-7.1-8.1c-3.9-2.1-7.9-4.3-7.9-9.7
	S220.3,683.2,224.2,681.1z"/>
<rect x="382.7" y="573.4" fill="#19A488" width="43.9" height="1"/>
<rect x="555.5" y="474.4" fill="#19A488" width="43.8" height="1"/>
<polygon fill="#19A488" points="9.7,474.6 0,484.3 0,485.7 10.4,475.3 "/>
<rect x="571" y="807.8" transform="matrix(0.7071 -0.7071 0.7071 0.7071 -397.8645 656.009)" fill="#19A488" width="43.8" height="1"/>
<path fill="#19A488" d="M249.8,766c-4.7,3-6.2,9.3-3.2,14c1.4,2.3,3.7,3.9,6.3,4.5c0.7,0.2,1.5,0.3,2.3,0.3c1.9,0,3.8-0.5,5.4-1.6
	c4.7-3,6.2-9.3,3.2-14C260.8,764.4,254.5,763,249.8,766z M260.3,775.8c-0.6,2.8-3.4,4.5-6.2,3.9c-1.3-0.3-2.5-1.1-3.3-2.3
	c-0.7-1.2-1-2.6-0.7-3.9h0c0.6-2.8,3.4-4.5,6.2-3.9S260.9,773,260.3,775.8z"/>
<path fill="#19A488" d="M59.8,588.4L59.8,588.4c-5.4-1.3-10.9,2-12.3,7.4c-1.3,5.4,2,11,7.4,12.3c0.1,0,0.2,0.1,0.3,0.1
	c0.7,0.2,1.5,0.3,2.3,0.3c1.9,0,3.8-0.5,5.4-1.6c4.7-3,6.2-9.3,3.2-14C64.7,590.6,62.4,589,59.8,588.4z M62.7,599.1
	c0,0.1,0,0.2-0.1,0.2c-0.7,2.8-3.5,4.4-6.3,3.7c-2.7-0.7-4.3-3.3-3.8-6c0.6-2.8,3.3-4.6,6.1-4C61.4,593.6,63.2,596.3,62.7,599.1z"/>
<path fill="#19A488" d="M479.1,604.6L479.1,604.6c1.9,0,3.8-0.5,5.4-1.6c4.8-3,6.2-9.3,3.2-14s-9.3-6.2-14-3.2s-6.2,9.3-3.2,14
	C472.3,602.8,475.6,604.6,479.1,604.6z M474.1,593.3L474.1,593.3c0.6-2.8,3.3-4.6,6.1-4c2.8,0.6,4.6,3.3,4,6.1c0,0.1,0,0.2-0.1,0.2
	c-0.3,1.3-1.1,2.5-2.3,3.2c-2.4,1.5-5.6,0.8-7.1-1.6C474,596.1,473.8,594.7,474.1,593.3z"/>
<path fill="#19A488" d="M1060.6,752.7l7-7.5c1-1,1-2.5,0.1-3.5c-1-1-2.5-1-3.5-0.1c-0.1,0.1-0.1,0.1-0.2,0.2l-7,7.5l-7.5-7
	c-1-0.9-2.6-0.9-3.5,0.1c0,0,0,0,0,0c-0.9,1-0.9,2.6,0.1,3.5c0,0,0,0,0,0l7.5,7l-7,7.5c-0.9,1-0.9,2.6,0.1,3.5
	c0.5,0.4,1.1,0.7,1.7,0.7c0.7,0,1.4-0.3,1.8-0.8l7-7.5l7.5,7c1,0.9,2.6,0.9,3.5-0.1s0.9-2.6-0.1-3.5L1060.6,752.7z"/>
<path fill="#19A488" d="M1287.5,602.9l7-7.5c1-1,1-2.5,0.1-3.5c-1-1-2.5-1-3.5-0.1c-0.1,0.1-0.1,0.1-0.2,0.2l-7,7.5l-7.5-7
	c-1-0.9-2.6-0.8-3.5,0.3c-0.8,1-0.8,2.4,0.1,3.4l7.5,7l-7,7.5c-0.9,1-0.9,2.6,0.1,3.5c0,0,0,0,0,0c0.5,0.4,1.1,0.7,1.7,0.7
	c0.7,0,1.4-0.3,1.8-0.8l7-7.5l7.5,7c0.5,0.4,1.1,0.7,1.7,0.7c1.4,0,2.5-1.1,2.5-2.5c0-0.7-0.3-1.3-0.8-1.8L1287.5,602.9z"/>
<path fill="#19A488" d="M761.6,718.7l7-7.5c1-1,1-2.5,0.1-3.5c-1-1-2.5-1-3.5-0.1c-0.1,0.1-0.1,0.1-0.2,0.2l-7,7.5l-7.5-7
	c-1-0.9-2.6-0.9-3.5,0.1c-0.9,1-0.9,2.6,0.1,3.5l7.5,7l-7,7.5c-0.9,1-0.9,2.6,0.1,3.5c0,0,0,0,0,0c1,0.9,2.6,0.9,3.5-0.1
	c0,0,0,0,0,0l7-7.5l7.5,7c0.5,0.4,1.1,0.7,1.7,0.7c0.7,0,1.4-0.3,1.8-0.8c0.9-1,0.9-2.6-0.1-3.5L761.6,718.7z"/>
<path fill="#19A488" d="M783.6,556.6l-7.5-7l7-7.5c1-1,1-2.5,0.1-3.5c-1-1-2.5-1-3.5-0.1c-0.1,0.1-0.1,0.1-0.2,0.2l-7,7.5l-7.5-7
	c-1-0.9-2.6-0.9-3.5,0.1c-0.9,1-0.9,2.6,0.1,3.5l7.5,7l-7,7.5c-0.9,1-0.9,2.6,0.1,3.5c0.5,0.4,1.1,0.7,1.7,0.7
	c0.7,0,1.4-0.3,1.8-0.8l7-7.5l7.5,7c1,0.9,2.6,0.9,3.5-0.1C784.6,559.2,784.6,557.6,783.6,556.6z"/>
<path fill="#19A488" d="M1012.8,688.5c-0.4-0.2-0.8-0.3-1.2-0.3h-35.3l8.3-14.4h-53l26.5,45.9l8-14l4.8,8.4l12.8,22.2
	c0.4,0.8,1.3,1.3,2.2,1.3c0.9,0,1.7-0.5,2.2-1.3l25.6-44.4C1014.4,690.8,1014,689.2,1012.8,688.5z M958,717.8l-12.4-21.5l-12.4-21.4
	h49.6l-7.7,13.4h-14.8c-1.4,0-2.5,1.1-2.5,2.5c0,0.4,0.1,0.9,0.3,1.2l7.4,12.8L958,717.8z M964.6,693.2l7.6,0l-3.8,6.6L964.6,693.2z
	 M985.9,730.2l-10.7-18.5h0l-6.3-10.8l4.4-7.6h33.9L985.9,730.2z"/>
<path fill="#19A488" d="M786.6,812.2c0.2-0.9,0-1.8-0.7-2.4l-36.3-36.3c-1-1-2.6-1-3.5,0c-0.3,0.3-0.5,0.7-0.7,1.1l-1.9,7.2
	L719.8,758l-13.7,51.2l32.5-8.8l-6.3,23.7c-0.3,1.1,0.2,2.3,1.2,2.8h2.7l48.7-13.1C785.7,813.7,786.4,813,786.6,812.2z M747.4,787
	l8,8l-10.9,2.9L747.4,787z M707.5,807.8l12.8-47.9l23,23l-4.4,16.5L707.5,807.8z M738.2,821.3l5.5-20.6l0.5-1.7l13.1-3.5l-9.6-9.6
	l1.5-5.8l30.2,30.1L738.2,821.3z"/>
<path fill="#19A488" d="M1225.9,563.2c-0.1-0.4-0.3-0.8-0.6-1.1l-36.3-36.2c-1-1-2.5-1-3.5,0c-0.3,0.3-0.5,0.7-0.7,1.1l-1.9,7.1
	l-23.8-23.8l-13.7,51.2l32.5-8.7l-6.3,23.7c-0.2,0.9,0,1.8,0.6,2.4c0.5,0.5,1.1,0.7,1.8,0.7c0.2,0,0.4,0,0.7-0.1l49.5-13.3
	C1225.4,565.9,1226.2,564.5,1225.9,563.2z M1186.6,539.3l8,8l-10.9,2.9L1186.6,539.3z M1146.7,560.1l12.8-47.9l23,23l-4.4,16.5
	L1146.7,560.1z M1177.4,573.6l5.5-20.6l0.5-1.7l13.1-3.5l-9.6-9.6l1.5-5.7l30.2,30.1L1177.4,573.6z"/>
<path fill="#19A488" d="M1203.3,788.5c-0.4,0-0.9,0.1-1.2,0.3l-26.1,15.1v-30.1l-45.9,26.5l26.6,15.3c-0.1,0.3-0.2,0.7-0.2,1
	c0,0.9,0.5,1.7,1.3,2.2l14.1,8.2h10l-5.9-3.4v-13.9l6.4-3.7l18.4-10.7V827h5v-36C1205.8,789.6,1204.7,788.5,1203.3,788.5z
	 M1174.9,823l-11-6.4l11-6.4V823z M1174.9,804.5l-17.3,10c-0.2,0.1-0.3,0.2-0.4,0.3l-25.2-14.5l42.9-24.8V804.5z"/>
<path fill="#19A488" d="M898.4,825.5c-2.2-10.8-12.7-17.8-23.6-15.7c-8.7,1.7-14.9,8.8-15.9,17.1h1c1.2-9.3,9.1-16.6,18.8-16.6
	c9.2,0,17.1,6.5,18.7,15.5c-0.7,0.3-1.4,0.7-2,1.1h23c-3.3-2-7.1-3.2-11.2-3.2C904.2,823.8,901.2,824.3,898.4,825.5z"/>
<path fill="#19A488" d="M1014.9,489c0.1-12.1-9.6-22.1-21.8-22.2c-3,0-6,0.6-8.8,1.7c-2.2-10.8-12.7-17.8-23.6-15.6
	c-10.8,2.2-17.8,12.7-15.6,23.6c2.2,10.8,12.7,17.8,23.6,15.6c0.7-0.1,1.5-0.3,2.2-0.6c1.4,11,10.7,19.2,21.8,19.3
	C1004.8,510.9,1014.7,501.1,1014.9,489z M970.8,490.4c-1.9,0.7-4,1-6,1l0,0c-10.5,0-19-8.4-19.1-18.9s8.4-19,18.9-19.1
	c9.2,0,17,6.5,18.7,15.5c-7.7,3.6-12.7,11.4-12.7,19.9C970.7,489.3,970.7,489.8,970.8,490.4z M975.8,487.8
	c0.3-5.5,3.2-10.5,7.9-13.4C983,479.8,980.1,484.7,975.8,487.8L975.8,487.8z M992.4,505.5c-9.1-0.1-16.4-7.3-16.7-16.4
	c5.2-3.4,8.5-9.1,8.9-15.3c2.5-1.3,5.2-2,8-2c9.4,0,16.9,7.6,16.9,17l0,0C1009.5,498.1,1001.8,505.6,992.4,505.5z"/>
<path fill="#19A488" d="M921.2,515.4C921.2,515.4,921.1,515.4,921.2,515.4c-1.4,0-2.5,1.1-2.5,2.5c-0.1,9.4-7.8,16.9-17.2,16.7
	c-9.1-0.1-16.4-7.3-16.7-16.4c5.6-3.7,9-9.9,9-16.7h-1c0,6.2-3,12-8.2,15.5c-0.4-1.3-1.9-2-3.2-1.6c-1,0.3-1.7,1.3-1.7,2.4
	c0,0.5,0,1.1,0.1,1.6c-9.9,3.4-20.6-1.9-24-11.8c-0.7-2-1-4.1-1-6.2h-1c0,11,8.9,20,19.9,20c2.1,0,4.2-0.3,6.2-1
	c1.8,12,13,20.3,25.1,18.4c10.5-1.6,18.4-10.5,18.7-21.1C923.7,516.5,922.5,515.3,921.2,515.4z"/>
<path fill="#19A488" d="M1260,525.1c-0.3,0-0.5,0-0.8,0c-1.4,0-2.5,1.1-2.5,2.5s1.1,2.5,2.5,2.5c12.1,0.3,22.1-9.3,22.3-21.4
	c0.3-12.1-9.3-22.1-21.4-22.3c-0.3,0-0.6,0-0.9,0c-1.4,0-2.5,1.1-2.5,2.5s1.1,2.5,2.5,2.5c9.3-0.2,17,7.1,17.3,16.5
	S1269.3,524.9,1260,525.1z"/>
<path fill="#19A488" d="M1268.7,671.6c-2.8,0-5.6,0.6-8.2,1.6c-2.2-10.8-12.7-17.8-23.6-15.6c-10.8,2.2-17.8,12.7-15.6,23.6
	c2.2,10.8,12.7,17.8,23.6,15.6c0.7-0.1,1.5-0.3,2.2-0.6c1.8,12,13,20.3,25.1,18.4c10.5-1.6,18.4-10.5,18.7-21.1v0
	C1290.8,681.3,1280.9,671.5,1268.7,671.6z M1247,695.1c-2,0.7-4,1-6.1,1c-10.5,0-19-8.4-19.1-18.9s8.4-19,18.9-19.1
	c9.2,0,17,6.5,18.7,15.5c-7.7,3.6-12.6,11.4-12.6,19.9C1246.9,694,1246.9,694.6,1247,695.1z M1259.8,679.2
	C1259.8,679.2,1259.8,679.2,1259.8,679.2L1259.8,679.2C1259.8,679.2,1259.8,679.2,1259.8,679.2c-0.6,5.4-3.4,10.2-7.8,13.4
	C1252.2,687.1,1255.2,682.1,1259.8,679.2z M1277.2,708.3c-2.6,1.4-5.5,2.1-8.4,2.1l0,0c-9.2-0.1-16.7-7.4-16.9-16.6
	c5.2-3.4,8.5-9.1,8.9-15.3c8.2-4.5,18.6-1.5,23.1,6.7S1285.5,703.8,1277.2,708.3z"/>
<path fill="#19A488" d="M1142.8,673.9h-27.4v-14.4h-39.7v39.7h25.9V715c0,1.4,1.1,2.5,2.5,2.5c0,0,0,0,0,0h38.7
	c1.4,0,2.5-1.1,2.5-2.5v-38.7C1145.3,675,1144.2,673.9,1142.8,673.9z M1104.1,673.8c-1.4,0-2.5,1.1-2.5,2.5v21.9l-24.9,0v-37.7h37.7
	v13.3H1104.1z M1114.4,678.9v19.4h-7.8v-19.4H1114.4z M1140.3,712.6h-33.7v-13.3h8.8v-20.4h24.9V712.6z"/>
<path fill="#19A488" d="M664.6,530.1h38.7c1.4,0,2.5-1.1,2.5-2.5v-38.7c0-1.4-1.1-2.5-2.5-2.5h-27.4v-14.3h-39.7v39.7h25.9v15.8
	C662.1,529,663.2,530.1,664.6,530.1z M675.9,491.4h24.9v33.7h-33.7v-13.3h8.8V491.4z M667.1,510.8v-19.4h7.8v19.4H667.1z
	 M637.2,510.8v-37.7h37.7v13.3h-10.3c-1.4,0-2.5,1.1-2.5,2.5v21.9H637.2z"/>
<path fill="#19A488" d="M937.2,765.3c-4,0-5.6-2.6-7.9-6.9c-2-3.6-4.4-8.1-9.8-8.1s-7.9,4.5-9.8,8.1c-2.3,4.3-3.9,6.9-7.9,6.9
	s-5.6-2.6-7.9-6.9c-2-3.6-4.4-8.1-9.8-8.1s-7.9,4.5-9.8,8.1c-2.3,4.3-3.9,6.9-7.9,6.9c-1.4,0-2.5,1.1-2.5,2.5s1.1,2.5,2.5,2.5
	c7.2,0,10.2-5.5,12.3-9.5c2.1-3.8,3.2-5.5,5.4-5.5s3.4,1.7,5.4,5.5c2.2,4,5.1,9.5,12.3,9.5s10.2-5.5,12.3-9.5
	c2.1-3.8,3.2-5.5,5.4-5.5s3.4,1.7,5.4,5.5c2.2,4,5.1,9.5,12.3,9.5c1.4,0,2.5-1.1,2.5-2.5S938.6,765.3,937.2,765.3z"/>
<path fill="#19A488" d="M764.9,491.3c7.2,0,10.2-5.5,12.3-9.5c2.1-3.8,3.2-5.5,5.4-5.5s3.4,1.7,5.4,5.5c2.2,4,5.1,9.5,12.3,9.5
	s10.2-5.5,12.3-9.5c2.1-3.8,3.2-5.5,5.5-5.5s3.4,1.7,5.4,5.5c2.2,4,5.1,9.5,12.3,9.5c1.4,0,2.5-1.1,2.5-2.5s-1.1-2.5-2.5-2.5
	c-4,0-5.6-2.6-7.9-6.9c-2-3.6-4.4-8.1-9.8-8.1s-7.9,4.5-9.8,8.1c-2.3,4.3-3.9,6.9-7.9,6.9s-5.6-2.6-7.9-6.9c-2-3.6-4.4-8.1-9.8-8.1
	c-5.5,0-7.9,4.5-9.8,8.1c-2.3,4.3-3.9,6.9-7.9,6.9c-1.4,0-2.5,1.1-2.5,2.5S763.5,491.3,764.9,491.3z"/>
<path fill="#19A488" d="M747.6,665.1c0-7.2-5.5-10.2-9.5-12.3c-3.8-2.1-5.5-3.2-5.5-5.4s1.7-3.4,5.5-5.4c4-2.2,9.5-5.1,9.5-12.3
	s-5.5-10.2-9.5-12.3c-3.8-2.1-5.5-3.2-5.5-5.4s1.7-3.4,5.5-5.4c4-2.2,9.5-5.1,9.5-12.3c0-1.4-1.1-2.5-2.5-2.5s-2.5,1.1-2.5,2.5
	c0,4-2.6,5.6-6.9,7.9c-3.6,2-8.1,4.4-8.1,9.8s4.5,7.9,8.1,9.8c4.3,2.3,6.9,3.9,6.9,7.9s-2.6,5.7-6.9,7.9c-3.6,2-8.1,4.4-8.1,9.8
	s4.5,7.9,8.1,9.8c4.3,2.3,6.9,3.9,6.9,7.9c0,1.4,1.1,2.5,2.5,2.5S747.6,666.5,747.6,665.1z"/>
<path fill="#19A488" d="M1104.6,578.4c4-2.2,9.5-5.1,9.5-12.3c0-1.4-1.1-2.5-2.5-2.5s-2.5,1.1-2.5,2.5c0,4-2.6,5.6-6.9,7.9
	c-3.6,2-8.1,4.4-8.1,9.8s4.5,7.9,8.1,9.8c4.3,2.3,6.9,3.9,6.9,7.9s-2.6,5.6-6.9,7.9c-3.6,2-8.1,4.4-8.1,9.8s4.5,7.9,8.1,9.8
	c4.3,2.3,6.9,3.9,6.9,7.9c0,1.4,1.1,2.5,2.5,2.5s2.5-1.1,2.5-2.5c0-7.2-5.5-10.2-9.5-12.3c-3.8-2.1-5.5-3.2-5.5-5.4s1.7-3.4,5.5-5.4
	c4-2.2,9.5-5.1,9.5-12.3s-5.5-10.2-9.5-12.3c-3.8-2.1-5.5-3.2-5.5-5.4S1100.8,580.4,1104.6,578.4z"/>
<path fill="#19A488" d="M879.4,712.9c0-1.4-1.1-2.5-2.5-2.5H833c-1.4,0-2.5,1.1-2.5,2.5s1.1,2.5,2.5,2.5h43.8
	C878.2,715.4,879.4,714.3,879.4,712.9z"/>
<path fill="#19A488" d="M1135.6,488.9c0-1.4-1.1-2.5-2.5-2.5h-43.8c-1.4,0-2.5,1.1-2.5,2.5s1.1,2.5,2.5,2.5h43.8
	C1134.5,491.4,1135.6,490.3,1135.6,488.9z"/>
<path fill="#19A488" d="M1018.7,571.8l-31,31c-1,1-1,2.6,0,3.5c0.5,0.5,1.1,0.7,1.8,0.7l0,0c0.7,0,1.3-0.3,1.8-0.7l31-31
	c1-1,0.9-2.6-0.1-3.5C1021.3,570.9,1019.7,570.9,1018.7,571.8z"/>
<path fill="#19A488" d="M680.6,795.3c1-1,1-2.6,0-3.5c-1-1-2.6-1-3.5,0h0l-31,31c-1,1-1,2.6,0,3.5c0.3,0.3,0.8,0.6,1.2,0.7h1.1
	c0.5-0.1,0.9-0.3,1.2-0.7L680.6,795.3z"/>
<path fill="#19A488" d="M818.9,622.5l4.8,8.4l12.8,22.2c0.4,0.8,1.3,1.2,2.2,1.3c0.9,0,1.7-0.5,2.2-1.3l25.6-44.4
	c0.7-1.2,0.3-2.7-0.9-3.4c-0.4-0.2-0.8-0.3-1.3-0.3h-35.3l8.3-14.4h-53l26.6,46L818.9,622.5z M817.4,609.9h7.6l-3.8,6.6L817.4,609.9
	z M860,609.9l-21.3,36.9l-10.7-18.5l-6.3-10.8l4.4-7.6L860,609.9z M835.6,591.6l-7.7,13.3h-14.8c-1.4,0-2.5,1.1-2.5,2.5
	c0,0.4,0.1,0.9,0.3,1.3l7.4,12.8l-7.4,13l-24.9-42.9H835.6z"/>
<path fill="#19A488" d="M1049,800.3h-1c0,6.2-3.1,12-8.2,15.6c-0.4-1.3-1.8-2-3.1-1.6c-1,0.3-1.7,1.3-1.7,2.4c0,0.5,0,1.1,0.1,1.6
	c-9.9,3.4-20.6-1.9-24-11.8c-0.7-2-1-4.1-1-6.2h-1c0,11,8.9,20,20,20c0,0,0,0,0,0c2.1,0,4.1-0.4,6.1-1c0.4,2.8,1.4,5.4,2.7,7.7h5.9
	c-2.2-2.8-3.6-6.2-3.7-10.1C1045.6,813.3,1049,807,1049,800.3z"/>
<path fill="#19A488" d="M1076.4,814.1c-1.4,0-2.5,1.1-2.5,2.5c-0.1,3.9-1.5,7.5-3.7,10.4h5.8c1.8-3.1,2.9-6.6,3-10.4
	C1078.9,815.2,1077.8,814.1,1076.4,814.1z"/>
<path fill="#19A488" d="M1251.2,491.9C1251.2,491.9,1251.2,491.9,1251.2,491.9c0-11-9-19.9-20-19.9c0,0,0,0,0,0v1
	c10.4-0.2,19.1,8,19.3,18.4c0.2,10.4-8,19.1-18.4,19.3c-0.3,0-0.6,0-0.9,0v1C1242.2,511.8,1251.2,502.9,1251.2,491.9z"/>
<path fill="#19A488" d="M873.8,751.9c6,0,8.4-4.5,10.6-8.4c1.9-3.5,3.5-6.5,7.2-6.5s5.3,3,7.2,6.5c2.1,4,4.5,8.4,10.6,8.4v-1
	c-5.4,0-7.6-4-9.7-7.9c-1.9-3.5-3.8-7.1-8.1-7.1s-6.2,3.6-8.1,7.1c-2.1,3.9-4.3,7.9-9.7,7.9s-7.6-4-9.7-7.9
	c-1.9-3.5-3.8-7.1-8.1-7.1s-6.2,3.6-8.1,7.1c-2.1,3.9-4.3,7.9-9.7,7.9v1c6,0,8.4-4.5,10.6-8.4c1.9-3.5,3.5-6.5,7.2-6.5
	s5.3,3,7.2,6.5C865.3,747.5,867.8,751.9,873.8,751.9z"/>
<path fill="#19A488" d="M737,472.9c6,0,8.4-4.5,10.6-8.4c1.9-3.5,3.5-6.5,7.2-6.5s5.3,3,7.2,6.5c2.1,4,4.5,8.4,10.6,8.4
	s8.4-4.4,10.6-8.4c1.9-3.5,3.5-6.5,7.2-6.5s5.3,3,7.2,6.5c2.1,4,4.6,8.4,10.6,8.4v-1c-5.4,0-7.6-4-9.7-7.9c-1.9-3.5-3.8-7.1-8.1-7.1
	s-6.2,3.6-8.1,7.1c-2.1,3.9-4.3,7.9-9.7,7.9s-7.6-4-9.7-7.9c-1.9-3.5-3.8-7.1-8.1-7.1c-4.3,0-6.2,3.6-8.1,7.1
	c-2.1,3.9-4.3,7.9-9.7,7.9V472.9z"/>
<path fill="#19A488" d="M709.2,588.3c4-2.1,8.4-4.5,8.4-10.6h-1c0,5.4-4,7.6-7.9,9.7c-3.5,1.9-7.1,3.8-7.1,8.1s3.6,6.2,7.1,8.1
	c3.9,2.1,7.9,4.3,7.9,9.7s-4,7.6-7.9,9.7c-3.5,1.9-7.1,3.8-7.1,8.1s3.6,6.2,7.1,8.1c3.9,2.1,7.9,4.3,7.9,9.7h1c0-6-4.5-8.4-8.4-10.6
	c-3.5-1.9-6.5-3.5-6.5-7.2s3-5.3,6.5-7.2c4-2.1,8.4-4.5,8.4-10.6s-4.5-8.4-8.4-10.6c-3.5-1.9-6.5-3.5-6.5-7.2
	S705.7,590.2,709.2,588.3z"/>
<path fill="#19A488" d="M1083.2,620.8h1c0-6-4.5-8.4-8.4-10.6c-3.5-1.9-6.5-3.5-6.5-7.2s3-5.3,6.5-7.2c4-2.1,8.4-4.5,8.4-10.6
	s-4.5-8.4-8.4-10.6c-3.5-1.9-6.5-3.5-6.5-7.2s3-5.3,6.5-7.2c4-2.1,8.4-4.5,8.4-10.6h-1c0,5.4-4,7.6-7.9,9.7
	c-3.5,1.9-7.1,3.8-7.1,8.1s3.6,6.2,7.1,8.1c3.9,2.1,7.9,4.3,7.9,9.7s-4,7.6-7.9,9.7c-3.5,1.9-7.1,3.8-7.1,8.1s3.6,6.2,7.1,8.1
	C1079.1,613.2,1083.2,615.4,1083.2,620.8z"/>
<rect x="805.1" y="696.1" fill="#19A488" width="43.8" height="1"/>
<rect x="1236.2" y="822.8" fill="#19A488" width="43.8" height="1"/>
<rect x="1061.4" y="472" fill="#19A488" width="43.8" height="1"/>
<rect x="955.2" y="572.3" transform="matrix(0.7071 -0.7071 0.7071 0.7071 -118.8229 858.6493)" fill="#19A488" width="43.8" height="1"/>
<rect x="613.5" y="792.3" transform="matrix(0.7071 -0.7071 0.7071 0.7071 -374.4557 681.5453)" fill="#19A488" width="43.8" height="1"/>
<path fill="#19A488" d="M915,605.7c-2.6-0.6-5.4-0.1-7.7,1.3c-4.7,3-6.2,9.3-3.2,14c1.4,2.3,3.7,3.9,6.3,4.5
	c0.7,0.2,1.5,0.3,2.3,0.3c5.6,0,10.2-4.5,10.2-10.2C923,610.9,919.7,606.7,915,605.7L915,605.7z M917.8,616.7
	c-0.6,2.8-3.4,4.5-6.2,3.9c-1.3-0.3-2.5-1.1-3.2-2.3c-1.5-2.4-0.8-5.6,1.6-7.1c1.2-0.7,2.6-1,3.9-0.7
	C916.7,611.2,918.4,613.9,917.8,616.7z"/>
<path fill="#19A488" d="M981.8,821C981.8,821,981.8,821,981.8,821c-3-4.7-9.3-6.2-14-3.2c-3.3,2-5,5.6-4.7,9.2h5
	c-0.2-1.9,0.6-3.9,2.4-5c2.4-1.5,5.6-0.8,7.1,1.6c0.6,1,0.9,2.2,0.7,3.4h5C983.4,825,982.9,822.8,981.8,821z"/>
<path fill="#19A488" d="M1249.3,771.8c5.6,0,10.1-4.6,10.1-10.2c0-5.6-4.6-10.1-10.2-10.1c-1.9,0-3.8,0.5-5.4,1.5
	c-4.7,3-6.2,9.3-3.2,14c1.4,2.3,3.7,3.9,6.3,4.5v0C1247.8,771.7,1248.6,771.8,1249.3,771.8z M1244.9,764.5c-1.6-2.4-0.9-5.6,1.5-7.1
	c0.1,0,0.1-0.1,0.2-0.1c2.4-1.6,5.6-0.9,7.1,1.5c1.6,2.4,0.9,5.6-1.5,7.1c-0.1,0-0.1,0.1-0.2,0.1
	C1249.7,767.5,1246.5,766.9,1244.9,764.5z"/>
<path fill="#19A488" d="M632.5,739c3,4.8,9.3,6.2,14,3.2c4.8-3,6.2-9.3,3.2-14c0,0,0,0,0,0c-3-4.7-9.2-6.2-13.9-3.2c0,0,0,0-0.1,0h0
	C630.9,727.9,629.5,734.2,632.5,739z M636,732.4c0.3-1.3,1.1-2.5,2.3-3.2c2.4-1.5,5.6-0.8,7.1,1.6s0.8,5.6-1.6,7.1
	c-2.4,1.5-5.6,0.8-7.1-1.6C636,735.2,635.7,733.8,636,732.4z"/>
<path fill="#19A488" d="M1883.7,696.2c0.9-1,0.9-2.6-0.1-3.5l-7.5-7l7-7.5c0.9-1,0.9-2.6-0.1-3.5c-1-0.9-2.6-0.9-3.5,0.1l-7,7.5
	l-7.5-7c-1-1-2.5-1-3.5-0.1c-1,1-1,2.5-0.1,3.5c0.1,0.1,0.1,0.1,0.2,0.2l7.5,7l-7,7.5c-0.9,1-0.9,2.6,0.1,3.5c0,0,0,0,0,0
	c1,0.9,2.6,0.9,3.5-0.1c0,0,0,0,0,0l7-7.5l7.5,7C1881.2,697.3,1882.8,697.2,1883.7,696.2z"/>
<path fill="#19A488" d="M1607.9,707.1l7-7.5c0.9-1,0.9-2.6-0.1-3.5c-1-0.9-2.6-0.9-3.5,0.1l-7,7.5l-7.5-7c-1-1-2.5-1-3.5-0.1
	c-1,1-1,2.5-0.1,3.5c0.1,0.1,0.1,0.1,0.2,0.2l7.5,7l-7,7.5c-0.9,1-0.9,2.6,0.1,3.5c1,0.9,2.6,0.9,3.5-0.1c0,0,0,0,0,0l7-7.5l7.5,7
	c1,0.9,2.6,0.8,3.5-0.3c0.8-1,0.8-2.4-0.1-3.4L1607.9,707.1z"/>
<path fill="#19A488" d="M1444.1,491.5c0.5,0.4,1.1,0.7,1.7,0.7c0.7,0,1.4-0.3,1.8-0.8l7-7.5l7.5,7c1,0.9,2.6,0.9,3.5-0.1
	c0.9-1,0.9-2.6-0.1-3.5l-7.5-7l7-7.5c0.9-1,0.9-2.6-0.1-3.5c0,0,0,0,0,0c-1-0.9-2.6-0.9-3.5,0.1c0,0,0,0,0,0l-7,7.5l-7.5-7
	c-1-0.9-2.6-0.9-3.5,0.1s-0.9,2.6,0.1,3.5l7.5,7l-7,7.5C1443,489,1443.1,490.5,1444.1,491.5z"/>
<path fill="#19A488" d="M1894.6,472.3l-7,7.5c-0.9,1-0.9,2.6,0.1,3.5c1,0.9,2.6,0.9,3.5-0.1l7-7.5l7.5,7c0.5,0.4,1.1,0.7,1.7,0.7
	c1.4,0,2.5-1.1,2.5-2.5c0-0.7-0.3-1.3-0.8-1.8l-7.5-7l7-7.5c0.9-1,0.9-2.6-0.1-3.5c-1-0.9-2.6-0.9-3.5,0.1l-7,7.5l-7.5-7
	c-1-0.9-2.6-0.9-3.5,0.1s-0.9,2.6,0.1,3.5L1894.6,472.3z"/>
<polygon fill="#19A488" points="1796.8,827 1797.9,827 1797.9,824 1803.1,827 1805,827 1796.8,822.3 "/>
<path fill="#19A488" d="M1860.6,820.8c0-0.9-0.5-1.7-1.3-2.2l-44.4-25.6c-1.2-0.7-2.7-0.3-3.4,0.9c-0.2,0.4-0.3,0.8-0.3,1.3V827h5
	l0-27.4l36.9,21.3l-10.7,6.1h10l6.9-4C1860.1,822.6,1860.6,821.7,1860.6,820.8z"/>
<path fill="#19A488" d="M1557.3,798.2l30.6-17.7c0.8-0.4,1.3-1.2,1.3-2.1c0-0.9-0.5-1.7-1.3-2.2l-44.4-25.6
	c-1.2-0.7-2.7-0.3-3.4,0.9c-0.2,0.4-0.3,0.8-0.3,1.2v35.3l-14.3-8.3V827h1.1v-45.4l13.3,7.7v14.8c0,0.9,0.5,1.7,1.3,2.2
	c0.8,0.4,1.7,0.4,2.5,0l12.8-7.4l13,7.5l-35.8,20.7h1.9l35.8-20.7L1557.3,798.2z M1544.8,799.8v-7.6l6.6,3.8L1544.8,799.8z
	 M1552.4,795.4l-7.6-4.4v-33.8l36.9,21.3l-18.5,10.7L1552.4,795.4z"/>
<path fill="#19A488" d="M1693.8,558.5h-51.3c-1.4,0-2.5,1.1-2.5,2.5c0,0.4,0.1,0.9,0.3,1.3l15.1,26.1h-30.1l26.6,45.9l15.3-26.6
	c0.3,0.1,0.7,0.2,1,0.2c0.9,0,1.7-0.5,2.2-1.3l25.6-44.4c0.4-0.8,0.4-1.7,0-2.4C1695.5,558.9,1694.7,558.5,1693.8,558.5z
	 M1651.9,632.3l-24.8-42.9h29l10,17.3c0.1,0.2,0.2,0.3,0.3,0.5L1651.9,632.3z M1668.3,600.4l-6.4-11h12.7L1668.3,600.4z
	 M1675.2,588.4h-13.9l-3.7-6.4l-10.7-18.5h42.6L1675.2,588.4z"/>
<path fill="#19A488" d="M1892.4,758.8c0,3,0.6,6,1.7,8.8c-10.8,2.2-17.8,12.7-15.6,23.6s12.7,17.8,23.6,15.6s17.8-12.7,15.6-23.6
	c-0.1-0.7-0.3-1.5-0.6-2.2c1-0.1,1.9-0.3,2.8-0.6v-5.2c-1.7,0.6-3.4,0.9-5.2,0.9c-3.4-5.2-9.1-8.5-15.3-8.9
	c-4.5-8.3-1.4-18.6,6.9-23c4.3-2.3,9.3-2.6,13.6-1.1v-5.4c-1.7-0.4-3.5-0.7-5.3-0.7C1902.5,736.9,1892.5,746.7,1892.4,758.8z
	 M1900.1,768.3C1900.1,768.3,1900.2,768.3,1900.1,768.3c5.4,0.6,10.3,3.4,13.4,7.9C1908.1,775.9,1903.1,773,1900.1,768.3
	C1900.1,768.3,1900.1,768.3,1900.1,768.3L1900.1,768.3z M1914.5,781.2c0.6,0,1.1,0,1.6-0.1c0.7,1.9,1,4,1,6c0,10.5-8.4,19-18.9,19.1
	c-10.5,0-19-8.4-19.1-18.9c0-9.2,6.5-17,15.5-18.7C1898.2,776.3,1905.9,781.2,1914.5,781.2z"/>
<path fill="#19A488" d="M1340.5,749.4c-12.1-0.1-22.1,9.6-22.3,21.7c0,3,0.6,6.1,1.7,8.9c-10.8,2.2-17.8,12.7-15.6,23.6
	s12.7,17.8,23.6,15.6c10.8-2.2,17.8-12.7,15.6-23.6c-0.1-0.7-0.3-1.5-0.6-2.2c11-1.4,19.2-10.7,19.3-21.8
	C1362.4,759.5,1352.7,749.6,1340.5,749.4z M1324,818.7c-10.5,0-19-8.4-19.1-18.9c0-9.2,6.5-17.1,15.5-18.7
	c3.6,7.7,11.4,12.7,19.9,12.7c0.6,0,1.1,0,1.6-0.1c0.7,1.9,1,4,1,6C1343,810.1,1334.5,818.6,1324,818.7z M1326,780.7L1326,780.7
	C1326,780.7,1326,780.7,1326,780.7c5.4,0.6,10.3,3.4,13.4,7.9C1333.9,788.3,1328.9,785.4,1326,780.7
	C1326,780.7,1326,780.7,1326,780.7z M1340.7,788.6L1340.7,788.6c-3.4-5.2-9.1-8.5-15.3-8.9c-1.3-2.5-2-5.2-2-8
	c0-9.4,7.6-17,16.9-17.1c9.4,0,17,7.6,17.1,16.9C1357.4,780.9,1350,788.5,1340.7,788.6z"/>
<path fill="#19A488" d="M1668.2,685.5L1668.2,685.5c-1.4,0-2.5,1.1-2.5,2.5s1.1,2.5,2.5,2.5c9.4,0.1,16.9,7.8,16.7,17.2
	c-0.1,9.1-7.3,16.4-16.4,16.7c-3.7-5.6-9.9-9-16.7-9v1c6.2,0,12,3,15.6,8.2c-1.3,0.4-2,1.9-1.6,3.2c0.3,1,1.3,1.7,2.4,1.7
	c0.6,0,1.1,0,1.6-0.1c0.7,1.9,1,4,1,6c0,10.5-8.5,19-18.9,19v1c11,0,20-8.9,20-19.9c0-2.1-0.3-4.1-1-6.1c12-1.8,20.3-13,18.4-25.1
	C1687.7,693.6,1678.8,685.8,1668.2,685.5z"/>
<path fill="#19A488" d="M1848.1,502.6c0-12.1-9.9-21.9-22-21.9c-1.4,0-2.5,1.1-2.5,2.5s1.1,2.5,2.5,2.5c9.3-0.1,16.9,7.4,17,16.7
	s-7.4,16.9-16.7,17c-3.7-5.5-9.9-8.8-16.6-8.8v1c6.1,0,11.9,3,15.5,8c-1.3,0.5-1.9,1.9-1.5,3.2c0.4,1,1.3,1.6,2.3,1.6
	c0.5,0,1.1,0,1.6-0.1c0.7,2,1,4,1,6.1c0,10.5-8.5,18.9-19,18.9c0,0,0,0,0,0v1c11,0,20-8.9,20-19.9c0,0,0,0,0,0c0-2.1-0.3-4.2-1-6.2
	C1839.7,523.1,1848.1,513.7,1848.1,502.6z"/>
<path fill="#19A488" d="M1379.1,507.7c1.4,0,2.5-1.1,2.5-2.5c0.3-12.1-9.3-22.1-21.4-22.3s-22.1,9.3-22.3,21.4c0,0.3,0,0.6,0,0.9
	c0,1.4,1.1,2.5,2.5,2.5s2.5-1.1,2.5-2.5c-0.2-9.3,7.1-17,16.5-17.3s17,7.1,17.3,16.5c0,0.3,0,0.5,0,0.8
	C1376.6,506.6,1377.8,507.7,1379.1,507.7z"/>
<path fill="#19A488" d="M1532.7,543c10.8-2.2,17.8-12.7,15.6-23.6c-0.1-0.7-0.3-1.5-0.6-2.2c12.1-1.5,20.7-12.4,19.2-24.5
	c-1.5-12.1-12.4-20.7-24.5-19.2c-11.1,1.3-19.4,10.8-19.3,21.9c0,2.9,0.6,5.7,1.7,8.3c-10.8,2.2-17.8,12.7-15.6,23.6
	C1511.3,538.2,1521.8,545.2,1532.7,543z M1543.8,477.3c9.4-0.7,17.5,6.4,18.2,15.7c0.1,0.8,0.1,1.6,0,2.5h0
	c0,9.2-7.4,16.7-16.6,16.9c-3.4-5.2-9.1-8.5-15.3-8.9c-1.3-2.5-2-5.2-2-8C1527.4,486.1,1534.4,478,1543.8,477.3z M1544.1,512.4
	c-5.5-0.3-10.5-3.2-13.4-7.9C1536.1,505.1,1541,508,1544.1,512.4z M1525.1,504.8c3.6,7.7,11.4,12.7,19.9,12.7c0.5,0,1.1,0,1.6-0.1
	c0.7,1.9,1,3.9,1,6v0c0,10.5-8.4,19-18.9,19.1c-10.5,0-19-8.4-19.1-18.9C1509.6,514.4,1516.1,506.5,1525.1,504.8z"/>
<path fill="#19A488" d="M1797.8,664.7h15.8c1.4,0,2.5-1.1,2.5-2.5l0-38.7c0-1.4-1.1-2.5-2.5-2.5h-38.7c-1.4,0-2.5,1.1-2.5,2.5v27.4
	h-14.3v39.7h39.7V664.7z M1777.4,626h33.7v33.7h-13.3v-8.8h-20.4V626z M1796.8,689.6h-37.7v-37.7h13.3v10.3c0,1.4,1.1,2.5,2.5,2.5
	h21.9V689.6z M1796.8,659.7h-19.4v-7.8h19.4V659.7z"/>
<path fill="#19A488" d="M1619.3,824.6c-1.3,0-2.4,1.1-2.5,2.4h5C1621.8,825.7,1620.7,824.6,1619.3,824.6z"/>
<path fill="#19A488" d="M1751.3,545.7c4.3,2.3,6.9,3.9,6.9,7.9c0,1.4,1.1,2.5,2.5,2.5s2.5-1.1,2.5-2.5c0-7.2-5.5-10.2-9.5-12.3
	c-3.8-2.1-5.5-3.2-5.5-5.4s1.7-3.4,5.5-5.4c4-2.2,9.5-5.1,9.5-12.3s-5.5-10.2-9.5-12.3c-3.8-2.1-5.5-3.2-5.5-5.4s1.7-3.4,5.5-5.4
	c4-2.2,9.5-5.1,9.5-12.3c0-1.4-1.1-2.5-2.5-2.5s-2.5,1.1-2.5,2.5c0,4-2.6,5.6-6.9,7.9c-3.6,2-8.1,4.4-8.1,9.8s4.5,7.9,8.1,9.8
	c4.3,2.3,6.9,3.9,6.9,7.9s-2.6,5.6-6.9,7.9c-3.6,2-8.1,4.4-8.1,9.8S1747.7,543.8,1751.3,545.7z"/>
<path fill="#19A488" d="M1813.7,721.3c-7.2,0-10.2,5.5-12.3,9.5c-2.1,3.8-3.2,5.5-5.4,5.5s-3.4-1.7-5.4-5.5c-2.2-4-5.1-9.5-12.3-9.5
	s-10.2,5.5-12.3,9.5c-2.1,3.8-3.2,5.5-5.4,5.5s-3.4-1.7-5.4-5.5c-2.2-4-5.1-9.5-12.3-9.5c-1.4,0-2.5,1.1-2.5,2.5s1.1,2.5,2.5,2.5h0
	c4,0,5.6,2.6,7.9,6.9c2,3.6,4.4,8.1,9.8,8.1s7.9-4.5,9.8-8.1c2.3-4.3,3.9-6.9,7.9-6.9s5.6,2.6,7.9,6.9c2,3.6,4.4,8.1,9.8,8.1
	s7.9-4.5,9.8-8.1c2.3-4.3,3.9-6.9,7.9-6.9c1.4,0,2.5-1.1,2.5-2.5S1815,721.3,1813.7,721.3z"/>
<path fill="#19A488" d="M1488.7,650.2c-7.2,0-10.2,5.5-12.3,9.5c-2.1,3.8-3.2,5.5-5.4,5.5s-3.4-1.7-5.4-5.5c-2.2-4-5.1-9.5-12.3-9.5
	s-10.2,5.5-12.3,9.5c-2.1,3.8-3.2,5.5-5.4,5.5s-3.4-1.7-5.4-5.5c-2.2-4-5.1-9.5-12.3-9.5c-1.4,0-2.5,1.1-2.5,2.5s1.1,2.5,2.5,2.5
	c4,0,5.6,2.6,7.9,6.9c2,3.6,4.4,8.1,9.8,8.1s7.9-4.5,9.8-8.1c2.3-4.3,3.9-6.9,7.9-6.9s5.6,2.6,7.9,6.9c2,3.6,4.4,8.1,9.8,8.1
	s7.9-4.5,9.8-8.1c2.3-4.3,3.9-6.9,7.9-6.9c1.4,0,2.5-1.1,2.5-2.5S1490.1,650.2,1488.7,650.2z"/>
<path fill="#19A488" d="M1693.7,500.2L1693.7,500.2v-43.8c0-1.4-1.1-2.5-2.5-2.5s-2.5,1.1-2.5,2.5v43.8c0,1.4,1.1,2.5,2.5,2.5
	S1693.7,501.6,1693.7,500.2z"/>
<path fill="#19A488" d="M1337.9,631.2V675c0,1.4,1.1,2.5,2.5,2.5s2.5-1.1,2.5-2.5v-43.8c0-1.4-1.1-2.5-2.5-2.5
	S1337.9,629.8,1337.9,631.2z"/>
<path fill="#19A488" d="M1426.9,742c-1-1-2.6-0.9-3.5,0.1c-0.9,1-0.9,2.5,0,3.5l31,31c0.5,0.5,1.1,0.7,1.8,0.7
	c0.7,0,1.3-0.3,1.8-0.7c1-1,1-2.6,0-3.5L1426.9,742z"/>
<polygon fill="#19A488" points="1920,628.9 1920,627.9 1899,622.3 1920,601.4 1920,600 1897.2,622.9 "/>
<path fill="#19A488" d="M1912.7,596.5c0.3,0.3,0.7,0.5,1.1,0.6l6.2,1.7v-5.2l-0.7-0.2l0.7-0.7v-7.1l-7.3,7.3
	C1911.7,593.9,1911.7,595.5,1912.7,596.5z"/>
<path fill="#19A488" d="M1428.7,592.9c0.7,0,1.3-0.3,1.8-0.7c0.6-0.6,0.9-1.5,0.7-2.4l-13.3-49.5c-0.4-1.3-1.7-2.1-3.1-1.8
	c-0.4,0.1-0.8,0.3-1.1,0.6l-36.2,36.3c-1,1-1,2.6,0,3.5c0.3,0.3,0.7,0.5,1.1,0.6l7.1,1.9l-23.8,23.8l51.2,13.7l-8.7-32.5l23.7,6.3
	C1428.2,592.9,1428.5,592.9,1428.7,592.9z M1411.6,617.6l-47.9-12.8l23-23l16.4,4.4L1411.6,617.6z M1390.8,577.7l7.9-8l2.9,10.9
	L1390.8,577.7z M1404.5,581.3l-1.7-0.5l-3.5-13.1l-9.6,9.6l-5.8-1.5l30.1-30.2l11.1,41.2L1404.5,581.3z"/>
<path fill="#19A488" d="M1362.3,532.2c0,0.3,0,0.6,0,0.9h1c0.2-11-8.4-20.1-19.4-20.3c-11-0.2-20.1,8.4-20.3,19.4c0,0.3,0,0.6,0,0.9
	h1c-0.2-10.4,8-19.1,18.4-19.3C1353.4,513.5,1362.1,521.8,1362.3,532.2z"/>
<path fill="#19A488" d="M1566.6,619h-38.7c-1.4,0-2.5,1.1-2.5,2.5v27.4h-14.3v39.7h39.7l0-25.9h15.8c1.4,0,2.5-1.1,2.5-2.5v-38.7
	C1569.1,620.1,1568,619,1566.6,619z M1549.8,687.6h-37.7v-37.7h13.3v10.3c0,1.4,1.1,2.5,2.5,2.5h21.9V687.6z M1549.8,657.7h-19.4
	v-7.8h19.4V657.7z M1564.1,657.7h-13.3v-8.8h-20.4V624h33.7V657.7z"/>
<path fill="#19A488" d="M1736.4,556.6c4-2.1,8.4-4.5,8.4-10.6s-4.5-8.4-8.4-10.6c-3.5-1.9-6.5-3.5-6.5-7.2s3-5.3,6.5-7.2
	c4-2.1,8.4-4.5,8.4-10.6h-1c0,5.4-4,7.6-7.9,9.7c-3.5,1.9-7.1,3.8-7.1,8.1s3.6,6.2,7.1,8.1c3.9,2.1,7.9,4.3,7.9,9.7s-4,7.6-7.9,9.7
	c-3.5,1.9-7.1,3.8-7.1,8.1s3.6,6.2,7.1,8.1c3.9,2.1,7.9,4.3,7.9,9.7h1c0-6-4.5-8.4-8.4-10.6c-3.5-1.9-6.5-3.5-6.5-7.2
	S1732.9,558.5,1736.4,556.6z"/>
<path fill="#19A488" d="M1786.7,759.7c-1.9,3.5-3.5,6.5-7.2,6.5s-5.3-3-7.2-6.5c-2.1-4-4.6-8.4-10.6-8.4s-8.4,4.5-10.6,8.4
	c-1.9,3.5-3.5,6.5-7.2,6.5s-5.3-3-7.2-6.5c-2.1-4-4.6-8.4-10.6-8.4v1c5.4,0,7.6,4,9.7,7.9c1.9,3.5,3.8,7.1,8.1,7.1s6.2-3.6,8.1-7.1
	c2.1-3.9,4.3-7.9,9.7-7.9s7.6,4,9.7,7.9c1.9,3.5,3.8,7.1,8.1,7.1s6.2-3.6,8.1-7.1c2.1-3.9,4.3-7.9,9.7-7.9v-1
	C1791.3,751.2,1788.9,755.7,1786.7,759.7z"/>
<path fill="#19A488" d="M1461.8,688.6c-1.9,3.5-3.5,6.5-7.2,6.5s-5.3-3-7.2-6.5c-2.1-4-4.6-8.4-10.6-8.4s-8.4,4.5-10.6,8.4
	c-1.9,3.5-3.5,6.5-7.2,6.5s-5.3-3-7.2-6.5c-2.1-4-4.6-8.4-10.6-8.4v1c5.4,0,7.6,4,9.7,7.9c1.9,3.5,3.8,7.1,8.1,7.1s6.2-3.6,8.1-7.1
	c2.1-3.9,4.3-7.9,9.7-7.9s7.6,4,9.7,7.9c1.9,3.5,3.8,7.1,8.1,7.1s6.2-3.6,8.1-7.1c2.1-3.9,4.3-7.9,9.7-7.9v-1
	C1466.3,680.1,1463.9,684.6,1461.8,688.6z"/>
<rect x="1674.3" y="484.3" fill="#19A488" width="1" height="43.8"/>
<rect x="1323.6" y="659.1" fill="#19A488" width="1" height="43.8"/>
<rect x="1423.8" y="765.3" transform="matrix(0.7071 -0.7071 0.7071 0.7071 -139.465 1237.7002)" fill="#19A488" width="1" height="43.8"/>
<path fill="#19A488" d="M1680.2,781.2c-5.5-1.2-10.9,2.2-12.2,7.7c-0.6,2.6-0.1,5.4,1.3,7.7c1.4,2.3,3.7,3.9,6.3,4.5
	c0.7,0.2,1.5,0.3,2.3,0.3c5.6,0,10.2-4.6,10.1-10.2C1688.1,786.4,1684.8,782.3,1680.2,781.2z M1682.9,792.2L1682.9,792.2
	C1682.9,792.3,1682.9,792.3,1682.9,792.2c-0.6,2.8-3.4,4.5-6.2,3.9c-2.8-0.6-4.5-3.4-3.9-6.2c0.6-2.8,3.4-4.5,6.2-3.9
	c1.3,0.3,2.5,1.1,3.2,2.3C1683,789.5,1683.3,790.9,1682.9,792.2C1682.9,792.3,1682.9,792.2,1682.9,792.2z"/>
<path fill="#19A488" d="M1615.3,505.1c-5.5-1.2-10.9,2.2-12.2,7.7c-0.6,2.6-0.1,5.4,1.3,7.7c1.4,2.3,3.7,3.9,6.3,4.5
	c0.7,0.2,1.5,0.3,2.3,0.3c4.7,0,8.8-3.3,9.9-7.9C1624.3,511.8,1620.8,506.3,1615.3,505.1z M1618.1,516.2c-0.3,1.3-1.1,2.5-2.3,3.2
	c-2.4,1.5-5.6,0.8-7.1-1.6c-1.5-2.4-0.8-5.6,1.6-7.1c2.4-1.5,5.6-0.8,7.1,1.6C1618.2,513.4,1618.4,514.8,1618.1,516.2z"/>
<path fill="#19A488" d="M1864.4,593.5c0-5.6-4.6-10.2-10.2-10.2c-5.6,0-10.2,4.6-10.2,10.2c0,1.9,0.5,3.8,1.6,5.4
	c1.4,2.3,3.7,3.9,6.3,4.5c0.7,0.2,1.5,0.3,2.3,0.3C1859.9,603.7,1864.5,599.1,1864.4,593.5z M1859.3,594.7c-0.6,2.8-3.4,4.5-6.2,3.9
	c-1.3-0.3-2.5-1.1-3.2-2.3c-0.7-1.2-1-2.6-0.7-3.9h0c0.6-2.8,3.4-4.5,6.2-3.9C1858.2,589.1,1859.9,591.9,1859.3,594.7z"/>
<path fill="#19A488" d="M668.9,649.7c-2.8,0-5.6,0.6-8.2,1.6c-2.2-10.8-12.7-17.8-23.6-15.6c-10.8,2.2-17.8,12.7-15.6,23.6
	c2.2,10.8,12.7,17.8,23.6,15.6c0.7-0.1,1.5-0.3,2.2-0.6c1.8,12,13,20.3,25.1,18.4c10.5-1.6,18.4-10.5,18.7-21.1v0
	C690.9,659.4,681,649.6,668.9,649.7z M647.2,673.2c-2,0.7-4,1-6.1,1c-10.5,0-19-8.4-19.1-18.9s8.4-19,18.9-19.1
	c9.2,0,17,6.5,18.7,15.5c-7.7,3.6-12.6,11.4-12.6,19.9C647.1,672.1,647.1,672.7,647.2,673.2z M659.9,657.3
	C659.9,657.3,659.9,657.3,659.9,657.3L659.9,657.3C659.9,657.3,659.9,657.3,659.9,657.3c-0.6,5.4-3.4,10.2-7.8,13.4
	C652.4,665.2,655.3,660.2,659.9,657.3z M677.4,686.4c-2.6,1.4-5.5,2.1-8.4,2.1l0,0c-9.2-0.1-16.7-7.4-16.9-16.6
	c5.2-3.4,8.5-9.1,8.9-15.3c8.2-4.5,18.6-1.5,23.1,6.7S685.6,681.8,677.4,686.4z"/>
</svg>
