<?xml version="1.0" encoding="utf-8"?>
<!-- Generator: Adobe Illustrator 22.1.0, SVG Export Plug-In . SVG Version: 6.00 Build 0)  -->
<svg version="1.1" id="Layer_1" xmlns="http://www.w3.org/2000/svg" xmlns:xlink="http://www.w3.org/1999/xlink" x="0px" y="0px"
	 viewBox="0 0 60 60" enable-background="new 0 0 60 60" xml:space="preserve">
<path id="pro" d="M53.5,0c-3.6,0-6.5,2.9-6.5,6.5c0,1.1,0.3,2.2,0.8,3.1L37,20.4c-1.5-1.2-3.3-1.8-5.3-1.8c-2,0-3.9,0.7-5.3,1.8L17.9,12
	c0.4-0.6,0.6-1.4,0.6-2.2c0-2.4-2-4.4-4.4-4.4c-2.4,0-4.4,2-4.4,4.4c0,2.4,2,4.4,4.4,4.4c0.8,0,1.6-0.2,2.2-0.6l8.4,8.4
	c-1.1,1.5-1.8,3.3-1.8,5.3s0.7,3.9,1.8,5.3L10.9,46.4c-1.2-1.1-2.7-1.7-4.4-1.7c-3.6,0-6.5,2.9-6.5,6.5c0,3.6,2.9,6.5,6.5,6.5
	c3.6,0,6.5-2.9,6.5-6.5c0-1.1-0.3-2.2-0.8-3.1l14-14c1.2,0.9,2.7,1.6,4.3,1.8V47c-3.1,0.5-5.5,3.2-5.5,6.4c0,3.6,2.9,6.5,6.5,6.5
	c3.6,0,6.5-2.9,6.5-6.5c0-3.2-2.4-5.9-5.5-6.4V35.9c1.6-0.2,3-0.8,4.3-1.8l8.4,8.4c-0.4,0.6-0.6,1.4-0.6,2.2c0,2.4,2,4.4,4.4,4.4
	c2.4,0,4.4-2,4.4-4.4c0-2.4-2-4.4-4.4-4.4c-0.8,0-1.6,0.2-2.2,0.6l-8.4-8.4c1.2-1.5,1.8-3.3,1.8-5.3s-0.7-3.9-1.8-5.3l10.5-10.5
	c1.2,1.1,2.7,1.7,4.4,1.7c3.6,0,6.5-2.9,6.5-6.5C60,2.9,57.1,0,53.5,0z M14.2,12C13,12,12,11,12,9.8c0-1.2,1-2.2,2.2-2.2
	c1.2,0,2.2,1,2.2,2.2C16.4,11,15.4,12,14.2,12z M6.5,55.6c-2.4,0-4.4-2-4.4-4.4c0-2.4,2-4.4,4.4-4.4c2.4,0,4.4,2,4.4,4.4
	C10.9,53.7,9,55.6,6.5,55.6z M49.1,42.5c1.2,0,2.2,1,2.2,2.2c0,1.2-1,2.2-2.2,2.2c-1.2,0-2.2-1-2.2-2.2
	C46.9,43.5,47.9,42.5,49.1,42.5z M36,53.5c0,2.4-2,4.4-4.4,4.4c-2.4,0-4.4-2-4.4-4.4c0-2.4,2-4.4,4.4-4.4C34,49.1,36,51,36,53.5z
	 M31.6,33.8c-3.6,0-6.5-2.9-6.5-6.5s2.9-6.5,6.5-6.5c3.6,0,6.5,2.9,6.5,6.5S35.2,33.8,31.6,33.8z M53.5,10.9c-2.4,0-4.4-2-4.4-4.4
	c0-2.4,2-4.4,4.4-4.4c2.4,0,4.4,2,4.4,4.4C57.8,9,55.9,10.9,53.5,10.9z"/>
</svg>
