<?xml version="1.0" encoding="utf-8"?>
<!-- Generator: Adobe Illustrator 22.1.0, SVG Export Plug-In . SVG Version: 6.00 Build 0)  -->
<svg version="1.1" id="Layer_1" xmlns="http://www.w3.org/2000/svg" xmlns:xlink="http://www.w3.org/1999/xlink" x="0px" y="0px"
	 viewBox="0 0 24 24" enable-background="new 0 0 24 24" xml:space="preserve">
<path id="cart" d="M9,20c0,1.1-0.9,2-2,2s-2-0.9-2-2c0-1.1,0.9-2,2-2S9,18.9,9,20z M8.1,13h7.5c0.8,0,1.4-0.4,1.8-1l3.6-6.5
	C21,5.3,21,5.2,21,5c0-0.5-0.5-1-1-1H5.2L4.3,2H1v2h2l3.6,7.6L5.3,14C5.1,14.3,5,14.6,5,15c0,1.1,0.9,2,2,2h12v-2H7.4
	c-0.1,0-0.3-0.1-0.3-0.3l0-0.1L8.1,13z M17,18c-1.1,0-2,0.9-2,2c0,1.1,0.9,2,2,2s2-0.9,2-2C19,18.9,18.1,18,17,18z"/>
</svg>
