<?xml version="1.0" encoding="utf-8"?>
<!-- Generator: Adobe Illustrator 22.1.0, SVG Export Plug-In . SVG Version: 6.00 Build 0)  -->
<svg version="1.1" id="Layer_1" xmlns="http://www.w3.org/2000/svg" xmlns:xlink="http://www.w3.org/1999/xlink" x="0px" y="0px"
	 viewBox="0 0 60 60" enable-background="new 0 0 60 60" xml:space="preserve">
<g>
	<path d="M46,40.5c-0.3,0.5-0.2,1.1,0.3,1.4c0.2,0.1,0.3,0.2,0.5,0.2c0.3,0,0.7-0.2,0.9-0.5c5.7-9.2,3.8-21.5-4.5-28.1
		c-0.4-0.3-1.1-0.3-1.4,0.2c-0.3,0.4-0.3,1.1,0.2,1.4C49.4,21,51.2,32.2,46,40.5z"/>
	<path d="M41.9,45.1c-2.1,1.7-4.8,2.9-7.6,3.6c-0.5,0.1-0.9,0.7-0.8,1.2c0.1,0.5,0.5,0.8,1,0.8c0.1,0,0.1,0,0.2,0
		c3.1-0.7,6-2.1,8.4-4c0.4-0.3,0.5-1,0.2-1.4C43,44.8,42.4,44.7,41.9,45.1z"/>
	<path d="M40.2,55.9c-3.7,1.5-7.7,2.2-11.7,2.1c-0.6,0-1,0.4-1,1c0,0.6,0.4,1,1,1c0.4,0,0.7,0,1.1,0c3.9,0,7.9-0.8,11.5-2.2
		c0.5-0.2,0.8-0.8,0.6-1.3C41.3,56,40.7,55.7,40.2,55.9z"/>
	<path d="M55.3,43.8c-0.5-0.3-1.1-0.1-1.4,0.4c-2.1,3.5-4.9,6.6-8.3,8.9c-0.5,0.3-0.6,0.9-0.3,1.4c0.2,0.3,0.5,0.4,0.8,0.4
		c0.2,0,0.4-0.1,0.6-0.2c3.6-2.5,6.7-5.8,8.9-9.5C55.9,44.7,55.8,44,55.3,43.8z"/>
	<path d="M59.6,26.3c-0.1-0.5-0.6-1-1.1-0.9c-0.6,0.1-0.9,0.6-0.9,1.1c0.5,3.8,0.1,7.7-1,11.4c-0.2,0.5,0.1,1.1,0.7,1.3
		c0.1,0,0.2,0,0.3,0c0.4,0,0.8-0.3,1-0.7C59.7,34.6,60.1,30.4,59.6,26.3z"/>
	<path d="M57.5,21.2c0.5-0.2,0.8-0.8,0.6-1.3c-0.9-2.5-2.1-4.9-3.7-7c0.9-1,1.4-2.4,1.4-3.9c0-3.3-2.7-6-6-6c-3.3,0-6,2.7-6,6
		c0,3.3,2.7,6,6,6c1.1,0,2.2-0.3,3.1-0.9c1.4,2,2.5,4.1,3.3,6.4c0.1,0.4,0.5,0.7,0.9,0.7C57.2,21.2,57.4,21.2,57.5,21.2z M52.5,11.9
		C52.5,11.9,52.5,11.9,52.5,11.9C52.5,11.9,52.5,11.9,52.5,11.9c-0.7,0.7-1.7,1.1-2.7,1.1c-2.2,0-4-1.8-4-4c0-2.2,1.8-4,4-4
		c2.2,0,4,1.8,4,4C53.8,10.1,53.3,11.2,52.5,11.9z"/>
	<path d="M21.5,56.8c-2.3-0.7-4.5-1.7-6.5-2.9c0.4-0.8,0.7-1.8,0.7-2.8c0-3.3-2.7-6-6-6c-3.3,0-6,2.7-6,6c0,3.3,2.7,6,6,6
		c1.6,0,3-0.6,4.1-1.6c2.2,1.4,4.6,2.5,7.2,3.3c0.1,0,0.2,0,0.3,0c0.4,0,0.8-0.3,1-0.7C22.4,57.6,22,57,21.5,56.8z M9.7,55.1
		c-2.2,0-4-1.8-4-4c0-2.2,1.8-4,4-4s4,1.8,4,4C13.7,53.3,11.9,55.1,9.7,55.1z"/>
	<path d="M10.7,26.4c-0.6-0.1-1.1,0.3-1.1,0.9c-0.4,3-0.1,6.1,0.8,9c0.1,0.4,0.5,0.7,1,0.7c0.1,0,0.2,0,0.3,0
		c0.5-0.2,0.8-0.7,0.7-1.3c-0.8-2.6-1-5.5-0.7-8.2C11.6,27,11.2,26.5,10.7,26.4z"/>
	<path d="M4.6,44.7c0.5-0.3,0.7-0.9,0.4-1.4c-1.4-2.7-2.4-5.7-2.8-8.8c-0.1-0.5-0.6-0.9-1.1-0.9c-0.5,0.1-0.9,0.6-0.9,1.1
		c0.5,3.3,1.5,6.5,3,9.4c0.2,0.3,0.5,0.5,0.9,0.5C4.3,44.8,4.5,44.8,4.6,44.7z"/>
	<path d="M18.9,18.7c-0.3,0.3-0.5,0.5-0.8,0.8c0,0,0,0,0,0.1c-2.5,2.9-3.9,6.6-3.9,10.5c0,3.9,1.4,7.5,3.9,10.5c0,0,0,0,0,0.1
		c0.2,0.3,0.5,0.6,0.8,0.8c3,3,7.1,4.7,11.3,4.7s8.3-1.7,11.3-4.7c0.3-0.3,0.5-0.5,0.8-0.8c0,0,0,0,0-0.1c2.5-2.9,3.9-6.6,3.9-10.5
		c0-3.9-1.4-7.5-3.9-10.5c0,0,0,0,0-0.1c-0.2-0.3-0.5-0.6-0.8-0.8c-3-3-7.1-4.7-11.3-4.7S21.9,15.7,18.9,18.7z M21.1,19.4
		c0.2-0.1,0.3-0.3,0.5-0.4c0.2-0.2,0.4-0.3,0.6-0.4c0.2-0.1,0.3-0.2,0.5-0.3c0.2-0.1,0.4-0.3,0.6-0.4c0.2-0.1,0.3-0.2,0.5-0.3
		c0.2-0.1,0.5-0.2,0.7-0.3c0.2-0.1,0.4-0.2,0.5-0.2c0.2-0.1,0.5-0.2,0.7-0.3c0.2-0.1,0.4-0.1,0.5-0.2c0.2-0.1,0.4-0.1,0.6-0.2
		c-0.1,0.1-0.2,0.2-0.4,0.3c-1.1,1.1-2,2.3-2.8,3.6c-1.1-0.2-2.1-0.5-2.9-0.7C20.9,19.6,21,19.5,21.1,19.4z M19.2,21.3
		c0.9,0.3,2.1,0.6,3.5,0.9c-1,2.1-1.6,4.4-1.7,6.8h-4.7C16.5,26.2,17.5,23.5,19.2,21.3z M16.3,31H21c0.1,2.4,0.7,4.7,1.7,6.8
		c-1.4,0.3-2.6,0.6-3.5,0.9C17.5,36.5,16.5,33.9,16.3,31z M26.3,43.5c-0.2-0.1-0.4-0.1-0.6-0.2c-0.2-0.1-0.4-0.1-0.7-0.2
		c-0.2-0.1-0.4-0.2-0.6-0.3c-0.2-0.1-0.4-0.2-0.6-0.3c-0.2-0.1-0.4-0.2-0.6-0.3c-0.2-0.1-0.4-0.2-0.6-0.4c-0.2-0.1-0.4-0.2-0.5-0.4
		c-0.2-0.1-0.4-0.3-0.6-0.4c-0.2-0.1-0.3-0.3-0.5-0.4c-0.1-0.1-0.2-0.2-0.3-0.3c0.8-0.2,1.8-0.5,2.9-0.7c0.8,1.3,1.7,2.5,2.8,3.6
		c0.1,0.1,0.2,0.2,0.4,0.3C26.7,43.6,26.5,43.6,26.3,43.5z M29.3,43.1c-0.4-0.3-0.8-0.7-1.3-1.2c-0.8-0.8-1.5-1.6-2.1-2.6
		c1.1-0.1,2.2-0.2,3.4-0.3V43.1z M29.3,37.1c-1.6,0-3.1,0.2-4.5,0.4c-1-2-1.6-4.2-1.8-6.4h6.2V37.1z M29.3,29H23
		c0.1-2.3,0.7-4.4,1.8-6.4c1.4,0.2,2.9,0.3,4.5,0.4V29z M29.3,21c-1.2,0-2.3-0.1-3.4-0.3c0.6-0.9,1.3-1.8,2.1-2.6
		c0.5-0.5,0.9-0.8,1.3-1.2V21z M39.4,40.7c-0.2,0.1-0.3,0.3-0.5,0.4c-0.2,0.2-0.4,0.3-0.6,0.4c-0.2,0.1-0.3,0.2-0.5,0.3
		c-0.2,0.1-0.4,0.3-0.6,0.4c-0.2,0.1-0.3,0.2-0.5,0.3c-0.2,0.1-0.4,0.2-0.7,0.3c-0.2,0.1-0.4,0.2-0.6,0.2c-0.2,0.1-0.5,0.2-0.7,0.2
		c-0.2,0.1-0.4,0.1-0.6,0.2c-0.2,0.1-0.4,0.1-0.6,0.2c0.1-0.1,0.2-0.2,0.4-0.3c1.1-1.1,2-2.3,2.8-3.6c1.1,0.2,2.1,0.5,2.9,0.7
		C39.6,40.5,39.5,40.6,39.4,40.7z M41.3,38.7c-0.9-0.3-2.1-0.6-3.5-0.9c1-2.1,1.6-4.4,1.7-6.8h4.7C44.1,33.9,43,36.5,41.3,38.7z
		 M44.3,29h-4.7c-0.1-2.4-0.7-4.7-1.7-6.8c1.4-0.3,2.6-0.6,3.5-0.9C43,23.5,44.1,26.2,44.3,29z M34.3,16.6c0.2,0,0.3,0.1,0.5,0.2
		c0.3,0.1,0.5,0.2,0.8,0.3c0.2,0.1,0.3,0.1,0.5,0.2c0.2,0.1,0.5,0.2,0.7,0.3c0.2,0.1,0.3,0.2,0.5,0.3c0.2,0.1,0.5,0.3,0.7,0.4
		c0.2,0.1,0.3,0.2,0.4,0.3c0.2,0.2,0.4,0.3,0.6,0.5c0.1,0.1,0.3,0.2,0.4,0.4c0.1,0.1,0.2,0.2,0.3,0.3c-0.8,0.2-1.8,0.5-2.9,0.7
		c-0.8-1.3-1.7-2.5-2.8-3.6c-0.1-0.1-0.2-0.2-0.4-0.3C33.8,16.5,34,16.5,34.3,16.6z M31.3,17c0.4,0.3,0.8,0.7,1.3,1.2
		c0.8,0.8,1.5,1.6,2.1,2.6c-1.1,0.1-2.2,0.2-3.4,0.3V17z M31.3,23c1.6,0,3.1-0.2,4.5-0.4c1,2,1.6,4.2,1.8,6.4h-6.2V23z M31.3,31h6.2
		c-0.1,2.3-0.7,4.4-1.8,6.4c-1.4-0.2-2.9-0.3-4.5-0.4V31z M31.3,39.1c1.2,0,2.3,0.1,3.4,0.3c-0.6,0.9-1.3,1.8-2.1,2.6
		c-0.5,0.5-0.9,0.8-1.3,1.2V39.1z"/>
	<path d="M13.4,21.4c1.6-3.2,4-5.8,7-7.7c0.5-0.3,0.6-0.9,0.3-1.4c-0.3-0.5-0.9-0.6-1.4-0.3c-3.4,2.1-6.1,5-7.8,8.5
		c-0.2,0.5,0,1.1,0.5,1.3c0.1,0.1,0.3,0.1,0.4,0.1C12.8,22,13.2,21.8,13.4,21.4z"/>
	<path d="M1.1,27.9c0,0,0.1,0,0.1,0c0.5,0,0.9-0.4,1-0.9c0.6-5,2.4-9.7,5.3-13.8c0.3-0.4,0.2-1.1-0.2-1.4s-1.1-0.2-1.4,0.2
		c-3.1,4.3-5.1,9.4-5.7,14.7C0.1,27.3,0.5,27.8,1.1,27.9z"/>
	<path d="M9.8,10.1c0.3,0,0.5-0.1,0.7-0.3C18,2.4,29.7,0,39.8,3.8c0.5,0.2,1.1-0.1,1.3-0.6c0.2-0.5-0.1-1.1-0.6-1.3
		C29.7-2.2,17.1,0.4,9.1,8.4c-0.4,0.4-0.4,1,0,1.4C9.3,10,9.5,10.1,9.8,10.1z"/>
</g>
</svg>
