<?xml version="1.0" encoding="utf-8"?>
<!-- Generator: Adobe Illustrator 22.1.0, SVG Export Plug-In . SVG Version: 6.00 Build 0)  -->
<svg version="1.1" id="Layer_1" xmlns="http://www.w3.org/2000/svg" xmlns:xlink="http://www.w3.org/1999/xlink" x="0px" y="0px"
	 viewBox="0 0 60 60" enable-background="new 0 0 60 60" xml:space="preserve">
<g id="ultimate">
	<path d="M30,24c-2.4,0-4.2,1.9-4.2,4.2c0,2.4,1.9,4.2,4.2,4.2c2.3,0,4.2-1.9,4.2-4.2C34.2,25.9,32.3,24,30,24z M30,30.5
		c-1.3,0-2.3-1.1-2.3-2.3c0-1.2,1.1-2.3,2.3-2.3c1.3,0,2.3,1.1,2.3,2.3C32.3,29.5,31.3,30.6,30,30.5z"/>
	<path d="M38.9,8.2c0.1,0,0.2-0.1,0.2-0.1c0.2-0.5,0.4-1,0.6-1.5c0-0.1-0.1-0.2-0.1-0.2c-0.6-0.2-1.1-0.4-1.7-0.6
		c-0.1,0-0.2,0-0.2,0.1c-0.2,0.5-0.3,1-0.5,1.6c0,0,0,0.2,0.1,0.2C37.9,7.8,38.4,8,38.9,8.2z"/>
	<path d="M30,11c3.1,0,5.5-2.4,5.5-5.5C35.5,2.4,33,0.1,30,0c-3.1,0.1-5.5,2.4-5.5,5.5C24.5,8.6,26.9,11,30,11z M30,1.9
		c2,0,3.5,1.6,3.5,3.6C33.5,7.5,32,9,30,9c-2,0-3.5-1.6-3.6-3.5C26.4,3.5,28.1,1.9,30,1.9z"/>
	<path d="M29.3,17.7c0.5,0,1,0,1.4,0c0.2,0,0.2-0.1,0.2-0.2c0-1.6,0-3.1,0-4.7c0-0.2-0.1-0.2-0.2-0.2c-0.5,0-0.9,0-1.4,0
		c-0.2,0-0.3,0.1-0.3,0.3c0,0.8,0,1.5,0,2.3c0,0.8,0,1.5,0,2.3C29,17.6,29.1,17.7,29.3,17.7z"/>
	<path d="M40.9,29.9c-0.1-6.1-5-10.8-11-10.8c-6.1,0.1-10.9,5-10.8,11c0.1,6.1,5,10.8,11,10.8C36.2,40.8,40.9,35.9,40.9,29.9z
		 M34.1,38c-1.6,0.8-3.3,1.1-5.1,0.9c-1.1-0.1-2.2-0.5-3.2-1c-0.1,0-0.1-0.2-0.1-0.3c0.1-0.9,1.1-1.7,2.1-1.7c0.8,0,1.5,0,2.3,0
		c0.7,0,1.5,0,2.2,0c0.9,0,1.7,0.6,2.1,1.5C34.4,37.7,34.4,37.8,34.1,38z M35.9,36.2c-0.6-1.2-1.6-1.9-2.9-2.2
		c-0.3-0.1-0.7-0.1-1-0.1c-1.3,0-2.7,0-4,0c-1.1,0-2.2,0.3-3,1.1c-0.4,0.4-0.6,0.8-0.9,1.2c-0.1,0.2-0.2,0.2-0.4,0.1
		c-1.3-1.2-2.1-2.7-2.4-4.5c-0.8-4,1-7.8,4.5-9.7c1.6-0.9,3.4-1.2,5.3-1c3.4,0.5,5.8,2.3,7.2,5.5c0.5,1.1,0.7,2.2,0.7,3.4
		c0,2.4-0.9,4.5-2.6,6.3C36.1,36.5,36.1,36.5,35.9,36.2z"/>
	<path d="M30.7,42.3c-0.5,0-0.9,0-1.4,0c-0.2,0-0.3,0.1-0.3,0.3c0,1.5,0,3.1,0,4.6c0,0.2,0.1,0.3,0.3,0.3c0.4,0,0.9,0,1.3,0
		c0.2,0,0.3-0.1,0.3-0.3c0-0.8,0-1.5,0-2.3c0-0.8,0-1.5,0-2.3C31,42.4,30.9,42.3,30.7,42.3z"/>
	<path d="M53.3,35c0.5,0.1,0.9,0.2,1.4,0.3c0.2,0,0.3,0,0.3-0.2c0.1-0.5,0.2-1.1,0.3-1.6c0-0.2,0-0.3-0.2-0.3
		c-0.4-0.1-0.9-0.1-1.4-0.2c-0.2-0.1-0.3,0.1-0.3,0.3c-0.1,0.5-0.1,0.9-0.2,1.4C53,34.9,53.1,35,53.3,35z"/>
	<path d="M55.2,28.9c-0.5,0-0.9,0-1.4,0c-0.2,0-0.3,0.1-0.3,0.3c0,0.5,0,1,0,1.5c0,0.2,0.1,0.3,0.3,0.3c0.5,0,1,0,1.4,0
		c0.2,0,0.2-0.1,0.2-0.2c0-0.3,0-0.5,0-0.8c0-0.3,0-0.6,0-0.8C55.4,29,55.4,28.9,55.2,28.9z"/>
	<path d="M51.2,23.2c3,0,5.4-2.3,5.5-5.2c0.1-3.3-2.4-5.7-5.5-5.8c-3,0-5.4,2.3-5.5,5.2C45.6,20.7,48.1,23.2,51.2,23.2z M51.1,14.2
		c1.9,0,3.7,1.4,3.7,3.6c0,1.8-1.5,3.4-3.5,3.5c-1.9,0-3.6-1.5-3.6-3.5C47.6,15.9,49.2,14.2,51.1,14.2z"/>
	<path d="M53.6,27c0.5-0.1,0.9-0.1,1.4-0.2c0.2,0,0.3-0.1,0.3-0.3c-0.1-0.5-0.2-1.1-0.3-1.6c0-0.2-0.1-0.2-0.3-0.2
		c-0.5,0.1-0.9,0.2-1.4,0.3c-0.2,0-0.2,0.1-0.2,0.3c0.1,0.5,0.2,1,0.2,1.4C53.3,26.9,53.4,27,53.6,27z"/>
	<path d="M41.4,24.5c1.3-0.8,2.6-1.5,3.9-2.3c0.1,0,0.2-0.1,0.2-0.2c-0.3-0.5-0.5-0.9-0.8-1.4c-0.1-0.2-0.2-0.2-0.4-0.1
		c-1,0.6-2,1.2-3,1.8c-0.4,0.2-0.8,0.4-1.2,0.7c0.3,0.5,0.6,1,0.8,1.4C41.1,24.6,41.2,24.6,41.4,24.5z"/>
	<path d="M42.4,10c0.2,0.1,0.3,0.1,0.3-0.1c0.3-0.4,0.5-0.8,0.8-1.3c0-0.1,0-0.2,0-0.2c-0.5-0.3-1.1-0.6-1.6-0.9c0,0,0,0-0.1,0
		c0,0-0.1,0.1-0.2,0.2c-0.2,0.4-0.4,0.8-0.7,1.3c-0.1,0.2-0.1,0.3,0.1,0.3C41.5,9.5,42,9.8,42.4,10z"/>
	<path d="M45.7,12.4c0,0,0.1,0.1,0.1,0.1c0,0,0.1,0,0.1-0.1c0.4-0.4,0.7-0.8,1.1-1.2c0,0,0-0.2,0-0.3c-0.4-0.4-0.9-0.7-1.3-1.1
		c-0.1-0.1-0.2-0.1-0.3,0c-0.3,0.4-0.6,0.8-0.9,1.2c-0.1,0.1-0.1,0.2,0,0.3C44.8,11.8,45.3,12.1,45.7,12.4z"/>
	<path d="M39.2,51.9c-0.1-0.1-0.1-0.2-0.3-0.2c-0.5,0.2-1,0.4-1.5,0.6c-0.1,0-0.1,0.1-0.2,0.1c0.2,0.6,0.4,1.1,0.5,1.6
		c0,0,0.2,0.1,0.2,0c0.5-0.2,1-0.4,1.6-0.6c0.2-0.1,0.2-0.2,0.2-0.4C39.5,52.8,39.3,52.4,39.2,51.9z"/>
	<path d="M30,49c-3.1,0-5.5,2.4-5.5,5.5c0,3.1,2.4,5.4,5.5,5.5c3-0.1,5.5-2.4,5.5-5.5C35.5,51.4,33.1,49,30,49z M30,58.1
		c-2,0-3.5-1.6-3.5-3.6c0-2,1.6-3.6,3.5-3.5c2,0,3.5,1.5,3.6,3.5C33.6,56.4,31.9,58.1,30,58.1z"/>
	<path d="M22.6,52.3c-0.5-0.2-1-0.4-1.5-0.5c-0.1,0-0.2,0-0.3,0.1c-0.2,0.5-0.4,1-0.6,1.5c0,0.1,0,0.2,0.1,0.2
		c0.6,0.2,1.2,0.5,1.9,0.7c0.2-0.6,0.4-1.1,0.5-1.6C22.8,52.5,22.8,52.4,22.6,52.3z"/>
	<path d="M18.6,35.5c-1,0.6-2,1.2-3,1.8c-0.4,0.2-0.8,0.4-1.2,0.7c0.3,0.5,0.6,0.9,0.8,1.4c0.1,0.2,0.2,0.2,0.4,0.1
		c1.3-0.7,2.6-1.5,3.8-2.2c0.1-0.1,0.2-0.1,0.3-0.2c-0.3-0.5-0.5-0.9-0.8-1.4C18.9,35.4,18.8,35.3,18.6,35.5z"/>
	<path d="M20.9,8.1c0,0.1,0.2,0.1,0.3,0.1c0.5-0.2,1-0.4,1.5-0.6c0.1,0,0.2,0,0.2-0.1c-0.2-0.7-0.4-1.2-0.6-1.7c0,0-0.2-0.1-0.2,0
		C21.5,6,21,6.2,20.4,6.4c-0.2,0.1-0.2,0.2-0.1,0.3C20.5,7.2,20.7,7.6,20.9,8.1z"/>
	<path d="M46,47.6c-0.1-0.1-0.2-0.1-0.3,0c-0.5,0.4-0.9,0.7-1.4,1.1c0.4,0.5,0.7,0.9,1.1,1.4c0,0,0.2,0,0.3,0
		c0.5-0.4,0.9-0.7,1.3-1.1c0.1-0.1,0.1-0.2,0-0.3C46.6,48.3,46.3,47.9,46,47.6z"/>
	<path d="M51.2,36.8c-3,0-5.6,2.4-5.5,5.7c0.1,2.9,2.4,5.3,5.5,5.3c3,0,5.6-2.4,5.5-5.7C56.6,39.2,54.4,36.8,51.2,36.8z M51.1,45.8
		c-1.9-0.1-3.5-1.7-3.4-3.6c0-2,1.7-3.5,3.6-3.5c1.9,0,3.5,1.7,3.5,3.5C54.8,44.4,53,45.9,51.1,45.8z"/>
	<path d="M14.4,47.6c-0.1-0.1-0.2-0.1-0.3,0c-0.3,0.4-0.7,0.7-1,1.1c-0.1,0.1-0.1,0.2,0,0.4c0.4,0.3,0.8,0.7,1.3,1
		c0.2,0.1,0.3,0.1,0.4,0c0.3-0.4,0.6-0.8,0.9-1.1c0,0,0.1-0.1,0.1-0.2c0-0.1-0.1-0.1-0.1-0.2C15.2,48.2,14.7,47.9,14.4,47.6z"/>
	<path d="M42.8,50.1c0-0.1-0.1-0.2-0.1-0.2c0,0-0.1,0.1-0.1,0.1c0,0-0.1,0-0.1,0c-0.5,0.3-0.9,0.5-1.4,0.8C41,50.8,41,51,41,51
		c0.2,0.4,0.5,0.9,0.7,1.3c0.1,0.2,0.2,0.2,0.3,0.1c0.5-0.3,1-0.6,1.4-0.8c0.2-0.1,0.2-0.2,0.1-0.4C43.3,50.9,43,50.5,42.8,50.1z"/>
	<path d="M44.4,39.4c0.1,0.1,0.3,0.2,0.4,0c0.3-0.5,0.6-1,0.9-1.5c0,0-0.1-0.1-0.1-0.1c-1.4-0.8-2.8-1.6-4.2-2.4
		c-0.1,0-0.2,0-0.3,0.1c-0.3,0.5-0.6,1-0.9,1.5c0.4,0.2,0.8,0.5,1.2,0.7C42.4,38.2,43.4,38.8,44.4,39.4z"/>
	<path d="M17.6,50c-0.2-0.1-0.3-0.1-0.4,0.1c-0.2,0.4-0.5,0.8-0.8,1.2c-0.1,0.2-0.1,0.3,0.1,0.4c0.5,0.3,0.9,0.5,1.4,0.8
		c0.2,0.1,0.3,0.1,0.4-0.1c0.2-0.4,0.4-0.9,0.7-1.3c0,0,0-0.1,0.1-0.2c-0.1-0.1-0.1-0.1-0.2-0.2C18.5,50.5,18,50.3,17.6,50z"/>
	<path d="M14,12.4c0.1,0.1,0.2,0.1,0.3,0c0.4-0.3,0.8-0.7,1.2-1c0.1-0.1,0.1-0.2,0-0.3c-0.3-0.4-0.6-0.8-0.9-1.2
		c0-0.1-0.1-0.1-0.2-0.1c-0.1,0-0.1,0-0.1,0.1c-0.5,0.4-0.9,0.8-1.4,1.2c0,0,0,0.2,0,0.3C13.4,11.7,13.7,12,14,12.4z"/>
	<path d="M17.2,9.9c0,0.1,0.1,0.1,0.1,0.2c0,0,0.1,0,0.1-0.1c0,0,0.1,0,0.1,0c0.5-0.3,0.9-0.5,1.4-0.8C19,9.2,19,9,19,8.9
		c-0.2-0.4-0.4-0.9-0.7-1.3c-0.1-0.2-0.2-0.2-0.3-0.1c-0.5,0.3-1,0.6-1.5,0.8c-0.2,0.1-0.2,0.2-0.1,0.3C16.7,9.1,17,9.5,17.2,9.9z"
		/>
	<path d="M8.7,23.2c2.9,0,5.5-2.2,5.6-5.4c0-3-2.3-5.5-5.4-5.6c-3,0-5.3,2.2-5.5,5.1C3.1,20.6,5.6,23.2,8.7,23.2z M8.9,14.2
		c1.9,0,3.5,1.7,3.4,3.6c0,2-1.7,3.5-3.6,3.5c-1.9,0-3.5-1.7-3.5-3.5C5.2,15.6,7,14.1,8.9,14.2z"/>
	<path d="M15.2,20.6c-0.3,0.5-0.6,0.9-0.8,1.4c0,0,0.1,0.1,0.1,0.1c1.4,0.8,2.8,1.6,4.2,2.4c0.1,0,0.2,0,0.2,0
		c0.3-0.5,0.6-1,0.9-1.5c0,0-0.1-0.1-0.1-0.1c-1.4-0.8-2.8-1.6-4.2-2.4C15.5,20.5,15.3,20.6,15.2,20.6z"/>
	<path d="M5.3,35.3c0.5-0.1,1-0.2,1.5-0.3c0.1,0,0.2-0.2,0.2-0.2c-0.1-0.5-0.2-1.1-0.3-1.6c0-0.1-0.1-0.2-0.2-0.2
		c-0.5,0.1-1,0.1-1.6,0.2c-0.1,0-0.1,0.1-0.2,0.2C4.9,34,5,34.6,5.1,35.2C5.1,35.3,5.2,35.4,5.3,35.3z"/>
	<path d="M6.7,25c-0.5-0.1-0.9-0.2-1.4-0.3c-0.2,0-0.3,0-0.3,0.2c-0.1,0.5-0.2,1.1-0.3,1.6c0,0.2,0,0.3,0.2,0.3
		c0.4,0.1,0.9,0.1,1.4,0.2c0,0,0.2-0.1,0.2-0.2c0.1-0.5,0.2-1,0.3-1.6C7,25.1,6.9,25,6.7,25z"/>
	<path d="M8.8,36.8c-3.1,0-5.4,2.4-5.5,5.3c-0.1,3.4,2.5,5.7,5.5,5.7c3.1,0,5.4-2.5,5.5-5.3C14.4,39.2,11.8,36.8,8.8,36.8z
		 M8.9,45.8c-1.9,0-3.7-1.5-3.7-3.6c0-1.8,1.6-3.5,3.5-3.5c1.9,0,3.6,1.5,3.6,3.5C12.4,44.1,10.8,45.8,8.9,45.8z"/>
	<path d="M4.8,31.1c0.5,0,1,0,1.4,0c0.2,0,0.3-0.1,0.3-0.3c0-0.5,0-1,0-1.5c0-0.2-0.1-0.3-0.3-0.3c-0.5,0-1,0-1.4,0
		c-0.2,0-0.2,0.1-0.2,0.2c0,0.3,0,0.5,0,0.8c0,0.3,0,0.6,0,0.8C4.6,31,4.6,31.1,4.8,31.1z"/>
</g>
</svg>
